<svg width="81" height="81" viewBox="0 0 81 81" fill="none" xmlns="http://www.w3.org/2000/svg">
<g clip-path="url(#clip0_429_285)">
<path d="M44.9518 20.6406C44.9409 20.6517 44.936 20.6656 44.9331 20.6804C44.9393 20.6671 44.9455 20.6539 44.9518 20.6406Z" fill="black"/>
<path d="M56.6897 37.4652C56.562 37.3516 56.4311 37.2407 56.2948 37.1376C55.6118 36.621 54.9903 36.0352 54.3828 35.4344C53.8655 34.9229 53.3426 34.4153 52.8771 33.855C51.8406 32.6073 51.0176 31.224 50.3268 29.7614C50.0977 29.2764 49.9133 28.7706 49.7017 28.2772C49.295 27.3284 48.9061 26.3719 48.5852 25.3911C48.2186 24.2708 47.8575 23.1483 47.6245 21.9884C47.3902 20.822 47.0861 19.6703 46.9244 18.4886C46.8359 17.8415 46.6639 17.2095 46.5155 16.5736C46.3408 15.8252 46.1887 15.0715 45.9481 14.3394C45.6913 13.5583 45.4294 12.7787 45.0228 12.0603C44.1526 10.5228 43.0651 9.16367 41.6871 8.04681C41.0197 7.50588 40.291 7.07008 39.4972 6.73959C38.7454 6.42658 37.9647 6.2149 37.1703 6.0478C36.5715 5.92187 35.9681 5.82643 35.3561 5.79755C34.572 5.76057 33.7964 5.84751 33.03 5.99916C32.2591 6.15174 31.5346 6.43148 30.8872 6.88958C30.6179 7.08018 30.3932 7.31216 30.1948 7.57673C29.9074 7.95987 29.7874 8.40268 29.6861 8.85756C29.6527 9.00744 29.6941 9.20427 29.5658 9.29609C29.4437 9.3835 29.2644 9.33399 29.1087 9.33449C29.0338 9.33475 28.959 9.33486 28.8841 9.3326C28.5207 9.32164 28.1651 9.37703 27.8215 9.48625C26.8752 9.78708 26.0243 10.2579 25.2916 10.9342C24.9886 11.2138 24.7118 11.5171 24.4562 11.8403C23.782 12.6926 23.1787 13.5955 22.5657 14.4914C22.441 14.6736 22.3341 14.8685 22.227 15.0619C22.0584 15.3666 21.9192 15.6846 21.8193 16.0191C21.6662 16.5313 21.6151 17.048 21.703 17.5805C21.8055 18.2011 22.0308 18.7769 22.3016 19.3382C22.4252 19.5943 22.5598 19.8449 22.685 20.1002C22.8297 20.3953 22.9373 20.7038 22.9686 21.0324C23.0016 21.3784 23.0505 21.7235 23.0449 22.0727C23.038 22.4944 23.0413 22.9164 23.0282 23.3379C23.0099 23.9283 22.9913 24.5177 23.0427 25.108C23.1027 25.7958 23.2499 26.4589 23.5331 27.0915C23.8984 27.9072 24.3789 28.6443 24.9976 29.2907C25.0426 29.3377 25.1234 29.3693 25.1087 29.4545C25.0493 29.5034 24.9841 29.5037 24.9223 29.5123C24.1695 29.6176 23.4326 29.7914 22.7106 30.0281C22.0583 30.2419 21.4309 30.5116 20.8432 30.8694C20.6984 30.9575 20.5643 31.0584 20.4554 31.1897C20.4253 31.226 20.4253 31.2674 20.4543 31.3042C20.4801 31.3371 20.508 31.3695 20.5398 31.3962C20.8685 31.6724 21.1041 32.0183 21.3012 32.3954C21.6096 32.9855 21.8267 33.6122 22.0536 34.2355C22.0917 34.3399 22.0751 34.4127 22.0081 34.4936C21.8258 34.7139 21.6757 34.9542 21.5678 35.2208C21.4629 35.4801 21.4043 35.7504 21.4581 36.0238C21.4921 36.1968 21.4696 36.3059 21.3039 36.3767C21.2567 36.3969 21.2183 36.4374 21.1753 36.4678C19.7273 37.4862 18.2793 38.5044 16.8313 39.5227C16.8113 39.5445 16.7927 39.5446 16.7757 39.5193C16.7888 39.48 16.7968 39.438 16.8157 39.4016C17.0068 39.0351 17.0097 38.654 16.9088 38.2639C16.866 38.0983 16.7961 37.9463 16.687 37.8141C16.4918 37.5776 16.294 37.5212 16.016 37.6464C15.8635 37.715 15.7172 37.8043 15.5821 37.9033C15.0663 38.2815 14.6417 38.748 14.2964 39.2848C13.752 40.1311 13.3042 41.0224 13.0635 42.0065C13.0464 42.0763 13.0074 42.1389 12.9508 42.1832C12.7599 42.3329 12.575 42.4909 12.377 42.6303C11.0759 43.5466 9.77174 44.4585 8.46886 45.3722C8.39129 45.4266 8.31069 45.4786 8.24123 45.5424C8.0917 45.6795 8.06749 45.8709 8.17094 46.0273C8.27983 46.1918 8.48473 46.2422 8.67338 46.1437C8.74762 46.1049 8.81447 46.0517 8.88349 46.0034C9.85013 45.326 10.8166 44.6485 11.783 43.9709C11.9468 43.856 12.1159 43.7482 12.2584 43.6051C12.2942 43.5693 12.3354 43.5319 12.4105 43.5455C12.381 43.8456 12.3519 44.147 12.3216 44.4482C12.2794 44.8678 12.2266 45.2864 12.2213 45.7089C12.2166 46.0885 12.2086 46.468 12.2072 46.8477C12.2048 47.5226 12.209 48.1974 12.2055 48.8723C12.2009 49.7447 12.0491 50.5891 11.7362 51.4064C11.559 51.8688 11.365 52.3236 11.172 52.7792C10.6166 54.0899 10.1177 55.4171 9.84943 56.824C9.68062 57.7094 9.60437 58.5976 9.62557 59.4963C9.62705 59.5591 9.62963 59.6235 9.64448 59.684C9.65744 59.7368 9.69865 59.7725 9.75805 59.7777C9.82823 59.7839 9.88125 59.7578 9.91001 59.6922C9.94545 59.6115 9.93017 59.5261 9.92869 59.4423C9.9204 58.9781 9.92553 58.5134 9.97182 58.0519C10.054 57.2325 10.2259 56.429 10.4449 55.6359C10.7005 54.71 11.065 53.8239 11.436 52.9402C11.6521 52.4257 11.8818 51.9169 12.0652 51.389C12.2244 50.9305 12.3581 50.4665 12.4275 49.9845C12.512 49.3974 12.5097 48.8072 12.5069 48.2169C12.5013 47.0254 12.4808 45.8336 12.6069 44.646C12.6482 44.2583 12.6961 43.8712 12.7318 43.4829C12.7488 43.2985 12.8258 43.1681 12.9934 43.0856C13.2401 42.9642 13.4586 42.7978 13.6822 42.6398C14.5944 41.9952 15.5055 41.3491 16.419 40.7063C16.6773 40.5246 16.9423 40.3534 17.1932 40.1603C17.4182 39.9871 17.6627 39.8392 17.9007 39.6833C17.9984 39.6192 18.044 39.6414 18.0794 39.7586C18.1333 39.9372 18.1259 40.1118 18.0461 40.282C17.9335 40.5224 17.7865 40.7401 17.6103 40.9379C17.3292 41.2534 17.0909 41.6017 16.8382 41.939C16.7177 42.0999 16.6191 42.2743 16.551 42.4641C16.5262 42.533 16.5043 42.6048 16.4952 42.6771C16.4868 42.7435 16.5179 42.7996 16.5856 42.827C16.6536 42.8545 16.737 42.8231 16.7713 42.7532C16.7897 42.7155 16.8001 42.674 16.8163 42.6351C16.8565 42.5381 16.8869 42.4348 16.9408 42.3458C17.165 41.9755 17.4346 41.6375 17.7048 41.3003C17.7792 41.2075 17.8732 41.1874 17.9874 41.2083C18.1093 41.2306 18.2028 41.292 18.2742 41.3884C18.3707 41.5186 18.423 41.6652 18.4273 41.8288C18.4338 42.0788 18.3659 42.3082 18.237 42.52C18.0723 42.7904 17.8929 43.051 17.6842 43.2895C17.4968 43.5036 17.3022 43.7116 17.1126 43.9239C17.0567 43.9865 17.0045 44.0529 16.955 44.1208C16.92 44.1689 16.9289 44.2196 16.9653 44.2658C17.0101 44.3228 17.0681 44.3361 17.1336 44.3123C17.206 44.2859 17.2503 44.2244 17.3004 44.1706C17.4369 44.0239 17.5708 43.8747 17.7114 43.7323C17.8721 43.5696 18.0722 43.4757 18.2963 43.4435C18.5875 43.4018 18.7595 43.5708 18.739 43.8654C18.73 43.9948 18.6871 44.1133 18.6145 44.2191C18.5671 44.2883 18.5156 44.3569 18.4553 44.4147C18.3185 44.5459 18.1757 44.6708 18.0345 44.7974C17.8227 44.9873 17.6086 45.1749 17.3988 45.3671C17.3369 45.4239 17.3304 45.5146 17.3706 45.5681C17.4189 45.6325 17.5223 45.6479 17.5973 45.5951C17.6486 45.5589 17.694 45.5141 17.7403 45.4713C17.9603 45.2684 18.2168 45.1267 18.4923 45.0147C18.5914 44.9744 18.6931 44.9506 18.799 44.9459C18.94 44.9396 19.018 44.9953 19.0497 45.1339C19.0903 45.3116 19.0824 45.4893 19.0307 45.6651C18.9387 45.9776 18.7617 46.2344 18.5193 46.4484C18.3138 46.6299 18.1052 46.8079 17.9027 46.9926C17.4573 47.3986 17.0486 47.8374 16.7063 48.3359C16.0939 49.2278 15.7262 50.2189 15.5165 51.2727C15.3451 52.1341 15.2904 53.0084 15.2829 53.8836C15.2714 55.2146 15.4074 56.5363 15.5959 57.8524C15.6497 58.2275 15.7318 58.5985 15.8381 58.963C15.8674 59.0635 15.9038 59.1628 15.947 59.2581C15.9802 59.3312 16.0622 59.3549 16.1345 59.3252C16.204 59.2967 16.2236 59.237 16.2151 59.1709C16.2084 59.1195 16.1862 59.0702 16.1716 59.0197C16.0842 58.716 16.0084 58.4099 15.9505 58.0986C15.8579 57.6007 15.7986 57.0989 15.7461 56.5956C15.6717 55.8824 15.6076 55.1682 15.5894 54.4515C15.5647 53.48 15.6173 52.5113 15.7756 51.5518C15.9277 50.6303 16.2196 49.7542 16.684 48.9395C17.0534 48.2915 17.5372 47.7378 18.0856 47.2377C18.3037 47.0388 18.5288 46.8476 18.7483 46.6501C19.0461 46.3822 19.2484 46.0556 19.3459 45.6652C19.3929 45.4775 19.3976 45.2878 19.3578 45.1008C19.2925 44.7942 19.1317 44.6641 18.8086 44.6368C18.7805 44.6344 18.7484 44.6432 18.7241 44.5907C18.7604 44.5407 18.8027 44.4821 18.8453 44.4238C18.9468 44.2848 19.0049 44.128 19.0346 43.9598C19.0962 43.6114 18.9721 43.3664 18.642 43.1831C18.513 43.102 18.3342 43.2437 18.2215 43.0893C18.3203 42.9404 18.4231 42.7939 18.5169 42.6418C18.6521 42.4226 18.7184 42.1798 18.7329 41.9241C18.7589 41.4668 18.5586 41.1381 18.1417 40.942C18.1138 40.9288 18.0879 40.9111 18.0569 40.893C18.1479 40.7257 18.2423 40.5648 18.3247 40.398C18.4422 40.1603 18.4509 39.9125 18.3671 39.6615C18.3538 39.6219 18.3352 39.584 18.3209 39.5447C18.2779 39.4268 18.2797 39.4201 18.3886 39.3397C18.4393 39.3022 18.4927 39.2683 18.5443 39.2321C19.5695 38.5135 20.5946 37.7949 21.6196 37.0761C21.6885 37.0278 21.7713 36.9901 21.8219 36.9268C21.9321 36.7889 22.0462 36.8095 22.1738 36.887C22.1917 36.8978 22.2113 36.9102 22.2311 36.9125C22.4139 36.9338 22.4607 37.0546 22.4855 37.2178C22.5792 37.8343 22.619 38.452 22.5643 39.0741C22.5368 39.3885 22.5128 39.7035 22.4751 40.0168C22.406 40.5911 22.3319 41.165 22.2185 41.7327C22.2176 41.8098 22.2167 41.8868 22.2158 41.9639C22.1661 42.0496 22.2222 42.1564 22.1609 42.2398C22.1416 42.2633 22.1223 42.2868 22.1031 42.3104C22.1003 42.4814 22.0401 42.6409 21.9999 42.8039C21.7101 43.9808 21.3089 45.1237 20.9271 46.2721C20.6681 47.0512 20.3973 47.8263 20.1764 48.6175C19.9806 49.319 19.9331 50.0304 20.092 50.744C20.2064 51.2578 20.3602 51.7616 20.552 52.2532C20.9256 53.2105 21.4124 54.109 21.9656 54.9729C22.2625 55.4365 22.5412 55.9114 22.7941 56.4004C23.063 56.9202 23.3244 57.4435 23.5057 58.0021C23.5381 58.102 23.5646 58.2039 23.5988 58.3032C23.6219 58.3702 23.6886 58.4025 23.7489 58.3824C23.8186 58.3591 23.8519 58.3023 23.8424 58.2366C23.8275 58.1329 23.803 58.0296 23.7721 57.9294C23.6665 57.5871 23.5395 57.2531 23.3871 56.9282C23.0061 56.1161 22.5501 55.347 22.0743 54.5876C21.3496 53.4307 20.7601 52.213 20.4282 50.8791C20.2803 50.2844 20.2689 49.6923 20.3726 49.0933C20.4519 48.635 20.604 48.1967 20.7473 47.7566C21.0959 46.6857 21.4531 45.6177 21.8042 44.5476C22.0932 43.6665 22.3482 42.776 22.505 41.8606C22.6314 41.1233 22.7372 40.3832 22.8142 39.6386C22.8937 38.8699 22.9075 38.1033 22.8016 37.3364C22.789 37.2453 22.7816 37.1535 22.773 37.0742C22.8321 37.0202 22.8866 37.0353 22.9375 37.0336C23.1802 37.0256 23.4207 37.0023 23.6581 36.9487C23.7803 36.9211 23.9172 36.8542 24.0227 36.8863C24.1281 36.9183 24.2042 37.0503 24.2903 37.1412C24.6824 37.555 25.1611 37.7086 25.7233 37.6359C26.0267 37.5967 26.253 37.4487 26.4266 37.204C26.4724 37.1395 26.4849 37.0492 26.5722 37.0083C26.7208 37.1694 26.9001 37.2744 27.1188 37.2986C27.3517 37.3245 27.5851 37.3184 27.8049 37.2313C28.3293 37.0233 28.6962 36.6748 28.7704 36.0872C28.8237 35.6653 28.6895 35.2991 28.419 34.9769C28.3611 34.908 28.2704 34.864 28.2377 34.7642C28.4557 34.5965 28.5702 34.377 28.6215 34.1217C28.7398 33.5334 28.5485 33.0393 28.141 32.6239C27.7889 32.2649 27.2613 32.1062 26.7143 32.5197C26.6147 32.595 26.5206 32.6774 26.4257 32.7549C26.3202 32.6971 26.3277 32.5873 26.2935 32.5041C26.1225 32.088 25.8378 31.7774 25.4568 31.545C25.1752 31.3732 24.8702 31.3213 24.5478 31.3383C24.3972 31.3462 24.2567 31.3888 24.1347 31.4781C23.8049 31.7196 23.538 32.0079 23.4198 32.414C23.3598 32.6199 23.3346 32.8252 23.3579 33.0381C23.3646 33.0996 23.3799 33.1778 23.351 33.2221C23.2589 33.363 23.2085 33.5331 22.9815 33.5875C22.7502 33.6428 22.5645 33.8007 22.4546 34.0116C22.4248 34.0688 22.3711 34.0852 22.3076 34.123C22.2591 33.9823 22.2133 33.8541 22.1707 33.7249C21.9958 33.194 21.7886 32.6769 21.5243 32.1834C21.3692 31.8937 21.1831 31.627 20.9607 31.385C20.9207 31.3415 20.8604 31.3102 20.8557 31.2425C20.8769 31.1855 20.9286 31.1653 20.9724 31.1381C21.2682 30.9549 21.5769 30.7962 21.8956 30.6567C23.3129 30.0365 24.8077 29.7514 26.3413 29.6581C27.5226 29.5863 28.7015 29.6317 29.8705 29.838C30.5768 29.9626 31.2689 30.137 31.9428 30.3863C32.113 30.4493 32.2258 30.5446 32.3145 30.6995C32.6297 31.2497 32.8811 31.828 33.1016 32.4209C33.1529 32.559 33.1982 32.6996 33.2557 32.835C33.309 32.9606 33.3855 33.0128 33.4624 32.996C33.551 32.9767 33.5802 32.8723 33.5279 32.7256C33.3052 32.1005 33.066 31.4822 32.758 30.8928C32.6065 30.6028 32.4328 30.3259 32.2376 30.0645C31.8316 29.5208 31.2972 29.1331 30.6932 28.837C30.3908 28.6888 30.0801 28.559 29.7625 28.4461C29.3254 28.2907 28.9022 28.104 28.4965 27.8783C27.9472 27.5728 27.4671 27.1856 27.07 26.6949C26.738 26.2847 26.4299 25.8581 26.1492 25.4115C25.833 24.9086 25.5993 24.3682 25.4439 23.7963C25.1885 22.8569 25.1705 21.9017 25.2908 20.9417C25.3813 20.2195 25.539 19.5099 25.7309 18.8082C25.8446 18.3923 25.9275 17.9676 26.0866 17.5643C26.2644 17.1134 26.46 16.6706 26.6752 16.2365C26.7549 16.0761 26.8433 15.9205 26.9597 15.7824C27.2046 15.4918 27.4249 15.1826 27.6351 14.8668C28.1896 14.0337 28.7393 13.1974 29.2918 12.3629C29.3232 12.3154 29.3367 12.2422 29.4241 12.2543C29.4718 12.3813 29.5175 12.5103 29.5685 12.6372C29.8034 13.2209 30.1348 13.742 30.582 14.1871C30.7696 14.3738 30.9742 14.5391 31.2089 14.6635C31.283 14.7027 31.3597 14.741 31.4396 14.7641C31.5618 14.7995 31.678 14.6854 31.6466 14.564C31.631 14.5036 31.603 14.4455 31.5741 14.3898C31.5111 14.2683 31.4419 14.1499 31.3786 14.0285C30.999 13.3003 30.7582 12.532 30.7187 11.7074C30.7116 11.5604 30.721 11.4126 30.7224 11.2652C30.7226 11.2408 30.736 11.2247 30.762 11.2302C30.7798 11.234 30.8018 11.2472 30.8096 11.2625C30.8287 11.2997 30.8398 11.341 30.8557 11.3799C31.3309 12.5422 32.0586 13.5252 32.9811 14.369C33.2617 14.6256 33.5609 14.8586 33.8918 15.0479C33.983 15.1 34.0775 15.1466 34.1723 15.1918C34.2227 15.2159 34.2728 15.2091 34.32 15.1743C34.3789 15.1308 34.3888 15.0716 34.38 15.0065C34.3697 14.9297 34.3166 14.8749 34.2739 14.8154C34.1021 14.5755 33.9264 14.3383 33.7583 14.0959C33.3062 13.4436 33.0567 12.7111 32.9124 11.9377C32.8414 11.8431 32.858 11.7285 32.8406 11.6217C32.7986 11.5494 32.7848 11.4746 32.7849 11.3957C32.7851 11.3173 32.9047 11.3105 32.9117 11.3885C32.9129 11.4019 32.913 11.4158 32.9118 11.4304C32.9171 11.5178 32.9939 11.5866 32.9768 11.6799C33.0025 11.7373 33.0293 11.7943 33.0537 11.8524C33.2541 12.3282 33.4663 12.7977 33.7324 13.2419C34.2441 14.0962 34.934 14.7858 35.7089 15.3979C35.7583 15.437 35.8128 15.4698 35.8661 15.5036C35.9243 15.5406 35.9855 15.5472 36.0421 15.5026C36.0957 15.4602 36.1202 15.3994 36.1017 15.3345C36.0817 15.2643 36.0511 15.1964 36.0189 15.1306C35.6596 14.3976 35.4012 13.6315 35.2818 12.8229C35.2232 12.4256 35.1957 12.0251 35.3199 11.6318C35.3344 11.586 35.3272 11.5123 35.4015 11.5225C35.4497 11.5292 35.434 11.5892 35.4383 11.6258C35.5076 12.2148 35.6507 12.7858 35.8657 13.3378C36.1678 14.1138 36.5116 14.8717 36.9154 15.6001C37.2736 16.2461 37.6671 16.87 38.1697 17.4173C38.2193 17.4713 38.2704 17.5243 38.3256 17.5724C38.3585 17.601 38.4005 17.6027 38.443 17.5818C38.4854 17.561 38.5131 17.5264 38.51 17.4839C38.5048 17.4109 38.4938 17.3369 38.4737 17.2667C38.2002 16.3139 38.2247 15.3508 38.3723 14.3836C38.3833 14.312 38.3951 14.2372 38.4688 14.1742C38.518 14.44 38.565 14.6972 38.6133 14.9541C38.7436 15.6476 38.8673 16.3424 39.047 17.0256C39.2241 17.699 39.4247 18.3634 39.7603 18.9789C39.8106 19.0711 39.8477 19.1707 39.8993 19.262C39.9407 19.3352 40.0292 19.3446 40.0882 19.2881C40.1261 19.2518 40.1574 19.2087 40.1935 19.1706C40.3975 18.9557 40.6193 18.7618 40.8705 18.6033C41.0406 18.496 41.2201 18.4088 41.4142 18.3537C41.9673 18.1966 42.3981 18.4031 42.6188 18.9317C42.6717 19.0583 42.7054 19.19 42.7313 19.3254C42.8059 19.716 42.7764 20.1052 42.7025 20.489C42.5199 21.4378 42.1176 22.2885 41.5092 23.0388C41.2087 23.4095 40.8667 23.7365 40.4399 23.9633C40.218 24.1133 40.3111 24.3442 40.3028 24.5411C40.2498 25.8006 39.1138 26.525 37.9973 26.0042C37.9306 25.973 37.8649 25.9383 37.7882 25.9705C37.7261 26.1492 37.6654 26.3285 37.6015 26.5066C37.4315 26.9813 37.4538 27.4552 37.5818 27.9366C37.7965 28.7437 38.1603 29.4707 38.6966 30.1121C39.2321 30.7527 39.7891 31.3708 40.4795 31.8521C41.0413 32.2437 41.6044 32.6334 42.2136 32.9507C42.402 33.0488 42.4029 33.0545 42.3196 33.2359C42.1298 33.6493 41.8929 34.0347 41.618 34.3968C41.1299 35.0397 40.5523 35.5925 39.9076 36.0752C38.564 37.0812 37.065 37.7519 35.4321 38.1253C34.2824 38.3883 33.1208 38.4742 31.9464 38.3262C31.0038 38.2074 30.1154 37.9366 29.3216 37.3977C29.2868 37.3741 29.2509 37.351 29.2128 37.3337C29.1442 37.3027 29.0901 37.3321 29.0478 37.3859C29.001 37.4453 29.0123 37.5072 29.06 37.557C29.1031 37.602 29.1543 37.6406 29.2062 37.6757C29.4334 37.8296 29.6737 37.9601 29.9232 38.0744C30.8189 38.4848 31.7677 38.6573 32.7444 38.6911C33.978 38.7338 35.1825 38.5465 36.3594 38.1858C37.9076 37.7113 39.3227 36.9822 40.5603 35.9287C41.429 35.1893 42.1542 34.3354 42.622 33.2821C42.6382 33.2456 42.6689 33.2156 42.698 33.1755C42.9838 33.3035 43.2668 33.4182 43.5391 33.5543C44.4355 34.0023 45.2963 34.511 46.1138 35.0919C47.3177 35.9472 48.4925 36.8394 49.5941 37.825C50.1835 38.3523 50.7881 38.8627 51.3493 39.4209C51.5881 39.6584 51.8194 39.9033 52.0378 40.1761C51.9411 40.28 51.8597 40.3702 51.7686 40.4615C51.4994 40.7312 51.2352 41.006 50.9804 41.2893C49.9113 42.4781 48.8401 43.665 47.8175 44.8949C47.1752 45.6673 46.6023 46.4865 46.1133 47.363C45.724 48.0608 45.4876 48.8126 45.3972 49.6061C45.3663 49.8776 45.3676 50.1534 45.3659 50.4272C45.3651 50.5732 45.4178 50.6407 45.4977 50.6465C45.5805 50.6525 45.631 50.581 45.6422 50.4408C45.6439 50.4198 45.6433 50.3986 45.6448 50.3776C45.6624 50.1147 45.6734 49.8511 45.6994 49.5891C45.7497 49.0821 45.8946 48.5985 46.0801 48.1261C46.0913 48.0976 46.1046 48.0687 46.1424 48.079C46.1813 48.0896 46.1795 48.1268 46.1807 48.1565C46.2031 48.7153 46.2734 49.2699 46.3296 49.8257C46.3995 50.5178 46.4688 51.2101 46.5394 51.9022C46.6144 52.6362 46.6977 53.3694 46.7641 54.1041C46.843 54.9761 46.9638 55.8423 47.1258 56.7019C47.2526 57.3743 47.4058 58.0419 47.5476 58.7115C47.5519 58.7319 47.5571 58.753 47.5667 58.7713C47.5822 58.8008 47.6087 58.8152 47.643 58.8123C47.7708 58.8016 47.8216 58.7397 47.8027 58.6123C47.7857 58.4978 47.7675 58.3833 47.7455 58.2697C47.6035 57.5355 47.431 56.8077 47.3157 56.0678C47.1907 55.2655 47.0839 54.4618 47.0221 53.652C46.9996 53.3578 46.9661 53.0644 46.9351 52.7709C46.8831 52.2782 46.8279 51.7859 46.7762 51.2932C46.6982 50.549 46.6194 49.8048 46.5462 49.06C46.4998 48.5879 46.4612 48.1151 46.4504 47.6402C46.4462 47.4554 46.4853 47.2956 46.5838 47.134C47.0129 46.4308 47.4855 45.7602 48.0107 45.1253C48.9654 43.9711 49.9704 42.8611 50.9662 41.743C51.3311 41.3333 51.7077 40.935 52.0986 40.5502C52.1488 40.5008 52.1857 40.4307 52.2773 40.4186C52.4038 40.5149 52.4668 40.6608 52.5325 40.803C52.6478 41.0526 52.7268 41.3151 52.7851 41.583C52.9894 42.5223 53.0785 43.4777 53.1632 44.4328C53.2079 44.9366 53.2278 45.4428 53.255 45.9481C53.3198 47.1487 53.3628 48.3496 53.3217 49.5525C53.2816 50.7223 53.2515 51.8924 53.2189 53.0623C53.1924 54.011 53.1768 54.9601 53.1409 55.9084C53.1157 56.5724 53.0832 57.2358 53.0985 57.9004C53.0997 57.9531 53.1005 58.0058 53.1015 58.0585C53.1037 58.1647 53.1685 58.231 53.2475 58.2883C53.2805 58.3123 53.3437 58.2942 53.3485 58.2575C53.3552 58.2057 53.3614 58.1534 53.3622 58.1012C53.3669 57.7955 53.3637 57.4896 53.3748 57.1842C53.4064 56.3203 53.4492 55.4567 53.4771 54.5926C53.5129 53.486 53.5299 52.3788 53.5707 51.2723C53.6146 50.0812 53.6344 48.8901 53.6185 47.6985C53.606 46.7704 53.5519 45.8441 53.4951 44.918C53.4343 43.9282 53.3238 42.9439 53.1639 41.9657C53.0736 41.413 52.9377 40.8722 52.648 40.3827C52.6354 40.3613 52.6464 40.3258 52.6464 40.2904C53.236 40.2756 53.7983 40.1384 54.349 39.9544C55.2429 39.6558 55.9843 39.1373 56.5485 38.3775C56.6417 38.252 56.724 38.1158 56.7926 37.9753C56.877 37.8022 56.8335 37.5932 56.6897 37.4652ZM16.4199 39.465C16.2103 39.729 15.9908 39.9853 15.7731 40.2427C15.7398 40.2821 15.6937 40.3117 15.6507 40.3418C14.9514 40.831 14.2519 41.3197 13.5518 41.8078C13.5189 41.8308 13.4807 41.8463 13.4458 41.8649C13.3946 41.7934 13.4305 41.7335 13.4512 41.6774C13.7521 40.8649 14.1178 40.0843 14.6067 39.3663C14.9355 38.8835 15.3258 38.4579 15.8043 38.1179C15.9249 38.0322 16.0512 37.9576 16.1899 37.9039C16.2697 37.8729 16.333 37.8931 16.3921 37.947C16.5576 38.0982 16.6187 38.2994 16.6503 38.5099C16.7024 38.8577 16.6426 39.1846 16.4199 39.465ZM23.5778 36.1229C23.7206 36.2584 23.856 36.3869 23.992 36.5159C23.9662 36.5397 23.9534 36.5604 23.9357 36.5664C23.5526 36.6965 23.1599 36.757 22.7548 36.7267C22.7277 36.7247 22.711 36.7174 22.7142 36.6904C22.7165 36.6715 22.7212 36.6445 22.7343 36.6364C23.0121 36.4655 23.2913 36.2968 23.5778 36.1229ZM23.1542 35.35C23.2085 35.5312 23.2941 35.6985 23.3927 35.8744C23.3348 35.9184 23.3065 35.9507 23.237 35.9639C22.9577 36.0166 22.7029 36.1554 22.5167 36.3701C22.338 36.5762 22.2209 36.6114 22.088 36.5126C21.9944 36.443 21.9109 36.3657 21.8489 36.2663C21.7357 36.0847 21.747 36.0361 21.9395 35.9257C22.3029 35.7176 22.6674 35.5115 23.0315 35.3046C23.0902 35.2713 23.1369 35.2924 23.1542 35.35ZM23.0567 33.966C23.0504 34.0776 23.0429 34.1779 23.0396 34.2785C23.0358 34.3939 23.0351 34.5094 23.0341 34.6249C23.0333 34.7297 23.0339 34.8344 23.0339 34.9587C22.635 35.1934 22.2213 35.4324 21.7887 35.665C21.7949 35.4082 21.8478 35.2594 22.0248 34.9767C22.2836 34.5634 22.6931 34.1584 23.0567 33.966ZM25.15 27.4456C25.0871 27.4473 24.9076 27.1759 24.8924 27.1134C24.8705 27.1004 24.6471 26.757 24.6212 26.6853C24.6212 26.6853 24.6212 26.6853 24.6212 26.6853C24.5529 26.6328 24.5239 26.5586 24.5075 26.4775C24.4807 26.4229 24.4396 26.3393 24.4127 26.2847C24.3505 26.2155 24.3264 26.1299 24.3178 26.0378C24.3069 26.0215 24.3034 26.0038 24.3071 25.9846C24.2275 25.8901 24.2171 25.7718 24.1954 25.6575C24.1887 25.6214 24.1819 25.5854 24.1752 25.5493C24.0956 25.4035 24.072 25.245 24.0693 25.0816C24.0564 25.0196 24.0363 24.9225 24.0235 24.8605C23.9889 24.7717 23.9903 24.6779 24.003 24.5825C23.9719 24.1413 23.9733 23.7001 24.0053 23.2591C24.0126 23.2525 24.0153 23.2124 24.0042 23.1955C23.9935 22.9235 24.0503 22.6568 24.0689 22.3871C24.0923 22.2048 24.1156 22.0229 24.139 21.8406C24.2022 21.5273 24.1782 21.2062 24.2063 20.8897C24.261 21.1202 24.2666 21.6241 24.2287 21.8168C24.2251 21.8351 24.0791 23.9908 24.1133 24.4627C24.1178 24.5247 24.1144 24.5925 24.112 24.6551C24.1197 24.7528 24.1274 24.8505 24.1352 24.9482C24.2038 25.1113 24.214 25.2862 24.2391 25.4582C24.2538 25.5062 24.2772 25.5826 24.2919 25.6306C24.3383 25.7194 24.3546 25.8179 24.3699 25.9168C24.3699 25.9168 24.3699 25.9168 24.3699 25.9168C24.3699 25.9168 24.3699 25.9168 24.3699 25.9168C24.3815 25.9321 24.3862 25.9492 24.3841 25.9683C24.4598 26.041 24.47 26.1404 24.4929 26.2347C24.5179 26.2962 24.543 26.3577 24.568 26.4192C24.6335 26.4686 24.6495 26.5445 24.6733 26.6161C24.7161 26.699 24.7589 26.7819 24.8017 26.8648C24.8468 26.9168 24.8961 26.9666 24.8953 27.0427L24.8952 27.0428C24.9404 27.0484 25.1617 27.4219 25.15 27.4456ZM28.7244 10.4035C28.6968 10.4325 28.6717 10.4667 28.6252 10.4658C28.5727 10.5196 28.5162 10.5673 28.4414 10.5872C28.3812 10.6443 28.3184 10.6972 28.236 10.7197C28.2057 10.7617 28.1703 10.7957 28.1145 10.7981C28.1059 10.8348 28.0798 10.8511 28.0453 10.8573C27.9817 10.9467 27.8896 10.9989 27.7962 11.0495C27.6992 11.1437 27.5999 11.235 27.481 11.3019C27.3426 11.4395 27.2049 11.5781 27.0372 11.6815C27.0372 11.6815 27.0372 11.6815 27.0372 11.6815C27.024 11.7134 27.0027 11.7352 26.9665 11.7387C26.9597 11.7743 26.9363 11.7942 26.9035 11.8053C26.6647 12.0708 26.415 12.3256 26.1492 12.5644C26.1291 12.5862 26.109 12.6081 26.089 12.6299C25.9857 12.7984 25.8479 12.9376 25.7104 13.077C25.6414 13.1955 25.5595 13.3039 25.458 13.3969C25.458 13.3969 25.458 13.3969 25.458 13.3969L25.458 13.3969C25.4311 13.4693 25.3855 13.5284 25.3279 13.5788C25.2837 13.6791 25.2276 13.7712 25.1446 13.8446C25.1445 13.8446 25.1445 13.8446 25.1445 13.8446L25.1445 13.8447C25.1457 13.8683 25.1359 13.8856 25.1149 13.8966C25.1051 13.9186 25.0918 13.9381 25.0743 13.9548C25.0699 13.9929 25.0509 14.021 25.017 14.039C25.0154 14.0372 25.0139 14.0354 25.0124 14.0335C25.0123 14.0337 25.0122 14.0339 25.0121 14.0341C25.016 14.0552 25.0084 14.0705 24.9893 14.08C24.9742 14.1023 24.9593 14.1247 24.9447 14.1472C24.9414 14.1989 24.9084 14.2332 24.8748 14.2672C24.8493 14.2914 24.8251 14.3165 24.8223 14.3544C24.7186 14.5652 24.6149 14.776 24.5112 14.9867C24.5112 14.9867 24.5112 14.9867 24.5112 14.9867L24.5112 14.9868C24.5082 15.0724 24.4635 15.1425 24.4259 15.2153C24.4061 15.2855 24.3952 15.3599 24.3641 15.4247C24.3324 15.4909 24.3502 15.5924 24.2455 15.6133C24.2023 15.5436 24.2211 15.4688 24.2396 15.4001C24.2693 15.2897 24.2949 15.1759 24.3657 15.0811C24.3632 15.0108 24.3991 14.9557 24.4366 14.9012C24.5257 14.6274 24.6625 14.3777 24.8212 14.1391C24.8229 14.1369 24.8247 14.1348 24.8265 14.1326C24.829 14.1066 24.844 14.0887 24.8654 14.0749C24.8667 14.0715 24.8684 14.0684 24.8693 14.0647C24.8791 14.0462 24.8889 14.0278 24.8987 14.0093C24.9076 13.9879 24.9202 13.969 24.9371 13.953L24.9398 13.9481C24.9418 13.948 24.9437 13.9479 24.9456 13.9477C24.9535 13.8964 24.9896 13.8624 25.0225 13.8265C25.0363 13.8052 25.0513 13.7846 25.0671 13.7648L25.0684 13.7606C25.1128 13.6617 25.1657 13.5687 25.252 13.4992C25.252 13.4992 25.252 13.4992 25.252 13.4991C25.2795 13.4279 25.3217 13.3674 25.3828 13.3208C25.4454 13.1977 25.5289 13.0909 25.6333 13.0004C25.7448 12.8398 25.8594 12.682 26.0192 12.5641C26.0286 12.5323 26.0448 12.508 26.0818 12.5059V12.4975C26.302 12.2126 26.5542 11.9595 26.8394 11.7395L26.8479 11.7393C26.8533 11.7022 26.8768 11.6844 26.912 11.6792C26.9158 11.6427 26.94 11.6254 26.972 11.6153C27.0912 11.4576 27.2487 11.3431 27.4076 11.2302C27.4979 11.1262 27.6037 11.0417 27.7249 10.9765C27.7965 10.896 27.878 10.8297 27.9817 10.7947C28.014 10.7563 28.0499 10.724 28.1039 10.722C28.1039 10.722 28.1039 10.722 28.1039 10.722L28.1039 10.722C28.1143 10.6833 28.1419 10.6687 28.1794 10.6681C28.2435 10.5968 28.3191 10.5439 28.4139 10.5218C28.4139 10.5218 28.4139 10.5218 28.414 10.5219C28.414 10.5218 28.414 10.5218 28.4139 10.5218C28.4666 10.4587 28.5314 10.4176 28.6151 10.4107C28.6377 10.3928 28.6582 10.37 28.6838 10.3592C28.6966 10.3538 28.7186 10.3701 28.7365 10.3766C28.7327 10.3857 28.7308 10.3968 28.7244 10.4035ZM42.1419 11.7728C42.1287 11.7954 42.1099 11.7975 42.0947 11.7752C42.0732 11.7435 42.0552 11.7093 42.0358 11.6762C42.0161 11.6329 41.9965 11.5896 41.9769 11.5463C41.9565 11.5048 41.936 11.4633 41.9156 11.4218C41.9156 11.4218 41.9156 11.4218 41.9156 11.4218C41.8756 11.3593 41.8356 11.2968 41.7957 11.2343C41.7957 11.2343 41.7957 11.2343 41.7957 11.2342L41.7957 11.2343C41.7878 11.2136 41.7798 11.1928 41.7719 11.1721C41.7083 11.1573 41.6982 11.0997 41.676 11.0518C41.6173 10.9947 41.5642 10.9337 41.5384 10.8537C41.5241 10.8349 41.5097 10.8161 41.4954 10.7973C41.4415 10.7707 41.4125 10.7237 41.3918 10.67C41.3112 10.5993 41.2509 10.5131 41.2019 10.4185C41.1185 10.3115 41.035 10.2045 40.9516 10.0975C40.8593 9.99902 40.7585 9.90749 40.6965 9.78444C40.6965 9.78444 40.6965 9.78444 40.6965 9.78441C40.6777 9.76246 40.6589 9.7405 40.6401 9.71858C40.383 9.48932 40.1273 9.25842 39.8681 9.03154C39.743 8.922 39.6113 8.81998 39.4826 8.71456C39.4458 8.6953 39.4066 8.67961 39.3726 8.6563C38.5476 8.09008 37.6454 7.70634 36.6648 7.5069C36.6342 7.50066 36.6043 7.49057 36.5741 7.48225C36.5283 7.49382 36.4879 7.48593 36.4546 7.45081C36.3923 7.44341 36.33 7.43602 36.2678 7.42862C36.0582 7.40661 35.8486 7.3846 35.6391 7.36262L35.5803 7.36346C35.2197 7.36456 34.859 7.36566 34.4984 7.36676C34.4534 7.36781 34.4085 7.36885 34.3634 7.3699C34.3635 7.36987 34.3635 7.36984 34.3635 7.36981C34.3634 7.36984 34.3634 7.36987 34.3633 7.3699C34.3096 7.37355 34.256 7.37721 34.2023 7.38086C34.2021 7.38098 34.2019 7.381 34.2016 7.38112C34.1148 7.42654 34.0223 7.44046 33.9254 7.42996C33.7987 7.44446 33.6791 7.50307 33.5481 7.49089C33.4891 7.49779 33.43 7.50466 33.371 7.51157L33.3663 7.5158C33.2915 7.57859 33.2003 7.57047 33.1119 7.57491C33.0398 7.64242 32.9455 7.63012 32.8589 7.64506C32.809 7.71054 32.7338 7.69778 32.6659 7.70782C32.6659 7.70779 32.6658 7.70776 32.6658 7.7077C32.6658 7.70776 32.6658 7.70779 32.6658 7.70785C32.5922 7.77362 32.4935 7.76997 32.4074 7.80097C32.328 7.82956 32.2486 7.85813 32.1692 7.88673C32.0946 7.96068 32.0031 7.99725 31.9001 8.0087C31.8998 8.00891 31.8757 8.02242 31.8757 8.02242C31.8757 8.02242 31.7765 8.08213 31.7277 8.09011C31.6823 8.15066 31.5492 8.20817 31.5492 8.20817C31.5493 8.20817 31.5493 8.2082 31.5493 8.2082C31.5388 8.2493 31.3449 8.43244 31.3279 8.44572C31.3018 8.4887 31.2781 8.53351 31.2478 8.57335C31.2407 8.58275 31.2079 8.58191 31.1937 8.57385C31.1813 8.5668 31.1695 8.54087 31.1728 8.52692C31.1874 8.46559 31.2165 8.41234 31.2784 8.38499C31.3126 8.34132 31.3406 8.29103 31.3995 8.27441C31.3995 8.27441 31.3995 8.27441 31.3995 8.27444L31.3995 8.27441C31.4081 8.24323 31.4255 8.22137 31.46 8.21774C31.46 8.21774 31.46 8.21774 31.46 8.21777C31.46 8.21774 31.46 8.21774 31.46 8.21771C31.477 8.20666 31.4941 8.19559 31.5111 8.18454C31.556 8.10197 31.6328 8.06102 31.7156 8.02779C31.7537 7.99652 31.789 7.96013 31.8431 7.95842C31.863 7.94777 31.8829 7.93713 31.9028 7.92646C31.9504 7.86231 32.0214 7.84369 32.0941 7.82843C32.0941 7.82843 32.0942 7.82846 32.0942 7.82849C32.0942 7.82846 32.0941 7.82846 32.0941 7.82843C32.1696 7.79537 32.5011 7.64523 32.603 7.63198C32.6657 7.60628 32.7221 7.5598 32.7967 7.57401C32.8961 7.53819 32.9914 7.48549 33.1028 7.49939C33.1028 7.49939 33.106 7.4991 33.106 7.4991C33.1769 7.43289 33.267 7.43631 33.3545 7.43042C33.4396 7.3621 33.5386 7.36152 33.6398 7.37193C33.7075 7.31381 33.7874 7.30911 33.8708 7.31874C33.8708 7.31874 33.8708 7.31874 33.8708 7.31874C33.929 7.31097 33.9871 7.30322 34.0452 7.29545C34.1019 7.25033 34.166 7.24821 34.2329 7.26268C34.3637 7.25421 34.4945 7.24577 34.6253 7.23733C34.9427 7.17907 35.26 7.1755 35.5775 7.23539C35.7958 7.24316 36.0168 7.22556 36.2281 7.30186C36.2281 7.30186 36.2281 7.30186 36.2281 7.30186C36.2281 7.30186 36.2667 7.30778 36.2667 7.30778C36.2667 7.30778 36.2667 7.30781 36.2667 7.30781V7.30778C36.3891 7.30873 36.5142 7.29496 36.6232 7.37138C36.7524 7.35171 36.8714 7.39852 36.9936 7.427C37.9166 7.64227 38.7521 8.04823 39.5259 8.58843C39.5423 8.59986 39.5529 8.61952 39.5661 8.63536C40.0018 8.91104 40.3872 9.24293 40.7029 9.6528C40.7367 9.66145 40.7544 9.68528 40.7635 9.71719C40.8754 9.80004 40.9499 9.91364 41.0209 10.0301C41.1177 10.1255 41.2023 10.2304 41.2689 10.3494C41.3423 10.4256 41.4148 10.5024 41.4502 10.6054C41.4614 10.624 41.4725 10.6427 41.4836 10.6614C41.5382 10.6893 41.5694 10.7339 41.5789 10.7941C41.5877 10.8125 41.5965 10.8309 41.6053 10.8492C41.6757 10.8926 41.7119 10.9592 41.7317 11.0367L41.7316 11.0367C41.7317 11.0367 41.7317 11.0367 41.7317 11.0367C41.7881 11.0648 41.813 11.1147 41.8257 11.173C41.8343 11.1923 41.8428 11.2117 41.8514 11.231C41.8514 11.231 41.8515 11.2311 41.8516 11.2312C41.9213 11.2772 41.9607 11.3407 41.9631 11.4254C42.0285 11.4428 42.03 11.4985 42.038 11.5504C42.1006 11.5705 42.0987 11.6263 42.1078 11.6761C42.1078 11.6761 42.1077 11.6761 42.1077 11.6761C42.1218 11.6996 42.1371 11.7226 42.1491 11.7471C42.152 11.7531 42.1464 11.7652 42.1419 11.7728ZM45.0119 32.8007C44.9497 32.7832 44.888 32.7649 44.8672 32.6921C44.8473 32.6933 44.8316 32.6858 44.82 32.6697C44.7636 32.6468 44.6842 32.584 44.6842 32.584L44.6761 32.5718C44.6761 32.5712 44.6712 32.5624 44.6712 32.5618C44.6511 32.5581 44.6445 32.5494 44.6243 32.5457C44.5841 32.5259 44.544 32.5061 44.5038 32.4864C44.4415 32.4713 44.3823 32.4519 44.358 32.3832C44.3392 32.3805 44.3246 32.3713 44.3142 32.3555C44.2528 32.3363 44.1536 32.2571 44.1536 32.2571L44.1348 32.2458C44.0913 32.2449 44.0206 32.1826 44.0206 32.1826C44.0206 32.1826 43.9991 32.165 43.9989 32.1649C43.9409 32.1424 43.8226 32.0444 43.8033 32.0402C43.7622 32.0201 43.7212 31.9999 43.6802 31.9797C43.6183 31.9641 43.5581 31.9462 43.5342 31.8768C43.5156 31.8751 43.5017 31.8664 43.4922 31.8504C43.4293 31.8324 43.3271 31.7518 43.3271 31.7518L43.3131 31.7409C43.2698 31.74 43.2352 31.7269 43.2258 31.6785C43.2047 31.6832 43.1881 31.6767 43.1759 31.6592C43.1169 31.6378 43.0046 31.5535 43.0046 31.5535L42.9836 31.5345C42.9189 31.5199 42.8619 31.4937 42.8296 31.4309L42.8297 31.4309C42.8295 31.4309 42.8083 31.4275 42.8083 31.4275C42.765 31.4247 42.7282 31.4127 42.7184 31.3631C42.6972 31.3684 42.6807 31.3619 42.6691 31.3436C42.6079 31.3258 42.5459 31.309 42.5231 31.2381C42.5222 31.2381 42.478 31.22 42.478 31.22C42.4128 31.2065 42.3569 31.1801 42.3288 31.1143C42.3279 31.1143 42.289 31.0965 42.289 31.0965C42.222 31.0842 42.1158 30.989 42.1158 30.989L42.0996 30.9702C42.0338 30.9565 41.9795 30.9276 41.955 30.8598C41.935 30.8494 41.9151 30.839 41.8951 30.8286C41.8669 30.8304 41.8528 30.8157 41.8485 30.7892C41.781 30.7738 41.7288 30.7391 41.7024 30.6724C41.6829 30.6605 41.6634 30.6488 41.644 30.637C41.6258 30.6235 41.6076 30.6101 41.5894 30.5966C41.5044 30.5676 41.4418 30.5109 41.3927 30.4375C41.3609 30.4206 41.3286 30.404 41.3213 30.3635C41.2682 30.353 41.2334 30.3204 41.211 30.2727C41.172 30.2671 41.1507 30.2415 41.1371 30.2072C41.0996 30.2048 41.083 30.1797 41.0727 30.1479C41.0351 30.145 41.0181 30.1204 41.009 30.0875C40.9718 30.0842 40.9547 30.0607 40.9478 30.0269C40.9478 30.0268 40.9478 30.0268 40.9478 30.0268C40.9477 30.0268 40.9478 30.0268 40.9477 30.0268C40.89 30.0052 40.8504 29.9658 40.8301 29.9074C40.8301 29.9074 40.8301 29.9073 40.8301 29.9073C40.8301 29.9073 40.8301 29.9073 40.83 29.9073C40.7968 29.898 40.7726 29.8802 40.7696 29.8425C40.7696 29.8425 40.7696 29.8425 40.7696 29.8425C40.7696 29.8425 40.7696 29.8425 40.7695 29.8425C40.7377 29.8326 40.713 29.8161 40.7111 29.7789C40.6786 29.7671 40.6545 29.7479 40.6502 29.7109C40.6502 29.7108 40.6502 29.7108 40.6502 29.7108L40.6502 29.7109C40.6502 29.7109 40.6391 29.6973 40.6391 29.6973C40.628 29.6909 40.6215 29.6845 40.6185 29.6779C40.6047 29.6648 40.5909 29.6518 40.5771 29.6388C40.4862 29.5801 40.4285 29.4939 40.379 29.4007C40.2989 29.3279 40.2395 29.2406 40.1968 29.1414C40.1433 29.0856 40.0969 29.0255 40.0801 28.9476C40.0629 28.9364 40.0559 28.9207 40.059 28.9004C39.9696 28.8073 39.9222 28.6922 39.8856 28.5714C39.8549 28.511 39.8079 28.4562 39.8196 28.3811C39.7713 28.2874 39.7373 28.1899 39.7402 28.0826C39.6943 28.0319 39.6909 27.9678 39.6861 27.905C39.6612 27.5776 39.6611 27.252 39.7577 26.9335C39.7611 26.8904 39.7781 26.8555 39.8272 26.864C39.8795 26.8731 39.8737 26.9179 39.8651 26.9545C39.8563 26.9918 39.8392 27.0271 39.8257 27.0633C39.8194 27.3564 39.8132 27.6495 39.807 27.9426C39.8328 28.0646 39.8586 28.1867 39.8844 28.3088C39.9401 28.355 39.9489 28.4195 39.953 28.4858C40.0084 28.6004 40.0638 28.715 40.1192 28.8295C40.1356 28.8411 40.1421 28.8568 40.1388 28.8765C40.2053 28.9239 40.2351 28.9953 40.2633 29.0677C40.3449 29.1411 40.3975 29.2353 40.4497 29.3297C40.5249 29.4056 40.5995 29.4819 40.6394 29.5841C40.6582 29.6095 40.677 29.6348 40.6957 29.6601C40.743 29.6804 40.7731 29.7156 40.7865 29.7652C40.7865 29.7652 40.7865 29.7652 40.7865 29.7652L40.7865 29.7652C40.823 29.7717 40.8399 29.7961 40.8458 29.8304C40.8833 29.8355 40.9007 29.8599 40.9074 29.8946C40.9426 29.8951 40.9589 29.914 40.9595 29.9482C40.9947 29.9552 41.018 29.9742 41.0226 30.0116C41.0578 30.0188 41.0814 30.0375 41.0856 30.0754C41.1208 30.082 41.1451 30.0996 41.1492 30.1379C41.1845 30.1439 41.2091 30.1609 41.2133 30.1994C41.2549 30.2082 41.2827 30.2323 41.2956 30.2732C41.2955 30.2732 41.2954 30.2732 41.2953 30.2732C41.2954 30.2732 41.2955 30.2732 41.2956 30.2732C41.3185 30.2694 41.3315 30.279 41.3345 30.302C41.3543 30.3173 41.374 30.3326 41.3937 30.3479C41.4764 30.3829 41.5413 30.4387 41.5891 30.5146V30.5146C41.6218 30.526 41.6521 30.54 41.657 30.5803C41.677 30.5928 41.697 30.6052 41.7171 30.6177C41.7171 30.6177 41.7171 30.6178 41.7171 30.6178C41.7171 30.6178 41.7171 30.6178 41.7171 30.6178C41.7676 30.6382 41.8171 30.6598 41.8371 30.7171C41.8371 30.7171 41.8371 30.7172 41.8371 30.7172C41.874 30.7189 41.9025 30.731 41.9072 30.7731C41.9287 30.7852 41.9502 30.7972 41.9718 30.8093C41.9718 30.8093 41.9718 30.8093 41.9718 30.8094C41.9718 30.8094 41.9718 30.8094 41.9719 30.8094C42.0204 30.8314 42.0498 30.8657 42.0917 30.9071C42.0917 30.9071 42.0917 30.9071 42.0917 30.9071C42.1314 30.9084 42.1572 30.9541 42.1704 30.9656C42.1803 30.975 42.2646 30.9844 42.2812 31.0395C42.3213 31.0365 42.3501 31.0496 42.3574 31.0932C42.3548 31.095 42.3549 31.0951 42.3575 31.0932C42.41 31.0959 42.4544 31.1108 42.4709 31.1681C42.5121 31.1633 42.5413 31.2264 42.5501 31.2208C42.6022 31.2214 42.6483 31.231 42.6604 31.2929C42.6845 31.3008 42.7086 31.3087 42.7328 31.3166C42.7496 31.3293 42.7664 31.3421 42.7832 31.3549C42.7832 31.3549 42.7832 31.3549 42.7833 31.3549C42.7833 31.3549 42.7833 31.3549 42.7832 31.3549C42.8208 31.3562 42.8513 31.3661 42.8525 31.4117C42.9089 31.4143 43.1528 31.5453 43.1664 31.6116C43.1913 31.6185 43.211 31.629 43.2359 31.6359C43.2519 31.6487 43.2732 31.6578 43.2892 31.6707C43.2892 31.6707 43.2893 31.6708 43.2893 31.6708C43.2893 31.6708 43.2893 31.6708 43.2893 31.6707C43.3266 31.6731 43.3584 31.682 43.3583 31.7288C43.4152 31.7302 43.4646 31.7437 43.4836 31.8063C43.4836 31.8063 43.5248 31.8117 43.5454 31.8145C43.5454 31.8145 43.5454 31.8145 43.5454 31.8145C43.5972 31.8341 43.6558 31.8441 43.6758 31.9081C43.6758 31.9081 43.6758 31.9081 43.6758 31.9081C43.7256 31.9257 43.7745 31.9445 43.7988 31.9972C43.7988 31.9972 44.0386 32.1348 44.0632 32.141C44.0796 32.1536 44.096 32.1663 44.1124 32.1789C44.1124 32.1789 44.1124 32.1789 44.1124 32.1789C44.1124 32.1789 44.1124 32.1789 44.1124 32.1789C44.1504 32.1807 44.3467 32.3194 44.3669 32.3214C44.3669 32.3214 44.3669 32.3214 44.367 32.3214C44.4183 32.3433 44.4799 32.3514 44.4974 32.4187C44.4974 32.4187 44.4974 32.4187 44.4974 32.4187C44.5496 32.4318 44.5916 32.4593 44.6206 32.5053V32.5052C44.6689 32.5224 44.7359 32.5686 44.7359 32.5686C44.7359 32.569 44.7904 32.5748 44.8121 32.634C44.8554 32.6213 44.8795 32.6419 44.8935 32.6806C44.8936 32.6806 44.8936 32.6806 44.8936 32.6806C44.9464 32.6736 44.9891 32.684 45.0027 32.7442C45.0273 32.7498 45.0578 32.7505 45.0552 32.7858C45.0547 32.7917 45.027 32.7957 45.0119 32.8007ZM46.3154 26.3158C46.3024 26.3144 46.2922 26.2866 46.2807 26.2707C46.2304 26.257 46.2175 26.2196 46.219 26.1732C46.1519 26.113 46.1279 26.0317 46.108 25.9484C46.0678 25.8436 46.0276 25.7388 45.9874 25.6341C45.9661 25.5711 45.9448 25.5081 45.9235 25.445C45.9127 25.4049 45.9019 25.3647 45.8911 25.3245C45.8911 25.3245 45.8911 25.3245 45.8911 25.3244C45.8204 25.251 45.8122 25.155 45.7959 25.0619C45.7785 24.9774 45.7183 24.9044 45.7295 24.8123C45.7211 24.7724 45.7127 24.7324 45.7043 24.6924C45.6412 24.5967 45.6198 24.488 45.6052 24.3773C45.6048 24.3778 45.6044 24.3783 45.604 24.3788C45.5882 24.3634 45.5835 24.3451 45.59 24.324C45.5917 24.3196 45.5931 24.315 45.5945 24.3105C45.593 24.3115 45.5916 24.3126 45.59 24.3135C45.5176 24.193 45.4977 24.0578 45.4796 23.922C45.473 23.8856 45.4664 23.8493 45.4598 23.8129C45.3844 23.6702 45.3527 23.5163 45.3436 23.3567C45.3192 23.2733 45.2704 23.1954 45.2864 23.1029C45.2793 23.0677 45.2723 23.0324 45.2653 22.9972C45.2086 22.9407 45.2082 22.8697 45.2106 22.7979L45.1991 22.7848L45.208 22.7692C45.208 22.7692 45.208 22.7691 45.208 22.7691C45.1559 22.6995 45.1468 22.6011 45.1515 22.5449C45.1374 22.5321 45.1339 22.5169 45.1409 22.4993C45.1423 22.4949 45.1435 22.4906 45.1444 22.4862C45.1432 22.487 45.1423 22.488 45.1409 22.4888C45.0653 22.3215 45.0543 22.141 45.0332 21.9625C45.0272 21.9074 45.0211 21.8523 45.015 21.7972C44.974 21.7095 44.9517 21.6185 44.9686 21.521C44.9631 21.4629 44.9576 21.4048 44.9521 21.3466C44.91 21.2605 44.8917 21.1706 44.9091 21.075C44.9015 20.9768 44.8939 20.8785 44.8863 20.7803C44.8136 20.5993 44.8258 20.4084 44.8211 20.2195C44.7493 19.9615 44.7495 19.6943 44.7198 19.4309C44.7149 19.3477 44.7099 19.2645 44.705 19.1813C44.6327 19.0463 44.6412 18.8976 44.6331 18.7518C44.5525 18.5895 44.5556 18.4103 44.5287 18.2372C44.5283 18.2377 44.5278 18.2382 44.5274 18.2387C44.523 18.1773 44.5185 18.1158 44.5141 18.0544C44.5168 18.0544 44.5195 18.0543 44.5222 18.0543C44.5195 18.0514 44.5168 18.048 44.5141 18.044C44.443 17.9489 44.4436 17.8391 44.4496 17.7283C44.3613 17.6155 44.3822 17.4722 44.3427 17.3458C44.3379 17.308 44.3331 17.2703 44.3283 17.2325C44.3278 17.2317 44.3273 17.2312 44.3267 17.2304C44.2658 17.1606 44.2586 17.0752 44.2567 16.9883C44.2605 16.9838 44.2643 16.9793 44.2682 16.9747C44.2647 16.976 44.2609 16.9772 44.2567 16.9779C44.1741 16.8819 44.184 16.7567 44.1514 16.6449C44.1304 16.5622 44.1095 16.4794 44.0885 16.3966C44.0791 16.3558 44.0696 16.315 44.0602 16.2743C43.9785 16.2052 43.9956 16.0999 43.9638 16.0125C43.9559 15.9757 43.948 15.9389 43.94 15.9021C43.8654 15.8294 43.8698 15.7277 43.8425 15.6376C43.8418 15.6385 43.841 15.6395 43.8403 15.6404C43.8136 15.5486 43.7898 15.4666 43.7687 15.394C43.7548 15.3786 43.7495 15.3607 43.7527 15.3403C43.7567 15.3357 43.7603 15.3316 43.764 15.3275C43.7605 15.3285 43.757 15.3295 43.7527 15.3298C43.6753 15.261 43.6835 15.1574 43.648 15.0716C43.6471 15.0728 43.6462 15.074 43.6452 15.0752C43.6247 15.0114 43.6041 14.9476 43.5835 14.8839C43.5688 14.8661 43.5656 14.8464 43.5742 14.8249C43.5369 14.7695 43.4998 14.714 43.5013 14.643C43.415 14.5095 43.3538 14.3647 43.3065 14.2135C43.3065 14.2135 43.3065 14.2134 43.3065 14.2134C43.2455 14.1551 43.2215 14.0789 43.2034 13.9999C43.208 13.9833 43.2095 13.9544 43.2176 13.9523C43.2531 13.9435 43.2623 13.9751 43.2742 13.9998C43.3242 14.0153 43.3277 14.0562 43.3282 14.0987C43.4322 14.245 43.5045 14.4063 43.5537 14.5784C43.5819 14.6605 43.6398 14.7323 43.639 14.8244C43.6956 14.8639 43.7049 14.923 43.7089 14.9842C43.7092 14.9842 43.7093 14.984 43.7096 14.984C43.7769 15.065 43.7887 15.1662 43.811 15.2636C43.8041 15.2713 43.8 15.2814 43.7957 15.2914C43.8011 15.2852 43.8063 15.2793 43.811 15.274C43.8171 15.3138 43.8233 15.3536 43.8294 15.3934C43.8927 15.433 43.8893 15.4987 43.897 15.56C43.8976 15.56 43.8979 15.5598 43.8984 15.5597C43.9774 15.6345 43.9701 15.7408 43.9989 15.8339C44.0055 15.8707 44.0122 15.9075 44.0188 15.9442C44.0996 16.0392 44.1001 16.1613 44.1299 16.2734C44.1347 16.3142 44.1394 16.355 44.1442 16.3957C44.215 16.4382 44.2027 16.511 44.2099 16.5767C44.2924 16.6727 44.2841 16.7971 44.3144 16.9095C44.3097 16.9171 44.3061 16.9257 44.3024 16.9341C44.3064 16.9294 44.3104 16.9247 44.3144 16.92C44.3348 17.0107 44.3573 17.1108 44.3819 17.2201C44.3826 17.2201 44.3834 17.2201 44.3842 17.2201C44.3897 17.2613 44.3952 17.3025 44.4008 17.3437C44.4008 17.3437 44.4008 17.3437 44.4008 17.3437C44.487 17.4571 44.4789 17.5968 44.5077 17.7263C44.5276 17.8322 44.5809 17.9313 44.5731 18.043C44.5704 18.0472 44.5677 18.0506 44.5651 18.0536C44.5677 18.0535 44.5704 18.0535 44.5731 18.0535C44.5769 18.0798 44.5819 18.1152 44.5882 18.1592C44.5887 18.1591 44.5891 18.1588 44.5896 18.1587C44.6763 18.3221 44.6725 18.5042 44.6976 18.6803C44.7078 18.8492 44.7781 19.01 44.7644 19.182C44.7699 19.2405 44.7754 19.299 44.7809 19.3575C44.794 19.3844 44.8154 19.4104 44.8189 19.4385C44.8444 19.6486 44.8663 19.8592 44.8893 20.0695C44.9041 20.2605 44.9642 20.4465 44.952 20.6405C44.9585 20.7184 44.9651 20.7963 44.9716 20.8741C45.0211 20.9592 45.031 21.0508 45.0168 21.1465C45.0222 21.2037 45.0277 21.2609 45.0331 21.3181C45.0331 21.3181 45.0331 21.3181 45.0332 21.3181C45.0712 21.3815 45.0861 21.4498 45.0771 21.5232C45.0787 21.5446 45.0802 21.566 45.0818 21.5874C45.0881 21.643 45.0944 21.6985 45.1007 21.754C45.1692 21.9245 45.1789 22.1065 45.2044 22.2854C45.1985 22.292 45.1943 22.2992 45.1911 22.3068C45.1951 22.303 45.1995 22.2993 45.2044 22.2958C45.2271 22.4248 45.2903 22.5565 45.2848 22.7107C45.3234 22.7741 45.3481 22.8408 45.3331 22.9167C45.3331 22.9167 45.3331 22.9167 45.3331 22.9168C45.3331 22.9168 45.3331 22.9167 45.3331 22.9167C45.3384 22.9533 45.3437 22.9899 45.349 23.0264C45.4116 23.1001 45.4081 23.1909 45.4146 23.2791C45.4861 23.4025 45.5008 23.5408 45.5194 23.6781C45.5261 23.7145 45.5328 23.751 45.5395 23.7874C45.6109 23.9101 45.6307 24.0466 45.6468 24.1842C45.6405 24.1909 45.6363 24.1985 45.6334 24.2067C45.6373 24.2024 45.6417 24.1984 45.6468 24.1946C45.6502 24.2202 45.6548 24.2548 45.6605 24.298C45.661 24.2979 45.6613 24.2976 45.6618 24.2975C45.7319 24.4178 45.7539 24.5518 45.7726 24.6868C45.7808 24.7274 45.7891 24.768 45.7973 24.8086C45.8601 24.855 45.8506 24.9248 45.8558 24.9898C45.934 25.0866 45.9323 25.2091 45.9626 25.3213C45.9682 25.3622 45.9739 25.4031 45.9795 25.444C46.0507 25.4907 46.0457 25.5627 46.0426 25.634C46.1193 25.7262 46.1488 25.8367 46.1664 25.9519C46.2212 25.9715 46.2292 26.0189 46.2351 26.0675C46.2351 26.0675 46.2351 26.0676 46.2351 26.0676C46.296 26.1223 46.3168 26.1973 46.3379 26.2721C46.3499 26.2971 46.3417 26.3184 46.3154 26.3158ZM53.6004 37.0976C53.5824 37.1992 53.5195 37.2583 53.4229 37.2858C53.3696 37.3402 53.3035 37.3625 53.2288 37.3637C53.168 37.4264 53.0921 37.426 53.0137 37.4157C52.9916 37.4168 52.9695 37.418 52.9474 37.4191C52.8367 37.4962 52.7129 37.483 52.5892 37.4708C52.5892 37.4708 52.5892 37.4708 52.5891 37.4708C52.195 37.5007 51.8009 37.5238 51.4067 37.4724C51.4066 37.4724 51.4066 37.4723 51.4066 37.4723C51.3385 37.489 51.2723 37.4807 51.2076 37.4559C51.1257 37.438 51.0438 37.4201 50.962 37.4022C50.892 37.3943 50.828 37.3745 50.7822 37.3142C50.8527 37.27 50.9123 37.2706 50.9553 37.3504C51.091 37.3459 51.2248 37.3541 51.3517 37.4092C51.3673 37.3986 51.3801 37.4012 51.3903 37.4169C51.64 37.4133 51.8898 37.4096 52.1395 37.406C52.1396 37.406 52.1397 37.406 52.1398 37.406C52.2888 37.3562 52.4425 37.3545 52.597 37.3626C52.597 37.3626 52.597 37.3627 52.5971 37.3627C52.6998 37.3534 52.8027 37.3442 52.9055 37.3349C52.9687 37.288 53.0402 37.2839 53.1144 37.2937C53.1145 37.2938 53.1145 37.2938 53.1145 37.2939C53.1145 37.2938 53.1145 37.2938 53.1145 37.2937C53.1949 37.2693 53.2753 37.2449 53.3557 37.2206C53.4012 37.1812 53.4466 37.1419 53.4921 37.1026C53.5246 36.979 53.4715 36.883 53.3922 36.7962C53.3168 36.7139 53.2404 36.6325 53.1645 36.5508C53.1303 36.5378 53.1005 36.5208 53.0966 36.4792C53.0562 36.4749 53.0301 36.4542 53.0219 36.4133C53.0352 36.4076 53.0466 36.3993 53.0562 36.3885C53.0448 36.3968 53.0333 36.405 53.0219 36.4133C52.9981 36.4184 52.9827 36.4092 52.9757 36.3859C52.9572 36.372 52.9388 36.358 52.9203 36.3441C52.9197 36.3449 52.9192 36.3458 52.9186 36.3467C52.8335 36.3145 52.7701 36.2564 52.7213 36.181C52.6865 36.163 52.6525 36.1443 52.6448 36.1005C52.6556 36.0957 52.6647 36.0888 52.6721 36.0796C52.663 36.0865 52.6539 36.0935 52.6448 36.1004C52.6208 36.1064 52.6046 36.0978 52.5961 36.0747C52.5718 36.0561 52.5474 36.0376 52.523 36.0191C52.494 36.0253 52.4814 36.0103 52.477 35.9843C52.477 35.9842 52.4769 35.9842 52.4769 35.9842C52.4423 35.9701 52.4097 35.9541 52.4044 35.911C52.3675 35.9059 52.3411 35.8899 52.3394 35.8483C52.338 35.8468 52.3373 35.8455 52.3361 35.8441C52.2964 35.8412 52.2748 35.8316 52.2649 35.7838C52.2646 35.784 52.2643 35.7843 52.264 35.7845C52.2401 35.7899 52.2244 35.781 52.217 35.7576C52.1935 35.7384 52.17 35.7191 52.1465 35.6999C52.1173 35.7059 52.1047 35.6895 52.0985 35.6645C52.0985 35.6644 52.0985 35.6644 52.0985 35.6644C52.0629 35.6535 52.0327 35.6368 52.0256 35.5957C51.9906 35.5884 51.9646 35.5719 51.9614 35.5323C51.9248 35.5272 51.8996 35.5104 51.8978 35.4699C51.8586 35.4656 51.8326 35.4471 51.8283 35.4052C51.8339 35.3988 51.8406 35.3934 51.847 35.3878C51.8408 35.3936 51.8345 35.3994 51.8283 35.4052C51.7888 35.4032 51.7655 35.3833 51.76 35.3436C51.7708 35.3366 51.7805 35.3282 51.7888 35.3183C51.7792 35.3267 51.7696 35.3352 51.7599 35.3436C51.7441 35.3328 51.7284 35.3219 51.7126 35.3111C51.6587 35.2882 51.6147 35.2544 51.5916 35.1983C51.5529 35.1912 51.5314 35.1653 51.518 35.1307C51.5179 35.1316 51.5177 35.1324 51.5176 35.1332C51.4803 35.1295 51.464 35.1037 51.453 35.0723C51.4158 35.0687 51.3997 35.043 51.3892 35.0115C51.3519 35.0076 51.3354 34.9824 51.3258 34.9501C51.2883 34.9455 51.2717 34.9202 51.2625 34.8873C51.2256 34.8829 51.2092 34.8583 51.2008 34.8255C51.2008 34.8254 51.2008 34.8254 51.2008 34.8254C51.2008 34.8254 51.2008 34.8254 51.2008 34.8254C51.1444 34.804 51.1061 34.7647 51.0855 34.7081C51.0855 34.708 51.0855 34.708 51.0856 34.708C51.0855 34.708 51.0855 34.708 51.0855 34.708C51.0527 34.6983 51.0279 34.6808 51.0237 34.6437C51.0237 34.6437 51.0238 34.6436 51.0238 34.6436C51.0238 34.6436 51.0237 34.6436 51.0237 34.6436C50.9914 34.6338 50.9667 34.6166 50.9627 34.5798C50.9627 34.5797 50.9627 34.5797 50.9627 34.5797C50.9627 34.5797 50.9627 34.5797 50.9627 34.5797C50.9305 34.5693 50.9055 34.552 50.9013 34.515C50.9013 34.515 50.9013 34.515 50.9013 34.5149C50.9013 34.5149 50.9013 34.5149 50.9012 34.5149C50.8665 34.5028 50.8416 34.4816 50.8345 34.4436C50.7785 34.4205 50.7443 34.3769 50.7211 34.323C50.7211 34.323 50.7211 34.323 50.7211 34.323C50.7211 34.323 50.7211 34.323 50.7211 34.323C50.7092 34.3066 50.6973 34.2903 50.6854 34.274C50.6855 34.2739 50.6856 34.2739 50.6856 34.2738C50.6479 34.2684 50.6287 34.246 50.6263 34.2082C50.5854 34.2031 50.566 34.1776 50.5608 34.1388C50.5196 34.1356 50.5026 34.1051 50.487 34.0731C50.3872 34.0075 50.3112 33.9208 50.2583 33.8139C50.2318 33.8028 50.2108 33.7874 50.2118 33.7547C50.2118 33.7547 50.2118 33.7547 50.2118 33.7547C50.2118 33.7547 50.2118 33.7547 50.2118 33.7547C50.1877 33.7474 50.1771 33.7312 50.18 33.7063C50.1405 33.6982 50.1218 33.6718 50.1166 33.6338C50.0764 33.6297 50.0612 33.6004 50.0496 33.5675C49.9726 33.5201 49.9172 33.4547 49.8846 33.3702C49.8653 33.3618 49.8582 33.3474 49.8633 33.327C49.822 33.3175 49.8046 33.2844 49.7877 33.2507C49.7147 33.2019 49.6617 33.1373 49.6319 33.0543C49.6122 33.0437 49.603 33.0273 49.6043 33.005C49.5668 32.9966 49.5531 32.9672 49.5423 32.9352C49.4839 32.9069 49.4484 32.861 49.4363 32.7972C49.4085 32.7589 49.3808 32.7206 49.3531 32.6824C49.2943 32.6587 49.2688 32.6069 49.2452 32.5537C49.1663 32.4806 49.1055 32.3948 49.0625 32.2963C49.0133 32.2377 48.9598 32.1819 48.9396 32.1047C48.8595 32.0093 48.7865 31.9093 48.7386 31.7932C48.6369 31.6783 48.5571 31.5497 48.5002 31.4071C48.4837 31.3958 48.4764 31.3801 48.4783 31.3602C48.391 31.2909 48.3572 31.1886 48.3135 31.0924C48.2582 31.0134 48.2047 30.9334 48.1832 30.8372C48.1851 30.835 48.1871 30.8327 48.189 30.8305C48.1866 30.8302 48.1844 30.8301 48.1819 30.8298C48.1119 30.7155 48.0401 30.5949 47.9952 30.4522C47.9777 30.4416 47.9709 30.4265 47.9737 30.4075C47.909 30.3631 47.8941 30.2869 47.8636 30.2231C47.5908 29.6532 47.3643 29.0648 47.1764 28.4617C47.1518 28.3828 47.1403 28.2997 47.1247 28.2182C47.1234 28.2115 47.1359 28.196 47.1436 28.1949C47.1623 28.1921 47.1954 28.1891 47.1991 28.1971C47.2345 28.2731 47.2675 28.3503 47.2963 28.4291C47.4443 28.8338 47.5865 29.2408 47.7396 29.6436C47.8282 29.8766 47.9331 30.1033 48.0309 30.3329C48.0313 30.3323 48.0317 30.3318 48.0321 30.3313C48.05 30.3453 48.0552 30.3629 48.0476 30.3843C48.1367 30.4967 48.1937 30.6259 48.2431 30.7591C48.2444 30.7621 48.245 30.7645 48.246 30.7673C48.2918 30.7868 48.305 30.825 48.3045 30.871C48.305 30.8874 48.3091 30.9016 48.3156 30.9144C48.3224 30.9236 48.3285 30.9327 48.3336 30.9411C48.3422 30.9514 48.3521 30.961 48.3624 30.9703C48.3771 30.9759 48.3816 30.9861 48.3757 31.0007C48.4522 31.0847 48.5007 31.1844 48.5379 31.2904C48.5539 31.3026 48.5604 31.3186 48.5575 31.3385C48.6599 31.4552 48.735 31.5886 48.7971 31.73C48.8631 31.8355 48.9292 31.9409 48.9953 32.0463C49.058 32.0928 49.0928 32.1592 49.1245 32.2279C49.2026 32.3024 49.2667 32.3865 49.3033 32.4895C49.3032 32.4896 49.3031 32.4898 49.303 32.4899C49.3031 32.4898 49.3032 32.4896 49.3033 32.4895C49.3156 32.5086 49.328 32.5279 49.3404 32.5471C49.3903 32.5775 49.4272 32.6173 49.4344 32.6784L49.433 32.6867C49.4808 32.7101 49.5052 32.7521 49.5231 32.7994C49.5788 32.8267 49.6135 32.8701 49.6247 32.9316C49.6393 32.9517 49.6538 32.9719 49.6683 32.992C49.6683 32.992 49.6683 32.9921 49.6683 32.9921C49.6683 32.9921 49.6683 32.9921 49.6684 32.9921C49.6855 33.0124 49.7028 33.0327 49.7201 33.053C49.7201 33.0531 49.7202 33.0531 49.7202 33.0532C49.7915 33.1026 49.8438 33.1671 49.8743 33.2487C49.8941 33.2569 49.9013 33.2714 49.8956 33.2921C49.8956 33.2922 49.8956 33.2922 49.8956 33.2922C49.9371 33.3021 49.9545 33.3358 49.9718 33.3696C50.0449 33.4183 50.1 33.4818 50.1318 33.5644C50.1473 33.5847 50.1628 33.6049 50.1783 33.6252L50.1783 33.6252C50.1783 33.6252 50.1783 33.6252 50.1784 33.6252C50.1891 33.6418 50.1998 33.6585 50.2106 33.6751C50.206 33.6798 50.2014 33.6845 50.1968 33.6892C50.2014 33.6846 50.2057 33.6796 50.2106 33.6752C50.2513 33.6822 50.2688 33.7097 50.2744 33.7477C50.3148 33.7508 50.3301 33.78 50.3419 33.8128C50.4435 33.8772 50.5157 33.9679 50.573 34.0719C50.5893 34.0919 50.6055 34.112 50.6217 34.132C50.6217 34.132 50.6217 34.132 50.6217 34.1321C50.6217 34.1321 50.6217 34.1321 50.6218 34.1321C50.6463 34.1373 50.6571 34.1525 50.6542 34.1774C50.645 34.1877 50.6357 34.198 50.6265 34.2082C50.6369 34.1991 50.6462 34.1889 50.6542 34.1775C50.6923 34.1843 50.7128 34.207 50.7157 34.2456C50.7156 34.2457 50.7155 34.2458 50.7154 34.2459C50.7557 34.252 50.7753 34.2776 50.781 34.3163C50.819 34.3146 50.8348 34.3342 50.8333 34.3706C50.8749 34.3778 50.8978 34.4031 50.9047 34.4441C50.9442 34.4468 50.9621 34.4709 50.9675 34.5075C51.0067 34.5107 51.0243 34.535 51.0299 34.5711C51.0688 34.5744 51.087 34.5983 51.0931 34.6343C51.1315 34.6381 51.1497 34.662 51.1562 34.6976C51.1924 34.6986 51.2106 34.7176 51.212 34.7534C51.2475 34.76 51.2708 34.7788 51.2752 34.8165C51.3106 34.8232 51.334 34.8421 51.3384 34.8798C51.3738 34.8866 51.3975 34.905 51.4015 34.943C51.4371 34.9495 51.4612 34.9675 51.4648 35.0061C51.4998 35.012 51.5235 35.0292 51.5277 35.066C51.5278 35.0658 51.528 35.0657 51.5282 35.0656C51.5645 35.071 51.5889 35.0886 51.5917 35.1282C51.6325 35.1351 51.6576 35.1579 51.6643 35.1995C51.7012 35.1981 51.7212 35.2141 51.7192 35.2528C51.7192 35.2528 51.7192 35.2528 51.7192 35.2528C51.7583 35.2578 51.7839 35.2771 51.789 35.3183C51.8275 35.3206 51.8504 35.3404 51.8569 35.3787C51.8569 35.3787 51.8569 35.3787 51.8569 35.3787C51.8824 35.3761 51.8983 35.3872 51.9045 35.412C51.9401 35.4152 51.9575 35.4394 51.9705 35.4688C52.0074 35.4711 52.0246 35.4969 52.0387 35.5263C52.0664 35.524 52.0838 35.5346 52.0863 35.5639C52.1206 35.5782 52.1531 35.5944 52.1591 35.6369C52.1945 35.6432 52.2215 35.6583 52.2234 35.6993C52.2234 35.6993 52.2234 35.6992 52.2234 35.6993C52.2608 35.7038 52.2872 35.7203 52.292 35.76C52.2922 35.7598 52.2924 35.7597 52.2926 35.7595C52.3112 35.7705 52.3299 35.7815 52.3485 35.7925C52.3482 35.7939 52.348 35.7952 52.3477 35.7966C52.348 35.7966 52.3482 35.7964 52.3485 35.7964C52.3705 35.8143 52.3926 35.8321 52.4147 35.85C52.4446 35.8465 52.46 35.8619 52.4665 35.8893C52.5024 35.8969 52.5314 35.9123 52.5382 35.9528C52.5729 35.9606 52.6007 35.9754 52.6024 36.0165C52.6024 36.0165 52.6024 36.0165 52.6024 36.0165C52.6406 36.021 52.6684 36.037 52.6723 36.0796C52.6946 36.0733 52.7115 36.0803 52.7228 36.1005C52.8049 36.1347 52.8721 36.1867 52.9183 36.2639C52.9183 36.2639 52.9183 36.2639 52.9183 36.2639C52.9183 36.2626 52.9183 36.2613 52.9183 36.26C52.9509 36.2713 52.9809 36.2852 52.9834 36.3262C53.0214 36.331 53.0492 36.3477 53.0566 36.3885C53.074 36.3997 53.0914 36.411 53.1088 36.4222C53.1406 36.4214 53.1554 36.4423 53.1664 36.4678C53.3214 36.5499 53.4337 36.6798 53.5414 36.8125C53.5778 36.8574 53.6196 36.9078 53.6057 36.9759C53.6201 37.017 53.6209 37.0577 53.6004 37.0976Z" fill="black"/>
<path d="M45.4947 23.8872C45.4896 23.8987 45.4845 23.9102 45.4794 23.9217C45.4879 23.9117 45.4921 23.8998 45.4947 23.8872ZM43.5834 14.8834C43.5924 14.8655 43.6009 14.8472 43.6089 14.8287C43.6089 14.8287 43.6388 14.8241 43.6389 14.8241L43.6236 14.8184L43.6085 14.8245C43.597 14.8245 43.5855 14.8245 43.574 14.8246C43.5855 14.8251 43.597 14.8251 43.6085 14.8246C43.6001 14.8442 43.5917 14.8638 43.5834 14.8834ZM53.5195 37.097C53.5195 37.097 53.5195 37.097 53.5195 37.097C53.5313 37.0971 53.5432 37.0972 53.555 37.0973L53.5365 37.0964C53.5365 37.0964 53.5236 37.0968 53.5195 37.097ZM49.3908 32.7968C49.3994 32.7899 49.408 32.783 49.4167 32.776C49.4317 32.7773 49.4458 32.7813 49.4589 32.7878C49.4373 32.7748 49.4158 32.7618 49.3941 32.7489C49.3811 32.7641 49.3799 32.78 49.3908 32.7968Z" fill="black"/>
<path d="M28.9731 16.9132C28.8966 16.7148 28.7832 16.5384 28.5932 16.4232C28.3533 16.2777 28.1126 16.3202 27.961 16.5529C27.8094 16.7858 27.7126 17.0399 27.7261 17.2817C27.7285 17.5989 27.804 17.8437 27.9363 18.0056C28.1286 18.2411 28.4189 18.2856 28.6666 18.1107C28.7342 18.0629 28.8028 18.005 28.8462 17.9361C29.0478 17.6168 29.1122 17.2738 28.9731 16.9132ZM28.3733 17.4896C28.3546 17.5288 28.3203 17.5556 28.2764 17.5569C28.2331 17.5581 28.1962 17.5373 28.1738 17.4979C28.1004 17.3685 28.0641 17.2294 28.0671 17.0608C28.0679 17.0491 28.0685 17.0178 28.0727 16.9869C28.0853 16.8938 28.1374 16.8246 28.1928 16.8276C28.2736 16.8321 28.333 16.8784 28.3633 16.9463C28.4427 17.1243 28.4602 17.3073 28.3733 17.4896ZM28.6973 17.5818C28.6844 17.5961 28.666 17.6187 28.6531 17.6168C28.6268 17.6128 28.5909 17.6011 28.5801 17.5811C28.5617 17.5474 28.5597 17.5047 28.5522 17.4713C28.5703 17.4322 28.5592 17.3759 28.6175 17.3849C28.6433 17.3889 28.6769 17.4119 28.6865 17.4348C28.7012 17.4702 28.6988 17.5128 28.7025 17.5525C28.7033 17.5622 28.703 17.5755 28.6973 17.5818Z" fill="#010101"/>
<path d="M33.8268 17.9612C33.8341 17.774 33.774 17.608 33.6714 17.4579C33.4309 17.1064 33.012 17.0911 32.7445 17.4213C32.5038 17.7185 32.4799 18.2236 32.6913 18.5432C32.9322 18.9073 33.3741 18.925 33.6382 18.5781C33.7766 18.3964 33.8322 18.1863 33.8268 17.9612ZM33.1679 18.1587C33.1359 18.2 33.084 18.2325 33.0321 18.213C32.9982 18.2003 32.9613 18.1599 32.9517 18.1248C32.9097 17.9714 32.9107 17.816 32.9676 17.6656C32.99 17.6065 33.0264 17.5543 33.1 17.5505C33.1674 17.5469 33.2374 17.6058 33.2524 17.6811C33.2604 17.7217 33.2627 17.7634 33.2627 17.7633C33.2678 17.9326 33.2482 18.0553 33.1679 18.1587ZM33.4838 18.2697C33.4593 18.3128 33.4343 18.3622 33.3704 18.3401C33.3282 18.3255 33.3114 18.2892 33.3105 18.2237C33.3125 18.2167 33.3144 18.184 33.3304 18.1612C33.3535 18.1282 33.3875 18.1046 33.4335 18.1215C33.4757 18.1371 33.4959 18.1699 33.4981 18.2123C33.4991 18.2313 33.4933 18.253 33.4838 18.2697Z" fill="#020202"/>
<path d="M30.4358 55.8394C29.8239 55.8179 29.2147 55.8711 28.6048 55.9047C28.5209 55.9093 28.4371 55.9253 28.354 55.8985C28.2992 55.8808 28.2648 55.8462 28.2621 55.7864C28.2595 55.7273 28.2892 55.6808 28.3403 55.662C28.3985 55.6406 28.4624 55.6332 28.5245 55.6237C28.9531 55.5585 29.386 55.5589 29.8172 55.5551C30.8285 55.5462 31.8403 55.5596 32.8481 55.6506C33.6132 55.7198 34.3749 55.8234 35.1287 55.9775C35.6129 56.0766 36.0978 56.1725 36.5817 56.2735C36.6839 56.2949 36.7854 56.3258 36.8821 56.3651C36.9408 56.389 36.9836 56.4416 36.9681 56.5162C36.9565 56.5719 36.8888 56.6157 36.8187 56.6032C36.6531 56.5737 36.4889 56.5363 36.3235 56.5058C35.4339 56.3416 34.5489 56.1499 33.6504 56.0382C33.0654 55.9655 32.4791 55.9015 31.8885 55.888C31.4042 55.8769 30.9201 55.8559 30.4358 55.8394Z" fill="#020101"/>
<path d="M33.2153 26.082C33.2126 26.5998 32.9649 27.0404 32.4889 27.3518C32.1257 27.5894 31.7194 27.6853 31.2892 27.6904C31.2479 27.6909 31.2043 27.6848 31.1654 27.6713C31.1114 27.6528 31.0823 27.6099 31.0845 27.5504C31.0865 27.4938 31.1098 27.4448 31.1639 27.427C31.2128 27.4109 31.2669 27.4095 31.319 27.4035C31.5178 27.3806 31.7185 27.366 31.9081 27.2957C32.0262 27.2519 32.1468 27.2097 32.256 27.1485C32.7691 26.8608 33.004 26.3389 32.8967 25.7574C32.83 25.3957 32.6697 25.0793 32.4419 24.7964C31.9124 24.1389 31.2235 23.7397 30.4045 23.5566C30.2295 23.5174 30.0525 23.4942 29.8723 23.4885C29.7225 23.4837 29.6402 23.4104 29.6581 23.3187C29.6747 23.2336 29.75 23.1835 29.8811 23.19C30.2087 23.2062 30.5294 23.2637 30.8417 23.3659C31.4956 23.5798 32.0634 23.9297 32.5288 24.4391C32.7726 24.7061 32.9649 25.0058 33.0922 25.3464C33.1745 25.5665 33.2139 25.7929 33.2153 26.082ZM19.3301 32.2155C19.323 32.2327 19.3172 32.2663 19.2981 32.2888C19.2715 32.3203 19.2369 32.3461 19.2026 32.3698C18.5741 32.8031 18.0245 33.3263 17.5103 33.8855C16.6066 34.8682 15.8547 35.9577 15.263 37.156C15.1884 37.307 15.1099 37.456 15.0312 37.6049C15.0068 37.6513 14.9788 37.6965 14.9473 37.7383C14.9051 37.7944 14.8289 37.8077 14.7796 37.7702C14.7225 37.7268 14.7031 37.6668 14.7337 37.6029C14.9019 37.2518 15.0609 36.8955 15.2457 36.5531C15.9775 35.1977 16.9054 33.9918 18.0335 32.9414C18.3113 32.6827 18.5991 32.4357 18.9085 32.2151C18.9855 32.1602 19.0592 32.0994 19.153 32.073C19.2339 32.0502 19.3357 32.1238 19.3301 32.2155Z" fill="#020202"/>
<path d="M35.6312 17.54C35.6137 17.613 35.5922 17.6601 35.5347 17.6757C35.4815 17.6901 35.4253 17.6875 35.3905 17.6418C35.3531 17.5924 35.3221 17.5363 35.2979 17.4791C35.1137 17.0444 34.7964 16.7342 34.3914 16.5067C33.9678 16.2687 33.5217 16.0921 33.0393 16.0127C32.8711 15.985 32.706 15.975 32.5399 16.0212C32.4997 16.0324 32.4576 16.0409 32.4161 16.0422C32.3733 16.0436 32.3311 16.0265 32.3116 15.9864C32.2872 15.936 32.2913 15.8776 32.3304 15.8397C32.3661 15.8051 32.4161 15.7813 32.4638 15.7635C32.6672 15.6875 32.8803 15.6949 33.0869 15.7279C33.7398 15.8321 34.3368 16.0781 34.8713 16.4702C35.1928 16.7062 35.4199 17.0169 35.5793 17.3791C35.6043 17.4358 35.6178 17.4976 35.6312 17.54Z" fill="#040303"/>
<path d="M30.985 20.6801C31.0476 20.6801 31.1115 20.6722 31.1724 20.6826C31.2238 20.6913 31.268 20.7243 31.2825 20.7829C31.2961 20.8379 31.2582 20.9105 31.199 20.9376C31.18 20.9463 31.1603 20.9545 31.14 20.9597C30.5713 21.1032 29.9413 20.7437 29.7609 20.1732C29.6483 19.817 29.7266 19.5234 30.0191 19.302C30.2811 19.1036 30.5271 18.8919 30.7341 18.6358C30.7591 18.6048 30.7973 18.5812 30.8339 18.5636C30.9001 18.5317 30.9883 18.602 30.9852 18.6759C30.9823 18.744 30.9475 18.7951 30.9085 18.8451C30.7653 19.0283 30.6073 19.1976 30.4289 19.3472C30.3643 19.4014 30.2966 19.4519 30.2316 19.5056C30.0036 19.6941 29.9509 19.9097 30.081 20.1763C30.208 20.4364 30.4085 20.6115 30.7026 20.6602C30.7957 20.6756 30.89 20.6839 30.9837 20.6955C30.9842 20.6903 30.9846 20.6852 30.985 20.6801Z" fill="#050404"/>
<path d="M22.0052 42.1676C21.9408 42.3224 21.8777 42.4778 21.8117 42.6321C21.5874 43.1568 21.2956 43.6394 20.9176 44.0691C20.7443 44.2662 20.5777 44.4691 20.4076 44.669C20.3599 44.725 20.313 44.7847 20.2396 44.8068C20.1973 44.8195 20.1543 44.8028 20.13 44.7647C20.1144 44.7402 20.0968 44.7024 20.1052 44.68C20.123 44.6325 20.1533 44.5881 20.1853 44.5479C20.3354 44.3588 20.4817 44.1661 20.6406 43.9846C21.1313 43.4243 21.4852 42.7865 21.7365 42.0884C21.7719 41.9902 21.8126 41.8934 21.8592 41.8001C21.8976 41.7233 21.969 41.7096 22.0483 41.7307C22.2383 41.8965 22.1196 42.0318 22.0052 42.1676ZM40.5965 20.9429C40.8662 21.0222 41.0239 21.2091 41.1332 21.4464C41.2678 21.7385 41.3461 22.0397 41.2922 22.364C41.2888 22.3847 41.2836 22.4052 41.2773 22.4251C41.2518 22.5067 41.1773 22.5585 41.1145 22.5371C41.0415 22.5121 41.0275 22.4497 41.031 22.3849C41.0417 22.1845 41.05 21.985 40.9802 21.7917C40.9587 21.7325 40.9401 21.6724 40.9187 21.6132C40.8301 21.368 40.696 21.1872 40.3955 21.2108C40.309 21.2176 40.2569 21.1412 40.282 21.0625C40.3106 20.9733 40.3463 20.8847 40.3914 20.8027C40.6129 20.3998 40.9572 20.1325 41.3633 19.9351C41.451 19.8925 41.5416 19.8711 41.638 19.8894C41.6941 19.9 41.7314 19.9347 41.7368 19.9949C41.7408 20.0402 41.7237 20.0814 41.6853 20.1022C41.64 20.1266 41.5874 20.1368 41.54 20.1578C41.1572 20.327 40.8284 20.5615 40.5965 20.9429Z" fill="#060505"/>
<path d="M28.648 15.0986C29.187 15.1157 29.6319 15.3334 30.0245 15.6738C30.0552 15.7005 30.0788 15.7375 30.0997 15.7733C30.1385 15.8396 30.1205 15.9329 30.0625 15.9707C30.0009 16.0109 29.9385 15.9979 29.8891 15.9519C29.7653 15.8368 29.6313 15.7365 29.4872 15.6486C29.0578 15.3863 28.6019 15.3347 28.1231 15.4787C27.94 15.5338 27.7708 15.6165 27.6408 15.7639C27.6133 15.7951 27.5867 15.8291 27.5532 15.8526C27.5194 15.8763 27.4803 15.8876 27.4366 15.8605C27.3858 15.829 27.3657 15.7859 27.3678 15.7297C27.3699 15.6739 27.4008 15.631 27.4347 15.5904C27.5374 15.4674 27.6636 15.3741 27.8053 15.3014C28.0272 15.1877 28.4082 15.0978 28.648 15.0986Z" fill="#060404"/>
<path d="M18.6003 43.1674C18.4611 43.166 18.3214 43.1711 18.1832 43.1593C18.142 43.1558 18.1357 43.1044 18.1799 43.0732C18.2419 43.1199 18.3136 43.0973 18.3817 43.1015C18.4596 43.1065 18.5431 43.0933 18.6003 43.1674Z" fill="#813F3F"/>
<path d="M24.2638 36.5425C24.2659 36.511 24.2665 36.4793 24.2702 36.4479C24.2799 36.3684 24.2615 36.3027 24.1877 36.2593C24.1607 36.2433 24.1371 36.2216 24.1112 36.2035C23.5207 35.7909 23.3173 35.199 23.3125 34.508C23.3107 34.2419 23.3645 33.9849 23.4055 33.726C23.4283 33.5819 23.4904 33.4439 23.5826 33.3249C23.6505 33.2373 23.666 33.1488 23.65 33.0322C23.5743 32.4831 23.8214 32.0756 24.2493 31.7609C24.4656 31.6018 24.7136 31.6296 24.9483 31.6916C25.5533 31.8516 26.0277 32.4684 26.0434 33.09C26.0447 33.1424 26.0414 33.1958 26.0499 33.2471C26.0609 33.3134 26.1026 33.3618 26.1673 33.3832C26.2344 33.4054 26.2933 33.3807 26.3371 33.3309C26.4411 33.2125 26.5377 33.0875 26.6442 32.9715C26.7441 32.8627 26.8589 32.7698 26.9883 32.6963C27.2311 32.5584 27.4714 32.5629 27.7032 32.7176C28.0074 32.9206 28.1848 33.2094 28.2601 33.565C28.3095 33.7986 28.2915 34.0249 28.1964 34.2441C28.1392 34.3757 28.0532 34.4769 27.9039 34.5065C27.8306 34.521 27.7617 34.5458 27.7035 34.5941C27.6261 34.6583 27.6181 34.779 27.6952 34.8438C27.7674 34.9044 27.8501 34.9522 27.9269 35.0075C28.2939 35.2714 28.4444 35.6296 28.395 36.0769C28.3733 36.2732 28.2948 36.4431 28.1601 36.583C27.8988 36.8545 27.5825 36.9946 27.1985 36.9747C26.9784 36.9633 26.8175 36.8701 26.7133 36.6771C26.6734 36.603 26.6374 36.5264 26.5915 36.4562C26.5556 36.4014 26.4979 36.3703 26.4297 36.3772C26.3492 36.3854 26.2902 36.4304 26.2681 36.5078C26.2481 36.578 26.2432 36.6524 26.2279 36.7242C26.166 37.016 26.0022 37.2158 25.7085 37.3003C25.3742 37.3965 25.0433 37.4 24.7207 37.2595C24.4099 37.1242 24.2381 36.895 24.2638 36.5425Z" fill="#D42488"/>
<path d="M22.1189 42.2241C22.1203 42.1288 22.11 42.0312 22.1739 41.9482C22.1758 42.0442 22.2135 42.1473 22.1189 42.2241Z" fill="#060505"/>
<path d="M40.3983 23.9474C40.3287 23.946 40.2871 23.918 40.2608 23.8464C40.1723 23.6059 40.0406 23.3926 39.8404 23.2262C39.4183 22.8754 38.8531 22.8252 38.3321 23.1053C37.8072 23.3875 37.497 23.8384 37.3764 24.4126C37.2702 24.9187 37.3489 25.3964 37.675 25.8167C37.7062 25.857 37.7231 25.9083 37.7466 25.9546C37.7919 25.9799 37.8422 25.9992 37.8817 26.0316C38.313 26.3862 39.0026 26.3747 39.4778 26.0569C39.8797 25.7883 40.1398 25.4198 40.2796 24.9606C40.3577 24.704 40.3625 24.4425 40.3372 24.1795C40.3287 24.091 40.332 24.0128 40.3983 23.9474ZM39.2252 25.5985C39.1652 25.658 39.0894 25.685 39.0068 25.695C38.863 25.7306 38.7189 25.7369 38.5746 25.6981C38.2687 25.6103 38.1073 25.3984 38.0545 25.0931C37.9753 24.9679 37.9922 24.8271 38.0042 24.6934C38.0411 24.2856 38.1852 23.9178 38.447 23.5995C38.4602 23.5834 38.4758 23.5673 38.4938 23.5579C38.509 23.55 38.5364 23.5437 38.5458 23.5516C38.5581 23.562 38.5683 23.5923 38.5618 23.6048C38.5375 23.6511 38.5076 23.6948 38.4767 23.7372C38.226 24.0811 38.1136 24.4679 38.1173 24.8909C38.1213 24.9114 38.1268 24.9317 38.1291 24.9524C38.1659 25.2812 38.3314 25.5142 38.6404 25.6407C38.7394 25.6389 38.8384 25.6372 38.9374 25.6354H38.9374C39.0063 25.5664 39.1053 25.5677 39.1877 25.5301C39.2008 25.5241 39.2299 25.5358 39.2405 25.5486C39.2469 25.5563 39.2368 25.587 39.2252 25.5985Z" fill="#D42488"/>
<path d="M80.7728 57.9699C80.2782 58.0003 79.7835 58.0291 79.289 58.0617C78.9314 58.0853 78.5742 58.1149 78.2166 58.14C77.4805 58.1917 76.7443 58.2428 76.008 58.2923C75.9371 58.297 75.8611 58.318 75.7956 58.261C75.8883 57.4562 76.0092 56.6535 76.0658 55.8434C76.0893 55.5071 76.13 55.1721 76.1653 54.8367C76.1756 54.7384 76.151 54.66 76.0978 54.5717C75.9459 54.3196 75.7379 54.135 75.4881 53.9885C75.1587 53.7954 74.8055 53.6586 74.4404 53.555C73.0947 53.1733 71.7258 53.0716 70.3387 53.2463C69.9523 53.295 69.5715 53.3809 69.2119 53.5417C69.0374 53.6198 68.8734 53.7121 68.7375 53.8489C68.5869 54.0005 68.5172 54.1796 68.5503 54.3943C68.5696 54.5193 68.593 54.644 68.6062 54.7696C68.6934 55.5984 68.747 56.4291 68.7575 57.2627C68.7604 57.4944 68.779 57.726 68.7904 57.9576C68.795 58.0523 68.8022 58.1471 68.8021 58.2419C68.8021 58.2709 68.7843 58.3032 68.7474 58.3091C68.6748 58.3208 68.6023 58.3352 68.5292 58.3404C68.1506 58.3671 67.7718 58.392 67.3931 58.4161C66.604 58.4664 65.8146 58.5132 65.0257 58.566C63.9318 58.6392 62.8383 58.7189 61.7443 58.7915C60.6292 58.8655 59.5138 58.9332 58.3986 59.0059C57.9568 59.0347 57.5155 59.0717 57.0737 59.1009C56.5688 59.1342 56.0635 59.1629 55.5584 59.1939C55.4736 59.1992 55.3974 59.2014 55.3292 59.126C54.9877 58.7486 54.5482 58.5264 54.0801 58.3501C54.0164 58.326 53.9366 58.3248 53.8959 58.2557C53.9032 58.195 53.9492 58.1638 53.9853 58.127C54.2214 57.886 54.4585 57.6458 54.6954 57.4055C57.0053 55.0626 59.3153 52.7197 61.625 50.3766C61.699 50.3016 61.7771 50.2293 61.842 50.147C61.9716 49.9828 61.9576 49.7626 61.8177 49.631C61.6742 49.4959 61.4694 49.496 61.3016 49.6355C61.2451 49.6825 61.1952 49.7378 61.1434 49.7903C60.773 50.1655 60.4027 50.5408 60.0325 50.9163C57.7525 53.2295 55.4712 55.5414 53.1953 57.8586C53.0564 58 52.9336 58.0632 52.7283 58.0201C52.3885 57.9487 52.0401 57.9215 51.6916 57.9143C51.1009 57.9023 50.5117 57.906 49.9227 57.9715C49.0603 58.0675 48.2183 58.245 47.4054 58.5507C46.8905 58.7443 46.4006 58.9863 45.965 59.3272C45.6882 59.5439 45.4455 59.793 45.2967 60.1161C45.2482 60.2216 45.1815 60.2468 45.0772 60.2516C44.7191 60.2681 44.3615 60.2933 44.0037 60.314C43.1301 60.3646 42.2564 60.4143 41.3828 60.4651C41.2566 60.4725 41.1306 60.4847 41.0045 60.4938C40.9588 60.4971 40.9222 60.4795 40.9028 60.4369C40.8811 60.3891 40.8619 60.3401 40.8427 60.2911C40.4282 59.2346 39.6651 58.5424 38.6115 58.1516C38.0122 57.9293 37.3857 57.8413 36.7546 57.8012C34.8135 57.6779 32.8773 57.7289 30.948 57.995C29.9668 58.1303 28.9841 58.2572 27.9952 58.3265C27.4789 58.3626 26.9628 58.364 26.4463 58.3349C26.1726 58.3196 25.899 58.3 25.6252 58.2939C24.8134 58.276 24.0015 58.2634 23.1896 58.2501C23.0421 58.2477 22.894 58.2446 22.7469 58.2536C21.6421 58.321 20.5369 58.3834 19.4413 58.5521C18.7712 58.6553 18.1207 58.8223 17.5262 59.161C17.4195 59.2218 17.3102 59.234 17.1936 59.2391C15.7926 59.3 14.3917 59.3625 12.9908 59.4241C11.5687 59.4867 10.1466 59.5488 8.7246 59.6113C7.26043 59.6757 5.79631 59.7413 4.33204 59.8043C3.12061 59.8563 1.90898 59.9043 0.697543 59.9565C0.455529 59.9669 0.21395 59.9882 -0.027832 60.0044C-0.027832 60.1099 -0.027832 60.2154 -0.027832 60.3208C0.198898 60.2606 0.43198 60.2747 0.662625 60.2645C1.41051 60.2314 2.15867 60.2044 2.90655 60.1712C4.07573 60.1193 5.24471 60.063 6.41389 60.0112C7.14071 59.979 7.8678 59.9534 8.59468 59.922C9.93247 59.8643 11.2702 59.8046 12.6079 59.7455C13.2294 59.7181 13.8508 59.6898 14.4723 59.6622C15.2517 59.6275 16.0312 59.5925 16.8107 59.5599C16.8687 59.5575 16.934 59.5352 16.9575 59.5591C17.0114 59.6239 16.9814 59.6488 16.9647 59.6722C16.5954 60.187 16.2848 60.7377 15.9851 61.2941C15.7652 61.7024 15.5917 62.133 15.4459 62.5735C15.3599 62.8334 15.2806 63.0966 15.2775 63.3743C15.2768 63.4455 15.2554 63.5018 15.1855 63.5207C14.9192 63.5927 14.8035 63.8022 14.7138 64.0336C14.6373 64.2312 14.5879 64.436 14.584 64.6491C14.5686 65.4925 14.5475 66.3365 14.6661 67.175C14.7133 67.5084 14.7725 67.8411 14.8457 68.1698C14.9612 68.6877 15.231 69.1009 15.7155 69.3505C15.9598 69.4763 16.214 69.5758 16.486 69.6248C17.2239 69.7575 17.9697 69.8247 18.7165 69.8667C19.7062 69.9223 20.6969 69.9301 21.6888 69.9011C22.6487 69.8731 23.6052 69.8083 24.5613 69.7288C25.4857 69.6519 26.4099 69.5729 27.3339 69.4922C27.8694 69.4453 28.4045 69.3937 28.9397 69.3432C29.4854 69.2918 30.03 69.2246 30.5767 69.1901C31.5656 69.1277 32.5526 69.0533 33.538 68.9428C34.4809 68.837 35.4183 68.6946 36.3592 68.577C37.0074 68.4959 37.6569 68.424 38.3067 68.3562C38.7679 68.3081 39.231 68.2784 39.6923 68.2314C40.0276 68.1973 40.3625 68.1562 40.6954 68.1039C41.0759 68.0441 41.3496 67.8258 41.5249 67.4869C41.6267 67.29 41.7031 67.0822 41.7365 66.861C41.7979 66.4544 41.8403 66.0459 41.8649 65.6352C41.8922 65.1827 41.9249 64.7305 41.9581 64.2784C41.9805 63.9733 42.0075 63.6681 41.9907 63.3623C41.9701 62.9871 41.7622 62.7367 41.3999 62.6467C41.3216 62.6273 41.3045 62.5839 41.2935 62.5161C41.2057 61.9758 41.1807 61.4258 41.0423 60.8933C41.0256 60.829 41.0667 60.796 41.1268 60.7891C41.1896 60.7818 41.2528 60.7777 41.316 60.7743C41.8108 60.7469 42.3057 60.7223 42.8003 60.6925C43.2949 60.6627 43.7891 60.6264 44.2836 60.596C44.5455 60.5799 44.8077 60.5702 45.066 60.5579C45.0728 60.5896 45.0795 60.6014 45.0765 60.6098C45.0452 60.6978 45.014 60.7858 44.9797 60.8727C44.5104 62.0607 44.4313 63.2692 44.8137 64.4935C45.288 66.0119 46.2686 67.109 47.6657 67.8416C47.8533 67.94 47.9881 68.0251 47.9201 68.2605C47.9089 68.2991 47.919 68.3444 47.9216 68.3864C47.9437 68.7329 48.1178 68.9542 48.4549 69.0455C48.5863 69.081 48.7232 69.1034 48.859 69.114C50.1116 69.2119 51.3664 69.2044 52.6213 69.1829C52.695 69.1817 52.7697 69.1798 52.8419 69.1669C53.0865 69.1229 53.2123 68.9997 53.2553 68.7533C53.2934 68.5347 53.3127 68.3155 53.259 68.0939C53.2254 67.9554 53.2328 67.9502 53.3706 67.8816C53.7872 67.6742 54.1823 67.4319 54.5393 67.1334C55.8899 66.0041 56.6374 64.5759 56.6727 62.798C56.6736 62.7493 56.6533 62.6947 56.7126 62.6362C56.8032 62.6827 56.8584 62.7728 56.9246 62.8474C57.8632 63.9036 58.8003 64.9611 59.7381 66.0181C61.2357 67.706 62.7327 69.3944 64.2329 71.08C64.3368 71.1968 64.3909 71.3106 64.3828 71.4734C64.3517 72.0947 64.336 72.7168 64.3128 73.3384C64.308 73.4678 64.2942 73.4813 64.163 73.4856C63.7309 73.4997 63.2987 73.5129 62.8665 73.5234C61.1061 73.5662 59.3456 73.6078 57.5851 73.65C55.814 73.6923 54.043 73.7348 52.272 73.7771C50.5115 73.8192 48.751 73.8613 46.9905 73.9034C45.23 73.9455 43.4695 73.9876 41.709 74.0297C39.938 74.0721 38.167 74.1145 36.396 74.1569C34.6355 74.199 32.875 74.2411 31.1145 74.2832C29.3434 74.3255 27.5724 74.368 25.8014 74.4103C24.0409 74.4525 22.2804 74.4945 20.5199 74.5366C18.7594 74.5787 16.9989 74.6208 15.2384 74.663C13.478 74.7051 11.7175 74.7483 9.95698 74.7891C8.43892 74.8243 6.92077 74.8567 5.40268 74.8909C5.23401 74.8947 5.06548 74.9037 4.89681 74.908C4.80462 74.9104 4.77327 74.8857 4.76825 74.8112C4.76544 74.7693 4.76747 74.727 4.7679 74.6848C4.77591 73.915 4.79055 73.1452 4.78768 72.3755C4.78693 72.1703 4.85337 72.019 4.98335 71.8662C6.90357 69.6098 8.81923 67.3496 10.7359 65.0902C11.8545 63.7715 12.9731 62.4528 14.0912 61.1337C14.1522 61.0617 14.2149 60.9895 14.2644 60.9098C14.299 60.8542 14.2929 60.7876 14.2433 60.735C14.1963 60.6851 14.0961 60.6797 14.0418 60.7331C13.9744 60.7994 13.9145 60.8736 13.8531 60.9459C12.0249 63.1006 10.1968 65.2554 8.36882 67.4103C7.12061 68.8817 5.8731 70.3537 4.62333 71.8238C4.52452 71.94 4.44048 72.0504 4.48671 72.2173C4.50292 72.2758 4.48749 72.343 4.48674 72.4063C4.47754 73.1972 4.46832 73.988 4.45927 74.7789C4.45855 74.8421 4.45623 74.9056 4.45927 74.9687C4.46716 75.1328 4.52357 75.1932 4.68922 75.2079C4.76239 75.2144 4.83666 75.21 4.91038 75.2082C5.74318 75.1887 6.57597 75.1687 7.40877 75.1488C9.17978 75.1065 10.9508 75.0641 12.7218 75.0217C14.4717 74.9798 16.2216 74.9379 17.9716 74.896C19.7426 74.8536 21.5136 74.8114 23.2846 74.769C25.0556 74.7267 26.8266 74.6843 28.5976 74.642C30.3581 74.5999 32.1186 74.5578 33.879 74.5157C35.6395 74.4736 37.3999 74.4314 39.1604 74.3893C40.9209 74.3472 42.6814 74.3051 44.4418 74.2629C46.2128 74.2206 47.9839 74.1782 49.7549 74.1358C51.5153 74.0937 53.2758 74.0516 55.0363 74.0094C56.7968 73.9673 58.5572 73.9243 60.3177 73.8834C61.6671 73.8521 63.0165 73.8237 64.3659 73.7934C64.5733 73.7887 64.5746 73.7873 64.6007 73.5897C64.6104 73.5169 64.6148 73.4431 64.6175 73.3695C64.6407 72.7373 64.6549 72.1046 64.6896 71.473C64.7021 71.2452 64.6389 71.075 64.4864 70.9045C63.284 69.5608 62.0899 68.2097 60.8932 66.8609C59.5287 65.3227 58.1651 63.7836 56.7977 62.248C56.6815 62.1174 56.5969 61.9866 56.5842 61.8057C56.5754 61.6813 56.532 61.559 56.5007 61.4366C56.34 60.8087 56.0629 60.2314 55.7352 59.6759C55.7057 59.626 55.6459 59.5808 55.6906 59.4953C60.0376 59.2068 64.3921 58.9178 68.7467 58.6292C68.7567 58.6285 68.7684 58.6296 68.7766 58.6344C68.7851 58.6394 68.7904 58.65 68.8113 58.6754C68.8142 58.7081 68.8208 58.7593 68.8227 58.8107C68.8403 59.2954 68.8602 59.78 68.8732 60.2649C68.8886 60.8344 68.937 61.4014 68.9908 61.9682C69.0406 62.4929 69.0828 63.0183 69.1311 63.5431C69.1573 63.8268 69.2099 64.1065 69.2762 64.3834C69.3059 64.5075 69.3625 64.6037 69.4801 64.6846C69.721 64.8505 69.9804 64.9484 70.2639 64.9994C70.7313 65.0836 71.2026 65.1383 71.6756 65.1719C72.2658 65.2139 72.8547 65.2108 73.4364 65.0695C73.9772 64.9381 74.4684 64.7116 74.9027 64.361C75.0416 64.2489 75.1294 64.1176 75.1463 63.9368C75.157 63.8217 75.1858 63.7084 75.2028 63.5938C75.374 62.436 75.4695 61.2696 75.5916 60.1062C75.6378 59.6659 75.6792 59.2251 75.7257 58.7849C75.7421 58.6297 75.7539 58.6186 75.8922 58.6087C76.765 58.5466 77.6378 58.4849 78.5107 58.425C79.2469 58.3744 79.9834 58.3272 80.7196 58.276C80.8027 58.2702 80.8847 58.2479 80.9672 58.2333C81.0115 58.065 81.0464 57.9035 80.7728 57.9699ZM40.7411 60.952C40.7799 61.1363 40.8293 61.3179 40.8555 61.5056C40.899 61.817 40.9502 62.1274 41.0048 62.4371C41.0206 62.5266 40.9881 62.5793 40.915 62.6137C40.8301 62.6537 40.7441 62.6926 40.6555 62.7228C40.5812 62.7482 40.5365 62.7116 40.5354 62.633C40.5337 62.5071 40.535 62.3812 40.535 62.2017C40.5315 61.791 40.4528 61.3373 40.3478 60.8867C40.3347 60.8301 40.289 60.7573 40.344 60.7103C40.4091 60.6547 40.4773 60.7123 40.5446 60.7363C40.6511 60.7743 40.7161 60.8329 40.7411 60.952ZM39.8607 59.3239C40.1656 59.5864 40.4573 60.0574 40.5208 60.3901C40.4841 60.4281 40.4425 60.4005 40.4032 60.398C40.2629 60.3894 40.1802 60.3288 40.1372 60.181C40.0672 59.9399 39.9685 59.7072 39.8813 59.4711C39.8636 59.4232 39.8291 59.3783 39.8607 59.3239ZM40.2282 62.5785C40.2269 62.6099 40.2266 62.6418 40.2217 62.6728C40.2121 62.7318 40.1758 62.7645 40.1156 62.7669C39.9265 62.7742 39.7373 62.7793 39.5483 62.7879C39.1072 62.8079 38.6663 62.8302 38.2252 62.8497C38.1313 62.8539 38.037 62.8504 37.9343 62.8504C37.865 62.5487 37.8053 62.2507 37.7268 61.9577C37.64 61.6334 37.5354 61.3139 37.4397 60.9919C37.4158 60.9115 37.4359 60.8666 37.5117 60.8473C37.6948 60.8008 37.8772 60.7366 38.0635 60.7202C38.6491 60.6686 39.2338 60.5788 39.8249 60.6403C39.949 60.6532 39.9802 60.6669 40.0067 60.7701C40.1591 61.3631 40.2552 61.9634 40.2282 62.5785ZM36.4148 58.1109C36.5498 58.1109 36.6861 58.1008 36.8204 58.1127C37.3772 58.1621 37.9307 58.2328 38.4616 58.4209C38.5508 58.4525 38.64 58.4848 38.7269 58.5222C39.3059 58.7718 39.3243 58.7914 39.542 59.3924C39.6317 59.6398 39.7195 59.8879 39.8065 60.1362C39.8235 60.1846 39.8332 60.2355 39.8476 60.2904C39.7629 60.3515 39.6777 60.3248 39.5998 60.321C39.0281 60.2932 38.4639 60.3695 37.9 60.4435C37.7445 60.4639 37.5934 60.517 37.4402 60.5543C37.3241 60.5825 37.2967 60.5699 37.2537 60.4501C37.1256 60.0934 36.9971 59.7368 36.8751 59.378C36.7496 59.0089 36.6113 58.6451 36.4523 58.2891C36.4272 58.233 36.3881 58.1798 36.4148 58.1109ZM33.6356 58.0587C33.6669 58.0548 33.6985 58.052 33.73 58.0522C34.4354 58.0543 35.1408 58.06 35.8461 58.0567C35.994 58.0561 36.068 58.108 36.126 58.247C36.3774 58.8491 36.5823 59.4677 36.8005 60.0817C36.8629 60.2576 36.9227 60.4344 36.9878 60.6226C36.8662 60.646 36.7643 60.6746 36.6608 60.6839C36.3046 60.7158 35.9478 60.7402 35.5913 60.7689C35.4236 60.7825 35.256 60.7979 35.0887 60.8161C35.0482 60.8205 35.0037 60.8309 34.9711 60.8532C34.9385 60.8756 34.9052 60.9154 34.9201 60.9602C34.9325 60.9972 34.9562 61.0472 34.9867 61.058C35.0437 61.0782 35.1096 61.0812 35.1713 61.0789C35.7286 61.0588 36.2857 61.0403 36.8399 60.9651C37.1261 60.9262 37.0869 60.9078 37.1849 61.1936C37.3625 61.7118 37.4844 62.2448 37.6056 62.7779C37.6098 62.7961 37.6009 62.8174 37.5975 62.8421C37.5699 62.8502 37.5406 62.8652 37.5107 62.8667C36.7537 62.9046 35.9967 62.9411 35.2396 62.9777C35.1976 62.9798 35.1554 62.9823 35.1134 62.9816C35.0066 62.9799 34.9891 62.9678 34.9656 62.8628C34.8826 62.4935 34.8055 62.1228 34.7193 61.7542C34.4411 60.5655 34.1065 59.3941 33.6334 58.2659C33.6172 58.2272 33.5967 58.1898 33.5857 58.1497C33.5741 58.1074 33.5783 58.0658 33.6356 58.0587ZM31.3268 58.2597C31.8816 58.2036 32.4366 58.1486 32.992 58.0989C33.2728 58.0738 33.2445 58.0686 33.3528 58.3365C33.5657 58.863 33.741 59.4028 33.9124 59.9443C34.2079 60.8779 34.4365 61.8278 34.6376 62.785C34.6441 62.8159 34.6486 62.8473 34.6531 62.8785C34.6678 62.9786 34.647 63.0038 34.5377 63.0166C34.5064 63.0203 34.4747 63.0214 34.4432 63.0234C33.7395 63.0697 33.0357 63.1159 32.332 63.1618C32.269 63.1659 32.2058 63.1669 32.1427 63.1702C31.9234 63.1814 31.9353 63.1595 31.9232 62.9688C31.8843 62.3579 31.7589 61.7604 31.6389 61.1621C31.6227 61.0815 31.5894 61.0018 31.6282 60.9048C32.161 60.8996 32.6949 60.9188 33.221 61.0418C33.3233 61.0657 33.4265 61.0884 33.5305 61.1012C33.5803 61.1074 33.6342 61.0936 33.6841 61.0807C33.7269 61.0695 33.7542 61.0341 33.7613 60.9901C33.7702 60.9346 33.7537 60.8821 33.7064 60.8521C33.6723 60.8304 33.6283 60.8229 33.5878 60.8131C33.1371 60.7039 32.6839 60.6147 32.217 60.6136C32.0171 60.6131 31.8172 60.5994 31.6174 60.5898C31.5627 60.5871 31.5119 60.5683 31.4996 60.5067C31.3528 59.7754 31.1548 59.0561 30.9735 58.3196C31.101 58.2976 31.2131 58.2713 31.3268 58.2597ZM28.4266 62.3621C28.433 62.3619 28.4393 62.3617 28.4456 62.3616C28.4291 62.0669 28.4112 61.7723 28.3968 61.4775C28.3905 61.3484 28.3975 61.3396 28.5322 61.3188C28.7717 61.2819 29.0111 61.2412 29.2521 61.2176C29.7563 61.1682 30.2518 61.0648 30.7518 60.9903C30.783 60.9857 30.8133 60.9734 30.8445 60.9707C31.3633 60.9259 31.2575 60.8403 31.3591 61.3362C31.4415 61.7385 31.5067 62.1444 31.5732 62.5497C31.597 62.6949 31.6063 62.8429 31.6147 62.9901C31.6269 63.2034 31.6224 63.207 31.4212 63.2214C31.1162 63.2431 30.8109 63.26 30.5061 63.2838C29.9701 63.3257 29.4348 63.3766 28.8984 63.412C28.7459 63.4221 28.5879 63.4772 28.4359 63.4005C28.4014 63.2554 28.4296 63.1088 28.4274 62.963C28.4243 62.7628 28.4266 62.5624 28.4266 62.3621ZM28.8679 58.554C29.3479 58.4971 29.828 58.4403 30.3082 58.3839C30.3917 58.3741 30.4753 58.363 30.5591 58.3583C30.6774 58.3516 30.6946 58.3666 30.7243 58.4939C30.8674 59.1076 31.01 59.7215 31.1519 60.3355C31.1662 60.397 31.1756 60.4595 31.1854 60.5218C31.195 60.5825 31.1716 60.6219 31.1078 60.6313C30.3804 60.7395 29.6535 60.8513 28.9252 60.953C28.7512 60.9773 28.5776 61.0314 28.3788 61.0042C28.3069 60.6083 28.3255 60.2097 28.3014 59.8144C28.2778 59.4271 28.2466 59.0403 28.2172 58.6319C28.4343 58.6059 28.651 58.5797 28.8679 58.554ZM26.3142 61.0314C26.2455 61.0064 26.1721 60.9909 26.0994 60.9814C25.6922 60.9285 25.2896 60.8415 24.8779 60.8223C24.7293 60.8153 24.7235 60.8036 24.7462 60.6484C24.839 60.0125 24.9365 59.3772 24.9673 58.734C24.9732 58.611 24.9937 58.5895 25.123 58.5927C25.5655 58.6034 26.0085 58.6108 26.4502 58.6367C26.8614 58.6608 27.2716 58.6671 27.6826 58.648C27.7142 58.6465 27.7457 58.642 27.7773 58.6411C27.9054 58.6377 27.9288 58.6548 27.938 58.7758C27.9563 59.0175 27.9752 59.2592 27.986 59.5013C28.0004 59.8278 28.0047 60.1546 28.0188 60.4811C28.0255 60.6389 28.0454 60.7961 28.058 60.9536C28.0641 61.0299 28.0266 61.0711 27.9504 61.0767C27.7613 61.0909 27.5721 61.1044 27.383 61.1192C27.3308 61.1233 27.2775 61.1253 27.2272 61.1382C27.1724 61.1522 27.1376 61.1947 27.1368 61.252C27.1361 61.3102 27.1752 61.3552 27.2247 61.3709C27.2834 61.3895 27.3488 61.3947 27.411 61.393C27.6006 61.3878 27.79 61.3778 27.9793 61.3667C28.0451 61.3628 28.0781 61.3952 28.0868 61.4533C28.0976 61.5261 28.1034 61.5999 28.1082 61.6734C28.1439 62.2213 28.1241 62.7694 28.1143 63.3174C28.1119 63.4526 28.0938 63.4718 27.9746 63.4788C26.8172 63.5467 25.6599 63.6136 24.5024 63.6793C24.4308 63.6834 24.3545 63.7028 24.2793 63.6409C24.3451 63.2323 24.4122 62.817 24.4787 62.4016C24.5371 62.0376 24.5957 61.6738 24.6524 61.3096C24.6798 61.1339 24.6889 61.1252 24.875 61.1306C25.1709 61.139 25.4607 61.1977 25.7528 61.2373C25.8885 61.2556 26.0236 61.2784 26.1594 61.2958C26.2002 61.301 26.2431 61.2987 26.2839 61.2926C26.3402 61.2842 26.3986 61.2118 26.395 61.1566C26.3913 61.1012 26.3654 61.05 26.3142 61.0314ZM20.4247 63.6812C20.5235 63.0876 20.6833 62.5106 20.8885 61.945C20.9294 61.8322 20.9962 61.7824 21.1076 61.7517C21.6755 61.5957 22.2395 61.4254 22.8083 61.2732C23.2794 61.1472 23.7625 61.1106 24.2494 61.1275C24.2788 61.1285 24.3078 61.1428 24.3438 61.1528C24.3587 61.4209 24.2873 61.6759 24.2506 61.9332C24.1763 62.4542 24.0838 62.9725 23.9984 63.4919C23.9916 63.5335 23.981 63.5744 23.9731 63.6158C23.962 63.6732 23.9307 63.7102 23.8707 63.7178C23.8394 63.7218 23.8078 63.7243 23.7762 63.7261C22.9347 63.7741 22.0932 63.8218 21.2516 63.8697C20.9992 63.8841 20.7468 63.8992 20.4943 63.9128C20.4443 63.9155 20.415 63.8855 20.4137 63.8381C20.4124 63.7859 20.4161 63.7327 20.4247 63.6812ZM20.2758 62.9077C20.1848 63.2318 20.137 63.5644 20.0817 63.9209C19.8084 63.9398 19.5577 63.961 19.3066 63.9737C18.7606 64.0013 18.2143 64.0252 17.6681 64.049C17.5793 64.0529 17.552 64.0261 17.5544 63.9442C17.5584 63.8075 17.5763 63.6731 17.6052 63.5385C17.7138 63.0321 17.904 62.5551 18.1112 62.0833C18.1463 62.0033 18.1868 61.9847 18.279 61.9992C18.7078 62.0666 19.1389 62.0369 19.5685 61.9994C19.8093 61.9783 20.0486 61.9413 20.2891 61.9172C20.3708 61.9089 20.4542 61.883 20.5558 61.9204C20.4623 62.2499 20.3683 62.5786 20.2758 62.9077ZM22.9104 58.5572C23.4375 58.5543 23.9647 58.5662 24.4919 58.5719C24.5235 58.5722 24.5553 58.5719 24.5867 58.5748C24.665 58.5817 24.6951 58.6172 24.688 58.7011C24.6756 58.8481 24.664 58.9954 24.6448 59.1416C24.5787 59.643 24.5095 60.144 24.4412 60.6451C24.4384 60.666 24.4331 60.6865 24.4281 60.707C24.4119 60.7738 24.3798 60.8204 24.301 60.8187C24.2062 60.8167 24.1112 60.8205 24.0164 60.8195C23.5174 60.8143 23.0296 60.891 22.5504 61.0249C22.1248 61.1438 21.7005 61.2675 21.2751 61.3875C21.2364 61.3984 21.1945 61.3983 21.0982 61.4101C21.4887 60.5231 21.8183 59.6552 22.3317 58.8765C22.5766 58.505 22.5193 58.5593 22.9104 58.5572ZM20.3215 58.8361C20.3801 58.7715 20.4483 58.733 20.5389 58.724C21.0523 58.6732 21.5649 58.6151 22.0818 58.6152C22.089 58.6152 22.0962 58.6256 22.1039 58.6316C22.1309 58.6921 22.084 58.7293 22.0558 58.7698C21.7718 59.1776 21.5494 59.6187 21.3512 60.0728C21.1661 60.497 20.9755 60.9189 20.7993 61.3467C20.741 61.4883 20.6667 61.5679 20.5077 61.5871C19.9325 61.6565 19.3568 61.7185 18.7786 61.7556C18.6224 61.7656 18.4673 61.7564 18.3203 61.705C18.3168 61.6018 18.3745 61.5342 18.4128 61.4615C18.5994 61.1073 18.8061 60.7648 19.0413 60.4405C19.3875 59.9628 19.7468 59.4951 20.13 59.0463C20.1915 58.9742 20.2578 58.9063 20.3215 58.8361ZM16.1997 61.5392C16.496 60.9822 16.8085 60.4346 17.1657 59.9138C17.3547 59.6383 17.611 59.4444 17.9116 59.3026C18.3815 59.0808 18.8779 58.9496 19.3885 58.8724C19.5534 58.8475 19.7157 58.7874 19.9373 58.8181C19.1134 59.7803 18.3681 60.7412 17.8778 61.8623C17.7896 61.8893 17.7693 61.7985 17.7125 61.7924C17.6503 61.7857 17.5867 61.7858 17.5242 61.79C17.1009 61.8181 16.6846 61.7562 16.2684 61.6947C16.1667 61.6797 16.1469 61.6385 16.1997 61.5392ZM15.626 63.0527C15.708 62.7155 15.8224 62.3891 15.9638 62.0723C16.0156 61.9561 16.0275 61.9461 16.1524 61.9622C16.3084 61.9824 16.4642 62.0068 16.6185 62.0374C16.9915 62.1114 17.3663 62.1182 17.7434 62.0751C17.7708 62.1827 17.6995 62.2597 17.667 62.3439C17.5118 62.7457 17.361 63.1483 17.2896 63.5752C17.2689 63.6991 17.2551 63.8244 17.2449 63.9497C17.239 64.0217 17.2161 64.0666 17.1384 64.0764C16.8247 64.116 16.5095 64.1253 16.1949 64.1039C16.0472 64.0938 15.9128 64.0289 15.7982 63.9282C15.6651 63.8114 15.5859 63.6706 15.583 63.4906C15.5806 63.3429 15.591 63.1963 15.626 63.0527ZM41.0616 62.8813C41.121 62.8456 41.1662 62.8259 41.2278 62.882C41.2637 62.9147 41.3205 62.9268 41.3697 62.9422C41.5651 63.0035 41.6592 63.1465 41.6785 63.3393C41.691 63.4646 41.6907 63.5924 41.6831 63.7182C41.6502 64.2548 41.6148 64.7913 41.5759 65.3275C41.5469 65.7269 41.5126 66.126 41.4778 66.525C41.4548 66.7891 41.3974 67.0454 41.2845 67.2869C41.1564 67.5609 40.9576 67.7407 40.6506 67.8045C40.4631 67.8435 40.2737 67.8453 40.0863 67.8728C39.7107 67.928 39.3333 67.9613 38.9542 67.9867C38.4601 68.0198 37.9669 68.0711 37.4748 68.1282C36.8992 68.195 36.3252 68.2761 35.7506 68.3518C35.1865 68.4262 34.6233 68.5075 34.0585 68.5754C32.97 68.7064 31.88 68.8183 30.784 68.8725C30.2159 68.9006 29.6497 68.967 29.0829 69.0191C28.5266 69.0703 27.9709 69.1285 27.4145 69.1778C26.501 69.2586 25.5875 69.3404 24.6732 69.4108C23.9271 69.4683 23.1829 69.5526 22.4336 69.5686C21.8644 69.5808 21.2954 69.6047 20.7263 69.6234C19.7445 69.6254 18.765 69.5813 17.7885 69.4863C17.3484 69.4435 16.9066 69.4066 16.4732 69.3101C16.2555 69.2617 16.0523 69.1781 15.8544 69.0776C15.4809 68.8879 15.263 68.5748 15.164 68.1798C15.0924 67.8942 15.0361 67.6035 14.9937 67.312C14.8611 66.401 14.8555 65.4846 14.899 64.5669C14.9075 64.386 14.9533 64.2136 15.0235 64.0473C15.0607 63.959 15.1076 63.8777 15.1884 63.8206C15.2427 63.7823 15.3119 63.7921 15.3522 63.8477C15.3707 63.8733 15.3848 63.9019 15.4019 63.9285C15.6063 64.2461 15.9054 64.3982 16.2752 64.4181C16.4117 64.4254 16.5494 64.4209 16.6862 64.4137C17.6021 64.3655 18.5179 64.3144 19.4338 64.2657C19.897 64.2411 20.3605 64.2209 20.8238 64.1959C22.1819 64.1228 23.5401 64.0524 24.8978 63.973C26.2134 63.896 27.5289 63.8151 28.8436 63.7249C29.7795 63.6606 30.7138 63.573 31.6495 63.505C32.4276 63.4484 33.2065 63.403 33.9853 63.3568C34.943 63.3001 35.9009 63.2468 36.8588 63.1942C37.0588 63.1832 37.2593 63.1784 37.4596 63.176C37.8919 63.1707 38.3235 63.1536 38.7553 63.1264C39.3129 63.0914 39.8716 63.0709 40.4302 63.054C40.6574 63.0471 40.8679 62.9978 41.0616 62.8813ZM45.5859 60.2202C45.6927 60.0095 45.8447 59.8366 46.0187 59.681C46.2718 59.4545 46.5581 59.2774 46.859 59.1228C47.4245 58.8325 48.0249 58.6394 48.6412 58.494C49.7795 58.2254 50.9336 58.1648 52.0973 58.2423C52.2023 58.2493 52.3079 58.2619 52.4105 58.2842C52.4962 58.3029 52.6249 58.2507 52.6581 58.3531C52.6833 58.4307 52.5707 58.4844 52.5139 58.5425C52.064 59.0022 51.609 59.457 51.1621 59.9195C51.059 60.0261 50.95 60.0671 50.8032 60.0729C50.1051 60.1005 49.4207 60.2112 48.7598 60.4462C48.5507 60.5205 48.3509 60.6143 48.1628 60.7321C48.0458 60.8054 47.9398 60.892 47.8588 61.0052C47.6952 61.2338 47.7178 61.4659 47.9229 61.657C48.049 61.7744 48.2039 61.8416 48.3632 61.8984C48.6638 62.0056 48.9783 62.0458 49.2936 62.0664C50.164 62.1232 51.0187 62.0244 51.8558 61.7787C52.1292 61.6984 52.3943 61.596 52.639 61.4481C52.7837 61.3606 52.9203 61.2615 53.0156 61.1164C53.1651 60.8886 53.143 60.6794 52.945 60.4912C52.7793 60.3338 52.5695 60.2624 52.3565 60.1993C52.2596 60.1705 52.1618 60.145 52.0524 60.1146C52.0824 60.0721 52.097 60.0442 52.1181 60.0227C52.569 59.5639 53.0233 59.1084 53.4698 58.6454C53.5643 58.5475 53.6545 58.5227 53.7784 58.5655C54.0977 58.6758 54.4097 58.8008 54.6944 58.9863C54.8722 59.1021 55.0354 59.2338 55.1659 59.403C55.4256 59.7396 55.4516 60.0944 55.2471 60.4655C55.1391 60.6618 54.9905 60.8252 54.8222 60.9716C54.5985 61.1663 54.3516 61.3266 54.0903 61.4657C53.4818 61.7898 52.8326 62.0002 52.1637 62.1554C51.0662 62.41 49.9534 62.4773 48.8329 62.4001C48.1374 62.3521 47.4539 62.2264 46.7995 61.9721C46.5632 61.8803 46.3358 61.771 46.1251 61.6295C45.9492 61.5114 45.7885 61.3756 45.6636 61.2018C45.4394 60.8902 45.4114 60.5643 45.5859 60.2202ZM52.7998 60.8286C52.8098 60.8493 52.8078 60.8687 52.7939 60.8869C52.7807 60.9113 52.7651 60.9341 52.7472 60.9553L52.7455 60.9576C52.7278 60.974 52.7076 60.9787 52.6852 60.974C52.6843 60.9895 52.6834 61.005 52.6824 61.0205C52.6684 61.0213 52.6544 61.022 52.6404 61.0229C52.6412 61.0444 52.6344 61.0638 52.6183 61.0805L52.6168 61.0818C52.5872 61.1176 52.519 61.0969 52.5064 61.1575L52.5014 61.1602C52.4647 61.1556 52.4503 61.1842 52.4319 61.2068L52.424 61.2104C52.3941 61.2498 52.3574 61.276 52.305 61.2718L52.2992 61.2739C52.2622 61.3065 52.205 61.2956 52.1706 61.3335L52.1592 61.3455L52.1445 61.3379C52.1045 61.3403 52.0769 61.3667 52.0469 61.3884L52.0209 61.4043L51.9905 61.4034C51.9501 61.4317 51.8948 61.4206 51.8565 61.4544L51.8311 61.469L51.8019 61.4668C51.7614 61.4942 51.7077 61.4841 51.6681 61.514C51.5829 61.5357 51.506 61.5903 51.4124 61.578C51.3721 61.5845 51.3319 61.591 51.2917 61.5975C51.2541 61.6168 51.2106 61.6158 51.1722 61.6321C50.9501 61.6777 50.7304 61.7444 50.4795 61.7115C50.5275 61.6085 50.597 61.5577 50.6863 61.5208C50.7641 61.4886 50.7469 61.3658 50.8404 61.3428C50.8406 61.3409 50.8404 61.3392 50.8406 61.3372C50.8769 61.325 50.9039 61.3038 50.9122 61.2641C50.9157 61.2628 50.9192 61.2614 50.9227 61.2601C51.0187 61.0925 51.1872 60.9885 51.2987 60.8345L51.5971 60.5609C51.6897 60.4017 51.8175 60.3616 51.9824 60.447C51.9824 60.447 51.9824 60.447 51.9824 60.447C52.272 60.4699 52.5501 60.5229 52.7623 60.7471C52.7552 60.7833 52.783 60.8034 52.7998 60.8286ZM50.3389 60.7475C50.3348 60.7638 50.3249 60.7705 50.31 60.7687C50.2522 60.8315 50.1943 60.8943 50.1365 60.9571C50.134 60.9577 50.1318 60.9579 50.1296 60.9582C50.11 61.0131 50.0696 61.047 50.0177 61.0692C50.012 61.0939 50.0012 61.1134 49.975 61.1168C49.9749 61.1169 49.9749 61.1171 49.9748 61.1173C49.9194 61.1773 49.8529 61.2305 49.811 61.2988L48.8419 61.6911C48.7877 61.7219 48.737 61.7157 48.6964 61.6661C48.6932 61.6649 48.69 61.6639 48.6868 61.6626C48.6491 61.6543 48.6114 61.646 48.5737 61.6378C48.5737 61.6377 48.5737 61.6377 48.5737 61.6377C48.5737 61.6377 48.5737 61.6377 48.5737 61.6377C48.5152 61.6541 48.4714 61.6272 48.4313 61.5892C48.4313 61.5892 48.4315 61.5888 48.4318 61.588C48.3054 61.568 48.2021 61.5047 48.1146 61.4139C48.0579 61.3549 48.0482 61.2792 48.0971 61.2143C48.1407 61.1564 48.1896 61.0994 48.2462 61.055C48.4178 60.9207 48.6044 60.8132 48.821 60.7681C48.8212 60.7674 48.8213 60.7669 48.8215 60.7663C48.9699 60.6603 49.1496 60.6372 49.318 60.591C49.6797 60.4919 50.0511 60.4384 50.4236 60.3964C50.4904 60.3889 50.5625 60.3647 50.6486 60.4225C50.5738 60.5122 50.514 60.6038 50.4052 60.6495C50.4178 60.7125 50.3951 60.7193 50.3389 60.7475ZM52.9992 68.4408C52.9895 68.9008 52.9233 68.8835 52.5438 68.8999C51.7448 68.9345 50.9451 68.9294 50.1463 68.8908C49.6843 68.8685 49.2199 68.8838 48.761 68.8106C48.6681 68.7958 48.5755 68.776 48.4847 68.7516C48.2998 68.702 48.2058 68.5733 48.1889 68.3873C48.1814 68.3044 48.171 68.2197 48.2135 68.1069C48.5163 68.1968 48.8016 68.3004 49.0982 68.3691C50.2975 68.6471 51.4766 68.5793 52.6393 68.1822C52.9898 68.0625 53.0069 68.0741 52.9992 68.4408ZM55.786 60.3902C56.0326 60.8591 56.2224 61.3473 56.2882 61.8778C56.3077 62.0345 56.347 62.189 56.3616 62.346C56.4572 63.373 56.246 64.3403 55.7514 65.2398C55.0165 66.5762 53.903 67.4723 52.4587 67.9355C50.6748 68.5076 48.9573 68.3263 47.3588 67.3348C46.1325 66.5741 45.3312 65.4797 44.9947 64.0667C44.7667 63.1092 44.8327 62.1631 45.152 61.2332C45.1696 61.1817 45.1903 61.1357 45.2468 61.0996C45.4921 61.6137 45.9309 61.9137 46.4263 62.1455C46.8965 62.3657 47.3936 62.5069 47.904 62.5898C49.6609 62.8752 51.3908 62.7492 53.089 62.2158C53.5823 62.0608 54.0552 61.8557 54.4974 61.5842C54.7227 61.4459 54.9343 61.2898 55.1251 61.1063C55.3719 60.8689 55.5625 60.5946 55.6597 60.2645C55.749 60.2719 55.7599 60.3406 55.786 60.3902ZM69.0138 54.0093C69.1737 53.8842 69.3552 53.8036 69.5456 53.739C69.9777 53.5924 70.4253 53.526 70.8776 53.4954C71.1188 53.4791 71.362 53.4925 71.6043 53.4925C72.5684 53.4738 73.516 53.5935 74.4405 53.8726C74.7632 53.9701 75.077 54.0924 75.3661 54.2693C75.5104 54.3575 75.6488 54.4548 75.7475 54.5962C75.8665 54.7669 75.8539 54.8956 75.7059 55.0469C75.6162 55.1387 75.5059 55.2007 75.3917 55.2554C75.1334 55.3793 74.8586 55.4545 74.5787 55.5037C73.8279 55.6355 73.0727 55.6638 72.3118 55.6012C71.6379 55.5457 70.9737 55.445 70.3241 55.2565C70.0308 55.1713 69.7444 55.066 69.4722 54.926C69.2932 54.8339 69.1257 54.7236 68.9852 54.579C68.8043 54.3928 68.7993 54.1771 69.0138 54.0093ZM75.5356 57.8327C75.4786 58.3349 75.4163 58.8365 75.3634 59.3391C75.2851 60.0826 75.2123 60.8267 75.1386 61.5707C75.067 62.2939 74.9826 63.0154 74.8733 63.7338C74.8246 64.0539 74.817 64.0502 74.5571 64.2403C74.2297 64.48 73.8669 64.6425 73.4766 64.7437C73.1498 64.8283 72.8179 64.88 72.4783 64.8836C71.9188 64.8895 71.3627 64.8562 70.8097 64.7705C70.6121 64.7398 70.414 64.7125 70.2157 64.6874C70.078 64.6701 69.9477 64.63 69.8266 64.5649C69.6832 64.488 69.5847 64.3829 69.5478 64.209C69.4754 63.8681 69.4294 63.5239 69.3961 63.1786C69.2494 61.6579 69.1518 60.1341 69.1258 58.6061C69.1222 58.3957 69.1007 58.1856 69.0908 57.9752C69.0863 57.8814 69.09 57.7872 69.09 57.6773C69.212 57.6573 69.2948 57.7166 69.3824 57.7453C70.1376 57.9924 70.9143 58.1186 71.7044 58.1745C72.2412 58.2125 72.7775 58.2176 73.3147 58.1765C74.0634 58.1192 74.7981 58.0041 75.4867 57.6834C75.4947 57.6797 75.5073 57.6859 75.5182 57.6876C75.5647 57.7308 75.5412 57.7838 75.5356 57.8327ZM75.6897 56.6336C75.6783 56.7593 75.6467 56.8845 75.6474 57.0099C75.6485 57.2068 75.5496 57.3156 75.3814 57.3951C75.1425 57.5081 74.8969 57.5999 74.6412 57.6633C73.8171 57.8674 72.9789 57.9309 72.133 57.8955C71.3209 57.8615 70.5175 57.7608 69.7341 57.5346C69.5525 57.4822 69.3768 57.4097 69.1961 57.3538C69.0996 57.324 69.0658 57.2672 69.0625 57.1695C69.0503 56.8115 69.03 56.4539 69.0158 56.096C69.004 55.8012 68.9987 55.5063 68.9505 55.2141C68.9404 55.1526 68.9421 55.0892 68.9386 55.0321C68.975 55.0092 69.0019 55.0029 69.0317 55.0221C69.5708 55.3702 70.1735 55.5556 70.7918 55.6915C71.6073 55.8707 72.435 55.9537 73.27 55.9364C73.839 55.9246 74.4053 55.8763 74.9591 55.7299C75.234 55.6572 75.496 55.5537 75.7983 55.3828C75.759 55.8378 75.7257 56.2358 75.6897 56.6336Z" fill="black"/>
<path d="M50.0719 60.7656C50.0721 60.7672 50.0722 60.7688 50.0724 60.7703C50.0737 60.7687 50.0753 60.7672 50.0768 60.7656C50.0751 60.7656 50.0735 60.7656 50.0719 60.7656Z" fill="black"/>
<path d="M80.9674 58.2329C80.966 58.1918 80.962 58.1506 80.9639 58.1097C80.9682 58.0146 80.9173 57.9839 80.831 57.9868C80.8117 57.9875 80.7921 57.9756 80.7727 57.9695C80.8465 57.8982 80.9456 57.9477 81.0276 57.916C81.0276 58.0215 81.0276 58.1269 81.0276 58.2324C81.0075 58.2326 80.9874 58.2327 80.9674 58.2329Z" fill="#727171"/>
<path d="M34.7074 71.896C33 71.9347 31.2926 71.9752 29.5851 72.0117C27.9198 72.0472 26.2543 72.0775 24.589 72.1121C22.5969 72.1534 20.6049 72.1967 18.6128 72.2393C16.6734 72.2808 14.7341 72.3226 12.7947 72.3643C11.0557 72.4016 9.31656 72.4389 7.57748 72.4757C7.49326 72.4775 7.40861 72.4793 7.32477 72.4728C7.25551 72.4674 7.21152 72.4214 7.19545 72.3545C7.17956 72.2884 7.23246 72.206 7.31134 72.1909C7.39303 72.1752 7.47783 72.1722 7.56144 72.1704C9.269 72.1356 10.9766 72.1029 12.6841 72.0675C14.6552 72.0266 16.6261 71.9834 18.5971 71.9413C20.5576 71.8994 22.5181 71.8575 24.4785 71.8156C26.4601 71.7732 28.4416 71.7307 30.4231 71.6883C32.3941 71.6462 34.3651 71.6042 36.3361 71.562C38.3071 71.5199 40.2781 71.4775 42.2491 71.4354C44.2201 71.3932 46.1911 71.3513 48.1621 71.3092C50.1437 71.2668 52.1252 71.2242 54.1067 71.1818C56.0777 71.1397 58.0488 71.0978 60.0198 71.0555C60.6627 71.0417 61.3056 71.0262 61.9486 71.0132C62.0324 71.0115 62.1174 71.0135 62.1999 71.0261C62.2537 71.0344 62.2886 71.0792 62.2975 71.1361C62.3087 71.2082 62.2752 71.2588 62.2127 71.2886C62.1237 71.3311 62.0265 71.3189 61.9324 71.3207C61.3211 71.3323 60.7096 71.34 60.0983 71.3528C58.1062 71.3942 56.1141 71.4372 54.1221 71.4798C52.1827 71.5213 50.2434 71.5632 48.304 71.6047C46.3014 71.6475 44.2988 71.69 42.2962 71.7328C40.3358 71.7747 38.3753 71.8161 36.4149 71.8593C35.8458 71.8718 35.2768 71.8899 34.7077 71.9054C34.7076 71.9023 34.7075 71.8991 34.7074 71.896Z" fill="black"/>
</g>
<defs>
<clipPath id="clip0_429_285">
<rect width="81" height="81" fill="white"/>
</clipPath>
</defs>
</svg>
