<svg width="59" height="60" viewBox="0 0 59 60" fill="none" xmlns="http://www.w3.org/2000/svg">
<path fill-rule="evenodd" clip-rule="evenodd" d="M26.2829 0.0932705C18.9908 1.55862 13.4723 6.28453 10.8738 13.2899C10.563 14.1272 10.2081 16.2364 10.0848 17.9771L9.8609 21.142L5.03882 21.2398C1.22644 21.3168 0.176145 21.4437 0.0211067 21.8453C-0.0862544 22.1245 0.226647 23.6222 0.716835 25.1727L1.60786 27.9923L18.0952 28.0837L34.5822 28.1751L31.7029 29.6697L28.8239 31.1642H15.6845C5.32736 31.1642 2.57764 31.2574 2.69807 31.6038C2.78177 31.8457 3.23594 33.348 3.70705 34.9427L4.56347 37.8421L10.1964 37.8439C13.3431 37.845 15.6814 37.9786 15.4938 38.1463C15.3091 38.312 13.2512 39.4383 10.9204 40.6498C8.58951 41.8612 6.57897 42.9521 6.45218 43.0744C6.03404 43.4774 8.16819 49.6363 8.68204 49.5097C8.94197 49.4457 11.8563 47.9596 15.1583 46.2077C18.4604 44.4554 22.2745 42.4316 23.6342 41.71C24.9939 40.9888 27.4572 39.6852 29.1082 38.8134C32.3361 37.1089 40.6192 32.7227 46.06 29.8363C47.9052 28.8573 51.2136 27.117 53.4117 25.9688C58.3924 23.3676 59.2558 22.7392 58.9433 21.9431C58.7374 21.418 58.0636 21.3242 53.8839 21.2398L49.0618 21.142L48.8443 18.1529C48.1079 8.03402 40.3303 0.418201 30.3443 0.037357C28.5961 -0.0294577 26.7685 -0.00413827 26.2829 0.0932705ZM35.4065 8.29916C40.0085 10.7509 42.1752 14.9877 42.1752 21.5344V24.1167L40.7767 24.8274C40.0075 25.218 39.2923 25.5377 39.1874 25.5377C39.0825 25.5377 38.9967 23.7225 38.9967 21.5039C38.9967 18.013 38.8837 17.2196 38.158 15.6136C37.1832 13.4559 35.5644 11.7229 33.5414 10.6704C32.4544 10.1049 31.473 9.92593 29.4614 9.92593C26.4334 9.92593 24.7491 10.6074 22.6768 12.671C20.917 14.4233 20.1594 16.1974 19.9903 18.9624L19.8441 21.3544L18.3841 21.2482L16.9241 21.142L17.0057 18.7121C17.1781 13.5765 20.8259 8.87412 25.9297 7.20903C26.4153 7.05079 28.243 6.96287 29.9911 7.01421C32.833 7.09756 33.4065 7.23365 35.4065 8.29916ZM31.1484 17.2938C31.7795 17.7337 31.9335 18.1818 31.9335 19.5796V21.3178H29.4614H26.9892V19.5796C26.9892 17.6444 27.7729 16.7463 29.4614 16.7463C29.9576 16.7463 30.7169 16.9928 31.1484 17.2938ZM55.7719 28.1097C54.9949 28.55 52.2933 29.9928 49.7682 31.3158C47.2431 32.6387 44.2235 34.2342 43.0581 34.8615C41.8927 35.4889 35.2974 38.9759 28.4019 42.611C7.31955 53.7236 9.49996 52.4433 9.56141 53.6755C9.65641 55.5871 11.2894 58.3739 12.8144 59.2274C14.1772 59.9898 14.393 60 29.4614 60C44.5297 60 44.7455 59.9898 46.1083 59.2274C47.533 58.4302 49.1208 55.8564 49.3196 54.0218L49.415 53.1427L36.1714 53.0358L22.9279 52.9289L25.8761 51.5413L28.8239 50.1536H39.696H50.5677L51.4923 47.2011C52.0008 45.5772 52.4169 43.9947 52.4169 43.6846C52.4169 43.1936 51.7649 43.1198 47.3843 43.1159L42.3518 43.1114L44.8239 41.7529C46.1836 41.006 48.9647 39.5129 51.0042 38.435L54.7124 36.4753L56.0354 32.325C56.7632 30.0428 57.3195 27.9803 57.2714 27.7422C57.2114 27.4433 56.747 27.5569 55.7719 28.1097Z" fill="black"/>
</svg>
