<svg width="238" height="215" viewBox="0 0 238 215" fill="none" xmlns="http://www.w3.org/2000/svg">
<path fill-rule="evenodd" clip-rule="evenodd" d="M113.765 0.152342C101.9 2.54575 92.9211 10.2647 88.6929 21.7068C88.1872 23.0744 87.6097 26.5194 87.4092 29.3626L87.0448 34.5319L79.1988 34.6916C72.9956 34.8174 71.2866 35.0247 71.0343 35.6807C70.8597 36.1367 71.3688 38.583 72.1664 41.1154L73.6162 45.7207L100.443 45.87L127.269 46.0194L122.584 48.4604L117.9 50.9015H96.5206C79.6682 50.9015 75.1941 51.0537 75.3901 51.6195C75.5263 52.0147 76.2653 54.4684 77.0318 57.0731L78.4253 61.8088L87.5907 61.8117C92.7108 61.8134 96.5154 62.0317 96.2103 62.3057C95.9097 62.5762 92.5613 64.4159 88.7688 66.3946C84.9762 68.3733 81.7048 70.155 81.4985 70.3549C80.8181 71.0131 84.2906 81.0727 85.1267 80.8659C85.5496 80.7614 90.2915 78.3341 95.6644 75.4726C101.037 72.6105 107.243 69.305 109.456 68.1264C111.668 66.9483 115.676 64.8191 118.362 63.3953C123.615 60.6113 137.092 53.4471 145.945 48.7327C148.947 47.1336 154.331 44.2911 157.907 42.4158C166.011 38.1671 167.416 37.1407 166.908 35.8403C166.573 34.9828 165.476 34.8295 158.675 34.6916L150.829 34.5319L150.475 29.6498C149.277 13.1222 136.622 0.683061 120.374 0.0610164C117.529 -0.0481142 114.556 -0.00675918 113.765 0.152342ZM128.611 13.5553C136.099 17.5598 139.624 24.4799 139.624 35.1729V39.3905L137.348 40.5513C136.097 41.1895 134.933 41.7116 134.763 41.7116C134.592 41.7116 134.452 38.7467 134.452 35.123C134.452 29.4212 134.268 28.1254 133.088 25.5022C131.502 21.9779 128.867 19.1474 125.576 17.4283C123.807 16.5047 122.21 16.2123 118.937 16.2123C114.01 16.2123 111.27 17.3255 107.898 20.6959C105.034 23.558 103.802 26.4557 103.527 30.972L103.289 34.8788L100.913 34.7054L98.5376 34.5319L98.6703 30.563C98.9507 22.1749 104.886 14.4944 113.191 11.7747C113.981 11.5163 116.955 11.3727 119.799 11.4565C124.423 11.5927 125.356 11.815 128.611 13.5553ZM121.682 28.2466C122.709 28.9651 122.96 29.6969 122.96 31.98V34.8191H118.937H114.915V31.98C114.915 28.8192 116.19 27.3523 118.937 27.3523C119.744 27.3523 120.98 27.7549 121.682 28.2466ZM161.748 45.9125C160.483 46.6316 156.087 48.9883 151.979 51.1491C147.87 53.3099 142.957 55.9158 141.061 56.9405C139.164 57.9651 128.433 63.6606 117.213 69.5979C82.9098 87.7486 86.4576 85.6573 86.5576 87.6699C86.7121 90.7922 89.3693 95.3441 91.8505 96.7381C94.068 97.9833 94.4191 98 118.937 98C143.455 98 143.806 97.9833 146.024 96.7381C148.342 95.436 150.925 91.2322 151.249 88.2357L151.404 86.7998L129.855 86.6251L108.306 86.4505L113.103 84.1841L117.9 81.9176H135.59H153.28L154.784 77.0952C155.612 74.4427 156.288 71.858 156.288 71.3514C156.288 70.5496 155.228 70.429 148.1 70.4227L139.911 70.4152L143.934 68.1964C146.146 66.9765 150.671 64.5377 153.99 62.7772L160.024 59.5763L162.176 52.7975C163.361 49.0698 164.266 45.7012 164.187 45.3123C164.09 44.8241 163.334 45.0096 161.748 45.9125Z" fill="black"/>
<path d="M84.175 129C85.1917 129.217 86.0083 129.725 86.625 130.525C87.2417 131.308 87.55 132.208 87.55 133.225C87.55 134.692 87.0333 135.858 86 136.725C84.9833 137.575 83.5583 138 81.725 138H73.55V120.45H81.45C83.2333 120.45 84.625 120.858 85.625 121.675C86.6417 122.492 87.15 123.6 87.15 125C87.15 126.033 86.875 126.892 86.325 127.575C85.7917 128.258 85.075 128.733 84.175 129ZM77.825 127.55H80.625C81.325 127.55 81.8583 127.4 82.225 127.1C82.6083 126.783 82.8 126.325 82.8 125.725C82.8 125.125 82.6083 124.667 82.225 124.35C81.8583 124.033 81.325 123.875 80.625 123.875H77.825V127.55ZM80.975 134.55C81.6917 134.55 82.2417 134.392 82.625 134.075C83.025 133.742 83.225 133.267 83.225 132.65C83.225 132.033 83.0167 131.55 82.6 131.2C82.2 130.85 81.6417 130.675 80.925 130.675H77.825V134.55H80.975ZM103.804 124.05V138H99.5295V136.1C99.0962 136.717 98.5045 137.217 97.7545 137.6C97.0212 137.967 96.2045 138.15 95.3045 138.15C94.2378 138.15 93.2962 137.917 92.4795 137.45C91.6628 136.967 91.0295 136.275 90.5795 135.375C90.1295 134.475 89.9045 133.417 89.9045 132.2V124.05H94.1545V131.625C94.1545 132.558 94.3962 133.283 94.8795 133.8C95.3628 134.317 96.0128 134.575 96.8295 134.575C97.6628 134.575 98.3212 134.317 98.8045 133.8C99.2878 133.283 99.5295 132.558 99.5295 131.625V124.05H103.804ZM121.125 124.05L112.375 144.625H107.775L110.975 137.525L105.3 124.05H110.075L113.3 132.775L116.5 124.05H121.125ZM129.021 138.175C127.738 138.175 126.588 137.967 125.571 137.55C124.554 137.133 123.738 136.517 123.121 135.7C122.521 134.883 122.204 133.9 122.171 132.75H126.721C126.788 133.4 127.013 133.9 127.396 134.25C127.779 134.583 128.279 134.75 128.896 134.75C129.529 134.75 130.029 134.608 130.396 134.325C130.763 134.025 130.946 133.617 130.946 133.1C130.946 132.667 130.796 132.308 130.496 132.025C130.213 131.742 129.854 131.508 129.421 131.325C129.004 131.142 128.404 130.933 127.621 130.7C126.488 130.35 125.563 130 124.846 129.65C124.129 129.3 123.513 128.783 122.996 128.1C122.479 127.417 122.221 126.525 122.221 125.425C122.221 123.792 122.813 122.517 123.996 121.6C125.179 120.667 126.721 120.2 128.621 120.2C130.554 120.2 132.113 120.667 133.296 121.6C134.479 122.517 135.113 123.8 135.196 125.45H130.571C130.538 124.883 130.329 124.442 129.946 124.125C129.563 123.792 129.071 123.625 128.471 123.625C127.954 123.625 127.538 123.767 127.221 124.05C126.904 124.317 126.746 124.708 126.746 125.225C126.746 125.792 127.013 126.233 127.546 126.55C128.079 126.867 128.913 127.208 130.046 127.575C131.179 127.958 132.096 128.325 132.796 128.675C133.513 129.025 134.129 129.533 134.646 130.2C135.163 130.867 135.421 131.725 135.421 132.775C135.421 133.775 135.163 134.683 134.646 135.5C134.146 136.317 133.413 136.967 132.446 137.45C131.479 137.933 130.338 138.175 129.021 138.175ZM151.202 130.8C151.202 131.2 151.177 131.617 151.127 132.05H141.452C141.519 132.917 141.794 133.583 142.277 134.05C142.777 134.5 143.385 134.725 144.102 134.725C145.169 134.725 145.91 134.275 146.327 133.375H150.877C150.644 134.292 150.219 135.117 149.602 135.85C149.002 136.583 148.244 137.158 147.327 137.575C146.41 137.992 145.385 138.2 144.252 138.2C142.885 138.2 141.669 137.908 140.602 137.325C139.535 136.742 138.702 135.908 138.102 134.825C137.502 133.742 137.202 132.475 137.202 131.025C137.202 129.575 137.494 128.308 138.077 127.225C138.677 126.142 139.51 125.308 140.577 124.725C141.644 124.142 142.869 123.85 144.252 123.85C145.602 123.85 146.802 124.133 147.852 124.7C148.902 125.267 149.719 126.075 150.302 127.125C150.902 128.175 151.202 129.4 151.202 130.8ZM146.827 129.675C146.827 128.942 146.577 128.358 146.077 127.925C145.577 127.492 144.952 127.275 144.202 127.275C143.485 127.275 142.877 127.483 142.377 127.9C141.894 128.317 141.594 128.908 141.477 129.675H146.827ZM157.732 119.5V138H153.457V119.5H157.732ZM165.105 119.5V138H160.83V119.5H165.105Z" fill="black"/>
<path d="M36.2039 170.14H32.5559L31.8839 172H30.7319L33.7559 163.684H35.0159L38.0279 172H36.8759L36.2039 170.14ZM35.8919 169.252L34.3799 165.028L32.8679 169.252H35.8919ZM42.1371 167.812C42.1371 166.996 42.3211 166.264 42.6891 165.616C43.0571 164.96 43.5571 164.448 44.1891 164.08C44.8291 163.712 45.5371 163.528 46.3131 163.528C47.2251 163.528 48.0211 163.748 48.7011 164.188C49.3811 164.628 49.8771 165.252 50.1891 166.06H48.8811C48.6491 165.556 48.3131 165.168 47.8731 164.896C47.4411 164.624 46.9211 164.488 46.3131 164.488C45.7291 164.488 45.2051 164.624 44.7411 164.896C44.2771 165.168 43.9131 165.556 43.6491 166.06C43.3851 166.556 43.2531 167.14 43.2531 167.812C43.2531 168.476 43.3851 169.06 43.6491 169.564C43.9131 170.06 44.2771 170.444 44.7411 170.716C45.2051 170.988 45.7291 171.124 46.3131 171.124C46.9211 171.124 47.4411 170.992 47.8731 170.728C48.3131 170.456 48.6491 170.068 48.8811 169.564H50.1891C49.8771 170.364 49.3811 170.984 48.7011 171.424C48.0211 171.856 47.2251 172.072 46.3131 172.072C45.5371 172.072 44.8291 171.892 44.1891 171.532C43.5571 171.164 43.0571 170.656 42.6891 170.008C42.3211 169.36 42.1371 168.628 42.1371 167.812ZM54.6826 172.108C54.0666 172.108 53.5066 171.968 53.0026 171.688C52.5066 171.408 52.1146 171.012 51.8266 170.5C51.5466 169.98 51.4066 169.38 51.4066 168.7C51.4066 168.028 51.5506 167.436 51.8386 166.924C52.1346 166.404 52.5346 166.008 53.0386 165.736C53.5426 165.456 54.1066 165.316 54.7306 165.316C55.3546 165.316 55.9186 165.456 56.4226 165.736C56.9266 166.008 57.3226 166.4 57.6106 166.912C57.9066 167.424 58.0546 168.02 58.0546 168.7C58.0546 169.38 57.9026 169.98 57.5986 170.5C57.3026 171.012 56.8986 171.408 56.3866 171.688C55.8746 171.968 55.3066 172.108 54.6826 172.108ZM54.6826 171.148C55.0746 171.148 55.4426 171.056 55.7866 170.872C56.1306 170.688 56.4066 170.412 56.6146 170.044C56.8306 169.676 56.9386 169.228 56.9386 168.7C56.9386 168.172 56.8346 167.724 56.6266 167.356C56.4186 166.988 56.1466 166.716 55.8106 166.54C55.4746 166.356 55.1106 166.264 54.7186 166.264C54.3186 166.264 53.9506 166.356 53.6146 166.54C53.2866 166.716 53.0226 166.988 52.8226 167.356C52.6226 167.724 52.5226 168.172 52.5226 168.7C52.5226 169.236 52.6186 169.688 52.8106 170.056C53.0106 170.424 53.2746 170.7 53.6026 170.884C53.9306 171.06 54.2906 171.148 54.6826 171.148ZM67.3984 165.304C67.9104 165.304 68.3664 165.412 68.7664 165.628C69.1664 165.836 69.4824 166.152 69.7144 166.576C69.9464 167 70.0624 167.516 70.0624 168.124V172H68.9824V168.28C68.9824 167.624 68.8184 167.124 68.4904 166.78C68.1704 166.428 67.7344 166.252 67.1824 166.252C66.6144 166.252 66.1624 166.436 65.8264 166.804C65.4904 167.164 65.3224 167.688 65.3224 168.376V172H64.2424V168.28C64.2424 167.624 64.0784 167.124 63.7504 166.78C63.4304 166.428 62.9944 166.252 62.4424 166.252C61.8744 166.252 61.4224 166.436 61.0864 166.804C60.7504 167.164 60.5824 167.688 60.5824 168.376V172H59.4904V165.424H60.5824V166.372C60.7984 166.028 61.0864 165.764 61.4464 165.58C61.8144 165.396 62.2184 165.304 62.6584 165.304C63.2104 165.304 63.6984 165.428 64.1224 165.676C64.5464 165.924 64.8624 166.288 65.0704 166.768C65.2544 166.304 65.5584 165.944 65.9824 165.688C66.4064 165.432 66.8784 165.304 67.3984 165.304ZM72.9457 166.636C73.1617 166.26 73.4817 165.948 73.9057 165.7C74.3377 165.444 74.8377 165.316 75.4057 165.316C75.9897 165.316 76.5177 165.456 76.9897 165.736C77.4697 166.016 77.8457 166.412 78.1177 166.924C78.3897 167.428 78.5257 168.016 78.5257 168.688C78.5257 169.352 78.3897 169.944 78.1177 170.464C77.8457 170.984 77.4697 171.388 76.9897 171.676C76.5177 171.964 75.9897 172.108 75.4057 172.108C74.8457 172.108 74.3497 171.984 73.9177 171.736C73.4937 171.48 73.1697 171.164 72.9457 170.788V175.12H71.8537V165.424H72.9457V166.636ZM77.4097 168.688C77.4097 168.192 77.3097 167.76 77.1097 167.392C76.9097 167.024 76.6377 166.744 76.2937 166.552C75.9577 166.36 75.5857 166.264 75.1777 166.264C74.7777 166.264 74.4057 166.364 74.0617 166.564C73.7257 166.756 73.4537 167.04 73.2457 167.416C73.0457 167.784 72.9457 168.212 72.9457 168.7C72.9457 169.196 73.0457 169.632 73.2457 170.008C73.4537 170.376 73.7257 170.66 74.0617 170.86C74.4057 171.052 74.7777 171.148 75.1777 171.148C75.5857 171.148 75.9577 171.052 76.2937 170.86C76.6377 170.66 76.9097 170.376 77.1097 170.008C77.3097 169.632 77.4097 169.192 77.4097 168.688ZM81.0551 166.492C81.2471 166.116 81.5191 165.824 81.8711 165.616C82.2311 165.408 82.6671 165.304 83.1791 165.304V166.432H82.8911C81.6671 166.432 81.0551 167.096 81.0551 168.424V172H79.9631V165.424H81.0551V166.492ZM90.4396 168.46C90.4396 168.668 90.4276 168.888 90.4036 169.12H85.1476C85.1876 169.768 85.4076 170.276 85.8076 170.644C86.2156 171.004 86.7076 171.184 87.2836 171.184C87.7556 171.184 88.1476 171.076 88.4596 170.86C88.7796 170.636 89.0036 170.34 89.1316 169.972H90.3076C90.1316 170.604 89.7796 171.12 89.2516 171.52C88.7236 171.912 88.0676 172.108 87.2836 172.108C86.6596 172.108 86.0996 171.968 85.6036 171.688C85.1156 171.408 84.7316 171.012 84.4516 170.5C84.1716 169.98 84.0316 169.38 84.0316 168.7C84.0316 168.02 84.1676 167.424 84.4396 166.912C84.7116 166.4 85.0916 166.008 85.5796 165.736C86.0756 165.456 86.6436 165.316 87.2836 165.316C87.9076 165.316 88.4596 165.452 88.9396 165.724C89.4196 165.996 89.7876 166.372 90.0436 166.852C90.3076 167.324 90.4396 167.86 90.4396 168.46ZM89.3116 168.232C89.3116 167.816 89.2196 167.46 89.0356 167.164C88.8516 166.86 88.5996 166.632 88.2796 166.48C87.9676 166.32 87.6196 166.24 87.2356 166.24C86.6836 166.24 86.2116 166.416 85.8196 166.768C85.4356 167.12 85.2156 167.608 85.1596 168.232H89.3116ZM95.145 165.304C95.641 165.304 96.089 165.412 96.489 165.628C96.889 165.836 97.201 166.152 97.425 166.576C97.657 167 97.773 167.516 97.773 168.124V172H96.693V168.28C96.693 167.624 96.529 167.124 96.201 166.78C95.873 166.428 95.425 166.252 94.857 166.252C94.281 166.252 93.821 166.432 93.477 166.792C93.141 167.152 92.973 167.676 92.973 168.364V172H91.881V163.12H92.973V166.36C93.189 166.024 93.485 165.764 93.861 165.58C94.245 165.396 94.673 165.304 95.145 165.304ZM105.557 168.46C105.557 168.668 105.545 168.888 105.521 169.12H100.265C100.305 169.768 100.525 170.276 100.925 170.644C101.333 171.004 101.825 171.184 102.401 171.184C102.873 171.184 103.265 171.076 103.577 170.86C103.897 170.636 104.121 170.34 104.249 169.972H105.425C105.249 170.604 104.897 171.12 104.369 171.52C103.841 171.912 103.185 172.108 102.401 172.108C101.777 172.108 101.217 171.968 100.721 171.688C100.233 171.408 99.8488 171.012 99.5688 170.5C99.2888 169.98 99.1488 169.38 99.1488 168.7C99.1488 168.02 99.2848 167.424 99.5568 166.912C99.8288 166.4 100.209 166.008 100.697 165.736C101.193 165.456 101.761 165.316 102.401 165.316C103.025 165.316 103.577 165.452 104.057 165.724C104.537 165.996 104.905 166.372 105.161 166.852C105.425 167.324 105.557 167.86 105.557 168.46ZM104.429 168.232C104.429 167.816 104.337 167.46 104.153 167.164C103.969 166.86 103.717 166.632 103.397 166.48C103.085 166.32 102.737 166.24 102.353 166.24C101.801 166.24 101.329 166.416 100.937 166.768C100.553 167.12 100.333 167.608 100.277 168.232H104.429ZM110.202 165.304C111.002 165.304 111.65 165.548 112.146 166.036C112.642 166.516 112.89 167.212 112.89 168.124V172H111.81V168.28C111.81 167.624 111.646 167.124 111.318 166.78C110.99 166.428 110.542 166.252 109.974 166.252C109.398 166.252 108.938 166.432 108.594 166.792C108.258 167.152 108.09 167.676 108.09 168.364V172H106.998V165.424H108.09V166.36C108.306 166.024 108.598 165.764 108.966 165.58C109.342 165.396 109.754 165.304 110.202 165.304ZM117.002 172.108C116.498 172.108 116.046 172.024 115.646 171.856C115.246 171.68 114.93 171.44 114.698 171.136C114.466 170.824 114.338 170.468 114.314 170.068H115.442C115.474 170.396 115.626 170.664 115.898 170.872C116.178 171.08 116.542 171.184 116.99 171.184C117.406 171.184 117.734 171.092 117.974 170.908C118.214 170.724 118.334 170.492 118.334 170.212C118.334 169.924 118.206 169.712 117.95 169.576C117.694 169.432 117.298 169.292 116.762 169.156C116.274 169.028 115.874 168.9 115.562 168.772C115.258 168.636 114.994 168.44 114.77 168.184C114.554 167.92 114.446 167.576 114.446 167.152C114.446 166.816 114.546 166.508 114.746 166.228C114.946 165.948 115.23 165.728 115.598 165.568C115.966 165.4 116.386 165.316 116.858 165.316C117.586 165.316 118.174 165.5 118.622 165.868C119.07 166.236 119.31 166.74 119.342 167.38H118.25C118.226 167.036 118.086 166.76 117.83 166.552C117.582 166.344 117.246 166.24 116.822 166.24C116.43 166.24 116.118 166.324 115.886 166.492C115.654 166.66 115.538 166.88 115.538 167.152C115.538 167.368 115.606 167.548 115.742 167.692C115.886 167.828 116.062 167.94 116.27 168.028C116.486 168.108 116.782 168.2 117.158 168.304C117.63 168.432 118.014 168.56 118.31 168.688C118.606 168.808 118.858 168.992 119.066 169.24C119.282 169.488 119.394 169.812 119.402 170.212C119.402 170.572 119.302 170.896 119.102 171.184C118.902 171.472 118.618 171.7 118.25 171.868C117.89 172.028 117.474 172.108 117.002 172.108ZM121.508 164.356C121.3 164.356 121.124 164.284 120.98 164.14C120.836 163.996 120.764 163.82 120.764 163.612C120.764 163.404 120.836 163.228 120.98 163.084C121.124 162.94 121.3 162.868 121.508 162.868C121.708 162.868 121.876 162.94 122.012 163.084C122.156 163.228 122.228 163.404 122.228 163.612C122.228 163.82 122.156 163.996 122.012 164.14C121.876 164.284 121.708 164.356 121.508 164.356ZM122.036 165.424V172H120.944V165.424H122.036ZM126.345 170.992L128.385 165.424H129.549L126.969 172H125.697L123.117 165.424H124.293L126.345 170.992ZM136.623 168.46C136.623 168.668 136.611 168.888 136.587 169.12H131.331C131.371 169.768 131.591 170.276 131.991 170.644C132.399 171.004 132.891 171.184 133.467 171.184C133.939 171.184 134.331 171.076 134.643 170.86C134.963 170.636 135.187 170.34 135.315 169.972H136.491C136.315 170.604 135.963 171.12 135.435 171.52C134.907 171.912 134.251 172.108 133.467 172.108C132.843 172.108 132.283 171.968 131.787 171.688C131.299 171.408 130.915 171.012 130.635 170.5C130.355 169.98 130.215 169.38 130.215 168.7C130.215 168.02 130.351 167.424 130.623 166.912C130.895 166.4 131.275 166.008 131.763 165.736C132.259 165.456 132.827 165.316 133.467 165.316C134.091 165.316 134.643 165.452 135.123 165.724C135.603 165.996 135.971 166.372 136.227 166.852C136.491 167.324 136.623 167.86 136.623 168.46ZM135.495 168.232C135.495 167.816 135.403 167.46 135.219 167.164C135.035 166.86 134.783 166.632 134.463 166.48C134.151 166.32 133.803 166.24 133.419 166.24C132.867 166.24 132.395 166.416 132.003 166.768C131.619 167.12 131.399 167.608 131.343 168.232H135.495ZM143.916 172.084C143.364 172.084 142.868 171.988 142.428 171.796C141.996 171.596 141.656 171.324 141.408 170.98C141.16 170.628 141.032 170.224 141.024 169.768H142.188C142.228 170.16 142.388 170.492 142.668 170.764C142.956 171.028 143.372 171.16 143.916 171.16C144.436 171.16 144.844 171.032 145.14 170.776C145.444 170.512 145.596 170.176 145.596 169.768C145.596 169.448 145.508 169.188 145.332 168.988C145.156 168.788 144.936 168.636 144.672 168.532C144.408 168.428 144.052 168.316 143.604 168.196C143.052 168.052 142.608 167.908 142.272 167.764C141.944 167.62 141.66 167.396 141.42 167.092C141.188 166.78 141.072 166.364 141.072 165.844C141.072 165.388 141.188 164.984 141.42 164.632C141.652 164.28 141.976 164.008 142.392 163.816C142.816 163.624 143.3 163.528 143.844 163.528C144.628 163.528 145.268 163.724 145.764 164.116C146.268 164.508 146.552 165.028 146.616 165.676H145.416C145.376 165.356 145.208 165.076 144.912 164.836C144.616 164.588 144.224 164.464 143.736 164.464C143.28 164.464 142.908 164.584 142.62 164.824C142.332 165.056 142.188 165.384 142.188 165.808C142.188 166.112 142.272 166.36 142.44 166.552C142.616 166.744 142.828 166.892 143.076 166.996C143.332 167.092 143.688 167.204 144.144 167.332C144.696 167.484 145.14 167.636 145.476 167.788C145.812 167.932 146.1 168.16 146.34 168.472C146.58 168.776 146.7 169.192 146.7 169.72C146.7 170.128 146.592 170.512 146.376 170.872C146.16 171.232 145.84 171.524 145.416 171.748C144.992 171.972 144.492 172.084 143.916 172.084ZM151.175 172.108C150.559 172.108 149.999 171.968 149.495 171.688C148.999 171.408 148.607 171.012 148.319 170.5C148.039 169.98 147.899 169.38 147.899 168.7C147.899 168.028 148.043 167.436 148.331 166.924C148.627 166.404 149.027 166.008 149.531 165.736C150.035 165.456 150.599 165.316 151.223 165.316C151.847 165.316 152.411 165.456 152.915 165.736C153.419 166.008 153.815 166.4 154.103 166.912C154.399 167.424 154.547 168.02 154.547 168.7C154.547 169.38 154.395 169.98 154.091 170.5C153.795 171.012 153.391 171.408 152.879 171.688C152.367 171.968 151.799 172.108 151.175 172.108ZM151.175 171.148C151.567 171.148 151.935 171.056 152.279 170.872C152.623 170.688 152.899 170.412 153.107 170.044C153.323 169.676 153.431 169.228 153.431 168.7C153.431 168.172 153.327 167.724 153.119 167.356C152.911 166.988 152.639 166.716 152.303 166.54C151.967 166.356 151.603 166.264 151.211 166.264C150.811 166.264 150.443 166.356 150.107 166.54C149.779 166.716 149.515 166.988 149.315 167.356C149.115 167.724 149.015 168.172 149.015 168.7C149.015 169.236 149.111 169.688 149.303 170.056C149.503 170.424 149.767 170.7 150.095 170.884C150.423 171.06 150.783 171.148 151.175 171.148ZM157.075 163.12V172H155.983V163.12H157.075ZM164.768 165.424V172H163.676V171.028C163.468 171.364 163.176 171.628 162.8 171.82C162.432 172.004 162.024 172.096 161.576 172.096C161.064 172.096 160.604 171.992 160.196 171.784C159.788 171.568 159.464 171.248 159.224 170.824C158.992 170.4 158.876 169.884 158.876 169.276V165.424H159.956V169.132C159.956 169.78 160.12 170.28 160.448 170.632C160.776 170.976 161.224 171.148 161.792 171.148C162.376 171.148 162.836 170.968 163.172 170.608C163.508 170.248 163.676 169.724 163.676 169.036V165.424H164.768ZM167.944 166.324V170.2C167.944 170.52 168.012 170.748 168.148 170.884C168.284 171.012 168.52 171.076 168.855 171.076H169.66V172H168.676C168.068 172 167.612 171.86 167.308 171.58C167.004 171.3 166.852 170.84 166.852 170.2V166.324H166V165.424H166.852V163.768H167.944V165.424H169.66V166.324H167.944ZM171.547 164.356C171.339 164.356 171.163 164.284 171.019 164.14C170.875 163.996 170.803 163.82 170.803 163.612C170.803 163.404 170.875 163.228 171.019 163.084C171.163 162.94 171.339 162.868 171.547 162.868C171.747 162.868 171.915 162.94 172.051 163.084C172.195 163.228 172.267 163.404 172.267 163.612C172.267 163.82 172.195 163.996 172.051 164.14C171.915 164.284 171.747 164.356 171.547 164.356ZM172.075 165.424V172H170.983V165.424H172.075ZM176.804 172.108C176.188 172.108 175.628 171.968 175.124 171.688C174.628 171.408 174.236 171.012 173.948 170.5C173.668 169.98 173.528 169.38 173.528 168.7C173.528 168.028 173.672 167.436 173.96 166.924C174.256 166.404 174.656 166.008 175.16 165.736C175.664 165.456 176.228 165.316 176.852 165.316C177.476 165.316 178.04 165.456 178.544 165.736C179.048 166.008 179.444 166.4 179.732 166.912C180.028 167.424 180.176 168.02 180.176 168.7C180.176 169.38 180.024 169.98 179.72 170.5C179.424 171.012 179.02 171.408 178.508 171.688C177.996 171.968 177.428 172.108 176.804 172.108ZM176.804 171.148C177.196 171.148 177.564 171.056 177.908 170.872C178.252 170.688 178.528 170.412 178.736 170.044C178.952 169.676 179.06 169.228 179.06 168.7C179.06 168.172 178.956 167.724 178.748 167.356C178.54 166.988 178.268 166.716 177.932 166.54C177.596 166.356 177.232 166.264 176.84 166.264C176.44 166.264 176.072 166.356 175.736 166.54C175.408 166.716 175.144 166.988 174.944 167.356C174.744 167.724 174.644 168.172 174.644 168.7C174.644 169.236 174.74 169.688 174.932 170.056C175.132 170.424 175.396 170.7 175.724 170.884C176.052 171.06 176.412 171.148 176.804 171.148ZM184.816 165.304C185.616 165.304 186.264 165.548 186.76 166.036C187.256 166.516 187.504 167.212 187.504 168.124V172H186.424V168.28C186.424 167.624 186.26 167.124 185.932 166.78C185.604 166.428 185.156 166.252 184.588 166.252C184.012 166.252 183.552 166.432 183.208 166.792C182.872 167.152 182.704 167.676 182.704 168.364V172H181.612V165.424H182.704V166.36C182.92 166.024 183.212 165.764 183.58 165.58C183.956 165.396 184.368 165.304 184.816 165.304ZM195.163 166.324H193.783V172H192.691V166.324H191.839V165.424H192.691V164.956C192.691 164.22 192.879 163.684 193.255 163.348C193.639 163.004 194.251 162.832 195.09 162.832V163.744C194.611 163.744 194.271 163.84 194.071 164.032C193.879 164.216 193.783 164.524 193.783 164.956V165.424H195.163V166.324ZM199.304 172.108C198.688 172.108 198.128 171.968 197.624 171.688C197.128 171.408 196.736 171.012 196.448 170.5C196.168 169.98 196.028 169.38 196.028 168.7C196.028 168.028 196.172 167.436 196.46 166.924C196.756 166.404 197.156 166.008 197.66 165.736C198.164 165.456 198.728 165.316 199.352 165.316C199.976 165.316 200.54 165.456 201.044 165.736C201.548 166.008 201.944 166.4 202.232 166.912C202.528 167.424 202.676 168.02 202.676 168.7C202.676 169.38 202.524 169.98 202.22 170.5C201.924 171.012 201.52 171.408 201.008 171.688C200.496 171.968 199.928 172.108 199.304 172.108ZM199.304 171.148C199.696 171.148 200.064 171.056 200.408 170.872C200.752 170.688 201.028 170.412 201.236 170.044C201.452 169.676 201.56 169.228 201.56 168.7C201.56 168.172 201.456 167.724 201.248 167.356C201.04 166.988 200.768 166.716 200.432 166.54C200.096 166.356 199.732 166.264 199.34 166.264C198.94 166.264 198.572 166.356 198.236 166.54C197.908 166.716 197.644 166.988 197.444 167.356C197.244 167.724 197.144 168.172 197.144 168.7C197.144 169.236 197.24 169.688 197.432 170.056C197.632 170.424 197.896 170.7 198.224 170.884C198.552 171.06 198.912 171.148 199.304 171.148ZM205.204 166.492C205.396 166.116 205.668 165.824 206.02 165.616C206.38 165.408 206.816 165.304 207.328 165.304V166.432H207.04C205.816 166.432 205.204 167.096 205.204 168.424V172H204.112V165.424H205.204V166.492ZM5.43397 186.812C5.43397 185.996 5.61797 185.264 5.98597 184.616C6.35397 183.96 6.85397 183.448 7.48597 183.08C8.12597 182.712 8.83397 182.528 9.60997 182.528C10.522 182.528 11.318 182.748 11.998 183.188C12.678 183.628 13.174 184.252 13.486 185.06H12.178C11.946 184.556 11.61 184.168 11.17 183.896C10.738 183.624 10.218 183.488 9.60997 183.488C9.02597 183.488 8.50197 183.624 8.03797 183.896C7.57397 184.168 7.20997 184.556 6.94597 185.06C6.68197 185.556 6.54997 186.14 6.54997 186.812C6.54997 187.476 6.68197 188.06 6.94597 188.564C7.20997 189.06 7.57397 189.444 8.03797 189.716C8.50197 189.988 9.02597 190.124 9.60997 190.124C10.218 190.124 10.738 189.992 11.17 189.728C11.61 189.456 11.946 189.068 12.178 188.564H13.486C13.174 189.364 12.678 189.984 11.998 190.424C11.318 190.856 10.522 191.072 9.60997 191.072C8.83397 191.072 8.12597 190.892 7.48597 190.532C6.85397 190.164 6.35397 189.656 5.98597 189.008C5.61797 188.36 5.43397 187.628 5.43397 186.812ZM17.9795 191.108C17.3635 191.108 16.8035 190.968 16.2995 190.688C15.8035 190.408 15.4115 190.012 15.1235 189.5C14.8435 188.98 14.7035 188.38 14.7035 187.7C14.7035 187.028 14.8475 186.436 15.1355 185.924C15.4315 185.404 15.8315 185.008 16.3355 184.736C16.8395 184.456 17.4035 184.316 18.0275 184.316C18.6515 184.316 19.2155 184.456 19.7195 184.736C20.2235 185.008 20.6195 185.4 20.9075 185.912C21.2035 186.424 21.3515 187.02 21.3515 187.7C21.3515 188.38 21.1995 188.98 20.8955 189.5C20.5995 190.012 20.1955 190.408 19.6835 190.688C19.1715 190.968 18.6035 191.108 17.9795 191.108ZM17.9795 190.148C18.3715 190.148 18.7395 190.056 19.0835 189.872C19.4275 189.688 19.7035 189.412 19.9115 189.044C20.1275 188.676 20.2355 188.228 20.2355 187.7C20.2355 187.172 20.1315 186.724 19.9235 186.356C19.7155 185.988 19.4435 185.716 19.1075 185.54C18.7715 185.356 18.4075 185.264 18.0155 185.264C17.6155 185.264 17.2475 185.356 16.9115 185.54C16.5835 185.716 16.3195 185.988 16.1195 186.356C15.9195 186.724 15.8195 187.172 15.8195 187.7C15.8195 188.236 15.9155 188.688 16.1075 189.056C16.3075 189.424 16.5715 189.7 16.8995 189.884C17.2275 190.06 17.5875 190.148 17.9795 190.148ZM30.6953 184.304C31.2073 184.304 31.6633 184.412 32.0633 184.628C32.4633 184.836 32.7793 185.152 33.0113 185.576C33.2433 186 33.3593 186.516 33.3593 187.124V191H32.2793V187.28C32.2793 186.624 32.1153 186.124 31.7873 185.78C31.4673 185.428 31.0313 185.252 30.4793 185.252C29.9113 185.252 29.4593 185.436 29.1233 185.804C28.7873 186.164 28.6193 186.688 28.6193 187.376V191H27.5393V187.28C27.5393 186.624 27.3753 186.124 27.0473 185.78C26.7273 185.428 26.2913 185.252 25.7393 185.252C25.1713 185.252 24.7193 185.436 24.3833 185.804C24.0473 186.164 23.8793 186.688 23.8793 187.376V191H22.7873V184.424H23.8793V185.372C24.0953 185.028 24.3833 184.764 24.7433 184.58C25.1113 184.396 25.5153 184.304 25.9553 184.304C26.5073 184.304 26.9953 184.428 27.4193 184.676C27.8433 184.924 28.1593 185.288 28.3673 185.768C28.5513 185.304 28.8553 184.944 29.2793 184.688C29.7033 184.432 30.1753 184.304 30.6953 184.304ZM43.0586 184.304C43.5706 184.304 44.0266 184.412 44.4266 184.628C44.8266 184.836 45.1426 185.152 45.3746 185.576C45.6066 186 45.7226 186.516 45.7226 187.124V191H44.6426V187.28C44.6426 186.624 44.4786 186.124 44.1506 185.78C43.8306 185.428 43.3946 185.252 42.8426 185.252C42.2746 185.252 41.8226 185.436 41.4866 185.804C41.1506 186.164 40.9826 186.688 40.9826 187.376V191H39.9026V187.28C39.9026 186.624 39.7386 186.124 39.4106 185.78C39.0906 185.428 38.6546 185.252 38.1026 185.252C37.5346 185.252 37.0826 185.436 36.7466 185.804C36.4106 186.164 36.2426 186.688 36.2426 187.376V191H35.1506V184.424H36.2426V185.372C36.4586 185.028 36.7466 184.764 37.1066 184.58C37.4746 184.396 37.8786 184.304 38.3186 184.304C38.8706 184.304 39.3586 184.428 39.7826 184.676C40.2066 184.924 40.5226 185.288 40.7306 185.768C40.9146 185.304 41.2186 184.944 41.6426 184.688C42.0666 184.432 42.5386 184.304 43.0586 184.304ZM53.3458 184.424V191H52.2538V190.028C52.0458 190.364 51.7538 190.628 51.3778 190.82C51.0098 191.004 50.6018 191.096 50.1538 191.096C49.6418 191.096 49.1818 190.992 48.7738 190.784C48.3658 190.568 48.0418 190.248 47.8018 189.824C47.5698 189.4 47.4538 188.884 47.4538 188.276V184.424H48.5338V188.132C48.5338 188.78 48.6978 189.28 49.0258 189.632C49.3538 189.976 49.8018 190.148 50.3698 190.148C50.9538 190.148 51.4138 189.968 51.7498 189.608C52.0858 189.248 52.2538 188.724 52.2538 188.036V184.424H53.3458ZM58.3936 184.304C59.1936 184.304 59.8416 184.548 60.3376 185.036C60.8336 185.516 61.0816 186.212 61.0816 187.124V191H60.0016V187.28C60.0016 186.624 59.8376 186.124 59.5096 185.78C59.1816 185.428 58.7336 185.252 58.1656 185.252C57.5896 185.252 57.1296 185.432 56.7856 185.792C56.4496 186.152 56.2816 186.676 56.2816 187.364V191H55.1896V184.424H56.2816V185.36C56.4976 185.024 56.7896 184.764 57.1576 184.58C57.5336 184.396 57.9456 184.304 58.3936 184.304ZM63.4294 183.356C63.2214 183.356 63.0454 183.284 62.9014 183.14C62.7574 182.996 62.6854 182.82 62.6854 182.612C62.6854 182.404 62.7574 182.228 62.9014 182.084C63.0454 181.94 63.2214 181.868 63.4294 181.868C63.6294 181.868 63.7974 181.94 63.9334 182.084C64.0774 182.228 64.1494 182.404 64.1494 182.612C64.1494 182.82 64.0774 182.996 63.9334 183.14C63.7974 183.284 63.6294 183.356 63.4294 183.356ZM63.9574 184.424V191H62.8654V184.424H63.9574ZM67.1505 185.324V189.2C67.1505 189.52 67.2185 189.748 67.3545 189.884C67.4905 190.012 67.7265 190.076 68.0625 190.076H68.8665V191H67.8825C67.2745 191 66.8185 190.86 66.5145 190.58C66.2105 190.3 66.0585 189.84 66.0585 189.2V185.324H65.2065V184.424H66.0585V182.768H67.1505V184.424H68.8665V185.324H67.1505ZM75.8536 184.424L71.8936 194.096H70.7656L72.0616 190.928L69.4096 184.424H70.6216L72.6856 189.752L74.7256 184.424H75.8536ZM81.5113 186.14V187.064H76.7233V186.14H81.5113ZM87.7487 186.692C88.0527 186.74 88.3287 186.864 88.5767 187.064C88.8327 187.264 89.0327 187.512 89.1767 187.808C89.3287 188.104 89.4047 188.42 89.4047 188.756C89.4047 189.18 89.2967 189.564 89.0807 189.908C88.8647 190.244 88.5487 190.512 88.1327 190.712C87.7247 190.904 87.2407 191 86.6807 191H83.5607V182.636H86.5607C87.1287 182.636 87.6127 182.732 88.0127 182.924C88.4127 183.108 88.7127 183.36 88.9127 183.68C89.1127 184 89.2127 184.36 89.2127 184.76C89.2127 185.256 89.0767 185.668 88.8047 185.996C88.5407 186.316 88.1887 186.548 87.7487 186.692ZM84.6527 186.248H86.4887C87.0007 186.248 87.3967 186.128 87.6767 185.888C87.9567 185.648 88.0967 185.316 88.0967 184.892C88.0967 184.468 87.9567 184.136 87.6767 183.896C87.3967 183.656 86.9927 183.536 86.4647 183.536H84.6527V186.248ZM86.5847 190.1C87.1287 190.1 87.5527 189.972 87.8567 189.716C88.1607 189.46 88.3127 189.104 88.3127 188.648C88.3127 188.184 88.1527 187.82 87.8327 187.556C87.5127 187.284 87.0847 187.148 86.5487 187.148H84.6527V190.1H86.5847ZM90.5121 187.688C90.5121 187.016 90.6481 186.428 90.9201 185.924C91.1921 185.412 91.5641 185.016 92.0361 184.736C92.5161 184.456 93.0481 184.316 93.6321 184.316C94.2081 184.316 94.7081 184.44 95.1321 184.688C95.5561 184.936 95.8721 185.248 96.0801 185.624V184.424H97.1841V191H96.0801V189.776C95.8641 190.16 95.5401 190.48 95.1081 190.736C94.6841 190.984 94.1881 191.108 93.6201 191.108C93.0361 191.108 92.5081 190.964 92.0361 190.676C91.5641 190.388 91.1921 189.984 90.9201 189.464C90.6481 188.944 90.5121 188.352 90.5121 187.688ZM96.0801 187.7C96.0801 187.204 95.9801 186.772 95.7801 186.404C95.5801 186.036 95.3081 185.756 94.9641 185.564C94.6281 185.364 94.2561 185.264 93.8481 185.264C93.4401 185.264 93.0681 185.36 92.7321 185.552C92.3961 185.744 92.1281 186.024 91.9281 186.392C91.7281 186.76 91.6281 187.192 91.6281 187.688C91.6281 188.192 91.7281 188.632 91.9281 189.008C92.1281 189.376 92.3961 189.66 92.7321 189.86C93.0681 190.052 93.4401 190.148 93.8481 190.148C94.2561 190.148 94.6281 190.052 94.9641 189.86C95.3081 189.66 95.5801 189.376 95.7801 189.008C95.9801 188.632 96.0801 188.196 96.0801 187.7ZM101.357 191.108C100.853 191.108 100.401 191.024 100.001 190.856C99.6015 190.68 99.2855 190.44 99.0535 190.136C98.8215 189.824 98.6935 189.468 98.6695 189.068H99.7975C99.8295 189.396 99.9815 189.664 100.253 189.872C100.533 190.08 100.897 190.184 101.345 190.184C101.761 190.184 102.089 190.092 102.329 189.908C102.569 189.724 102.689 189.492 102.689 189.212C102.689 188.924 102.561 188.712 102.305 188.576C102.049 188.432 101.653 188.292 101.117 188.156C100.629 188.028 100.229 187.9 99.9175 187.772C99.6135 187.636 99.3495 187.44 99.1255 187.184C98.9095 186.92 98.8015 186.576 98.8015 186.152C98.8015 185.816 98.9015 185.508 99.1015 185.228C99.3015 184.948 99.5855 184.728 99.9535 184.568C100.321 184.4 100.741 184.316 101.213 184.316C101.941 184.316 102.529 184.5 102.977 184.868C103.425 185.236 103.665 185.74 103.697 186.38H102.605C102.581 186.036 102.441 185.76 102.185 185.552C101.937 185.344 101.601 185.24 101.177 185.24C100.785 185.24 100.473 185.324 100.241 185.492C100.009 185.66 99.8935 185.88 99.8935 186.152C99.8935 186.368 99.9615 186.548 100.097 186.692C100.241 186.828 100.417 186.94 100.625 187.028C100.841 187.108 101.137 187.2 101.513 187.304C101.985 187.432 102.369 187.56 102.665 187.688C102.961 187.808 103.213 187.992 103.421 188.24C103.637 188.488 103.749 188.812 103.757 189.212C103.757 189.572 103.657 189.896 103.457 190.184C103.257 190.472 102.973 190.7 102.605 190.868C102.245 191.028 101.829 191.108 101.357 191.108ZM111.299 187.46C111.299 187.668 111.287 187.888 111.263 188.12H106.007C106.047 188.768 106.267 189.276 106.667 189.644C107.075 190.004 107.567 190.184 108.143 190.184C108.615 190.184 109.007 190.076 109.319 189.86C109.639 189.636 109.863 189.34 109.991 188.972H111.167C110.991 189.604 110.639 190.12 110.111 190.52C109.583 190.912 108.927 191.108 108.143 191.108C107.519 191.108 106.959 190.968 106.463 190.688C105.975 190.408 105.591 190.012 105.311 189.5C105.031 188.98 104.891 188.38 104.891 187.7C104.891 187.02 105.027 186.424 105.299 185.912C105.571 185.4 105.951 185.008 106.439 184.736C106.935 184.456 107.503 184.316 108.143 184.316C108.767 184.316 109.319 184.452 109.799 184.724C110.279 184.996 110.647 185.372 110.903 185.852C111.167 186.324 111.299 186.86 111.299 187.46ZM110.171 187.232C110.171 186.816 110.079 186.46 109.895 186.164C109.711 185.86 109.459 185.632 109.139 185.48C108.827 185.32 108.479 185.24 108.095 185.24C107.543 185.24 107.071 185.416 106.679 185.768C106.295 186.12 106.075 186.608 106.019 187.232H110.171ZM112.332 187.688C112.332 187.016 112.468 186.428 112.74 185.924C113.012 185.412 113.384 185.016 113.856 184.736C114.336 184.456 114.872 184.316 115.464 184.316C115.976 184.316 116.452 184.436 116.892 184.676C117.332 184.908 117.668 185.216 117.9 185.6V182.12H119.004V191H117.9V189.764C117.684 190.156 117.364 190.48 116.94 190.736C116.516 190.984 116.02 191.108 115.452 191.108C114.868 191.108 114.336 190.964 113.856 190.676C113.384 190.388 113.012 189.984 112.74 189.464C112.468 188.944 112.332 188.352 112.332 187.688ZM117.9 187.7C117.9 187.204 117.8 186.772 117.6 186.404C117.4 186.036 117.128 185.756 116.784 185.564C116.448 185.364 116.076 185.264 115.668 185.264C115.26 185.264 114.888 185.36 114.552 185.552C114.216 185.744 113.948 186.024 113.748 186.392C113.548 186.76 113.448 187.192 113.448 187.688C113.448 188.192 113.548 188.632 113.748 189.008C113.948 189.376 114.216 189.66 114.552 189.86C114.888 190.052 115.26 190.148 115.668 190.148C116.076 190.148 116.448 190.052 116.784 189.86C117.128 189.66 117.4 189.376 117.6 189.008C117.8 188.632 117.9 188.196 117.9 187.7ZM126.701 191.084C126.149 191.084 125.653 190.988 125.213 190.796C124.781 190.596 124.441 190.324 124.193 189.98C123.945 189.628 123.817 189.224 123.809 188.768H124.973C125.013 189.16 125.173 189.492 125.453 189.764C125.741 190.028 126.157 190.16 126.701 190.16C127.221 190.16 127.629 190.032 127.925 189.776C128.229 189.512 128.381 189.176 128.381 188.768C128.381 188.448 128.293 188.188 128.117 187.988C127.941 187.788 127.721 187.636 127.457 187.532C127.193 187.428 126.837 187.316 126.389 187.196C125.837 187.052 125.393 186.908 125.057 186.764C124.729 186.62 124.445 186.396 124.205 186.092C123.973 185.78 123.857 185.364 123.857 184.844C123.857 184.388 123.973 183.984 124.205 183.632C124.437 183.28 124.761 183.008 125.177 182.816C125.601 182.624 126.085 182.528 126.629 182.528C127.413 182.528 128.053 182.724 128.549 183.116C129.053 183.508 129.337 184.028 129.401 184.676H128.201C128.161 184.356 127.993 184.076 127.697 183.836C127.401 183.588 127.009 183.464 126.521 183.464C126.065 183.464 125.693 183.584 125.405 183.824C125.117 184.056 124.973 184.384 124.973 184.808C124.973 185.112 125.057 185.36 125.225 185.552C125.401 185.744 125.613 185.892 125.861 185.996C126.117 186.092 126.473 186.204 126.929 186.332C127.481 186.484 127.925 186.636 128.261 186.788C128.597 186.932 128.885 187.16 129.125 187.472C129.365 187.776 129.485 188.192 129.485 188.72C129.485 189.128 129.377 189.512 129.161 189.872C128.945 190.232 128.625 190.524 128.201 190.748C127.777 190.972 127.277 191.084 126.701 191.084ZM137.092 187.46C137.092 187.668 137.08 187.888 137.056 188.12H131.8C131.84 188.768 132.06 189.276 132.46 189.644C132.868 190.004 133.36 190.184 133.936 190.184C134.408 190.184 134.8 190.076 135.112 189.86C135.432 189.636 135.656 189.34 135.784 188.972H136.96C136.784 189.604 136.432 190.12 135.904 190.52C135.376 190.912 134.72 191.108 133.936 191.108C133.312 191.108 132.752 190.968 132.256 190.688C131.768 190.408 131.384 190.012 131.104 189.5C130.824 188.98 130.684 188.38 130.684 187.7C130.684 187.02 130.82 186.424 131.092 185.912C131.364 185.4 131.744 185.008 132.232 184.736C132.728 184.456 133.296 184.316 133.936 184.316C134.56 184.316 135.112 184.452 135.592 184.724C136.072 184.996 136.44 185.372 136.696 185.852C136.96 186.324 137.092 186.86 137.092 187.46ZM135.964 187.232C135.964 186.816 135.872 186.46 135.688 186.164C135.504 185.86 135.252 185.632 134.932 185.48C134.62 185.32 134.272 185.24 133.888 185.24C133.336 185.24 132.864 185.416 132.472 185.768C132.088 186.12 131.868 186.608 131.812 187.232H135.964ZM139.625 182.12V191H138.533V182.12H139.625ZM142.579 182.12V191H141.487V182.12H142.579ZM145.004 183.356C144.796 183.356 144.62 183.284 144.476 183.14C144.332 182.996 144.26 182.82 144.26 182.612C144.26 182.404 144.332 182.228 144.476 182.084C144.62 181.94 144.796 181.868 145.004 181.868C145.204 181.868 145.372 181.94 145.508 182.084C145.652 182.228 145.724 182.404 145.724 182.612C145.724 182.82 145.652 182.996 145.508 183.14C145.372 183.284 145.204 183.356 145.004 183.356ZM145.532 184.424V191H144.44V184.424H145.532ZM150.597 184.304C151.397 184.304 152.045 184.548 152.541 185.036C153.037 185.516 153.285 186.212 153.285 187.124V191H152.205V187.28C152.205 186.624 152.041 186.124 151.713 185.78C151.385 185.428 150.937 185.252 150.369 185.252C149.793 185.252 149.333 185.432 148.989 185.792C148.653 186.152 148.485 186.676 148.485 187.364V191H147.393V184.424H148.485V185.36C148.701 185.024 148.993 184.764 149.361 184.58C149.737 184.396 150.149 184.304 150.597 184.304ZM157.781 184.316C158.349 184.316 158.845 184.44 159.269 184.688C159.701 184.936 160.021 185.248 160.229 185.624V184.424H161.333V191.144C161.333 191.744 161.205 192.276 160.949 192.74C160.693 193.212 160.325 193.58 159.845 193.844C159.373 194.108 158.821 194.24 158.189 194.24C157.325 194.24 156.605 194.036 156.029 193.628C155.453 193.22 155.113 192.664 155.009 191.96H156.089C156.209 192.36 156.457 192.68 156.833 192.92C157.209 193.168 157.661 193.292 158.189 193.292C158.789 193.292 159.277 193.104 159.653 192.728C160.037 192.352 160.229 191.824 160.229 191.144V189.764C160.013 190.148 159.693 190.468 159.269 190.724C158.845 190.98 158.349 191.108 157.781 191.108C157.197 191.108 156.665 190.964 156.185 190.676C155.713 190.388 155.341 189.984 155.069 189.464C154.797 188.944 154.661 188.352 154.661 187.688C154.661 187.016 154.797 186.428 155.069 185.924C155.341 185.412 155.713 185.016 156.185 184.736C156.665 184.456 157.197 184.316 157.781 184.316ZM160.229 187.7C160.229 187.204 160.129 186.772 159.929 186.404C159.729 186.036 159.457 185.756 159.113 185.564C158.777 185.364 158.405 185.264 157.997 185.264C157.589 185.264 157.217 185.36 156.881 185.552C156.545 185.744 156.277 186.024 156.077 186.392C155.877 186.76 155.777 187.192 155.777 187.688C155.777 188.192 155.877 188.632 156.077 189.008C156.277 189.376 156.545 189.66 156.881 189.86C157.217 190.052 157.589 190.148 157.997 190.148C158.405 190.148 158.777 190.052 159.113 189.86C159.457 189.66 159.729 189.376 159.929 189.008C160.129 188.632 160.229 188.196 160.229 187.7ZM165.969 187.688C165.969 187.016 166.105 186.428 166.377 185.924C166.649 185.412 167.021 185.016 167.493 184.736C167.973 184.456 168.505 184.316 169.089 184.316C169.665 184.316 170.165 184.44 170.589 184.688C171.013 184.936 171.329 185.248 171.537 185.624V184.424H172.641V191H171.537V189.776C171.321 190.16 170.997 190.48 170.565 190.736C170.141 190.984 169.645 191.108 169.077 191.108C168.493 191.108 167.965 190.964 167.493 190.676C167.021 190.388 166.649 189.984 166.377 189.464C166.105 188.944 165.969 188.352 165.969 187.688ZM171.537 187.7C171.537 187.204 171.437 186.772 171.237 186.404C171.037 186.036 170.765 185.756 170.421 185.564C170.085 185.364 169.713 185.264 169.305 185.264C168.897 185.264 168.525 185.36 168.189 185.552C167.853 185.744 167.585 186.024 167.385 186.392C167.185 186.76 167.085 187.192 167.085 187.688C167.085 188.192 167.185 188.632 167.385 189.008C167.585 189.376 167.853 189.66 168.189 189.86C168.525 190.052 168.897 190.148 169.305 190.148C169.713 190.148 170.085 190.052 170.421 189.86C170.765 189.66 171.037 189.376 171.237 189.008C171.437 188.632 171.537 188.196 171.537 187.7ZM177.691 184.304C178.491 184.304 179.139 184.548 179.635 185.036C180.131 185.516 180.379 186.212 180.379 187.124V191H179.299V187.28C179.299 186.624 179.135 186.124 178.807 185.78C178.479 185.428 178.031 185.252 177.463 185.252C176.887 185.252 176.427 185.432 176.083 185.792C175.747 186.152 175.579 186.676 175.579 187.364V191H174.487V184.424H175.579V185.36C175.795 185.024 176.087 184.764 176.455 184.58C176.831 184.396 177.243 184.304 177.691 184.304ZM181.754 187.688C181.754 187.016 181.89 186.428 182.162 185.924C182.434 185.412 182.806 185.016 183.278 184.736C183.758 184.456 184.294 184.316 184.886 184.316C185.398 184.316 185.874 184.436 186.314 184.676C186.754 184.908 187.09 185.216 187.322 185.6V182.12H188.426V191H187.322V189.764C187.106 190.156 186.786 190.48 186.362 190.736C185.938 190.984 185.442 191.108 184.874 191.108C184.29 191.108 183.758 190.964 183.278 190.676C182.806 190.388 182.434 189.984 182.162 189.464C181.89 188.944 181.754 188.352 181.754 187.688ZM187.322 187.7C187.322 187.204 187.222 186.772 187.022 186.404C186.822 186.036 186.55 185.756 186.206 185.564C185.87 185.364 185.498 185.264 185.09 185.264C184.682 185.264 184.31 185.36 183.974 185.552C183.638 185.744 183.37 186.024 183.17 186.392C182.97 186.76 182.87 187.192 182.87 187.688C182.87 188.192 182.97 188.632 183.17 189.008C183.37 189.376 183.638 189.66 183.974 189.86C184.31 190.052 184.682 190.148 185.09 190.148C185.498 190.148 185.87 190.052 186.206 189.86C186.55 189.66 186.822 189.376 187.022 189.008C187.222 188.632 187.322 188.196 187.322 187.7ZM197.659 186.692C197.963 186.74 198.239 186.864 198.487 187.064C198.743 187.264 198.943 187.512 199.087 187.808C199.239 188.104 199.315 188.42 199.315 188.756C199.315 189.18 199.207 189.564 198.991 189.908C198.775 190.244 198.459 190.512 198.043 190.712C197.635 190.904 197.151 191 196.591 191H193.471V182.636H196.471C197.039 182.636 197.523 182.732 197.923 182.924C198.323 183.108 198.623 183.36 198.823 183.68C199.023 184 199.123 184.36 199.123 184.76C199.123 185.256 198.987 185.668 198.715 185.996C198.451 186.316 198.099 186.548 197.659 186.692ZM194.563 186.248H196.399C196.911 186.248 197.307 186.128 197.587 185.888C197.867 185.648 198.007 185.316 198.007 184.892C198.007 184.468 197.867 184.136 197.587 183.896C197.307 183.656 196.903 183.536 196.375 183.536H194.563V186.248ZM196.495 190.1C197.039 190.1 197.463 189.972 197.767 189.716C198.071 189.46 198.223 189.104 198.223 188.648C198.223 188.184 198.063 187.82 197.743 187.556C197.423 187.284 196.995 187.148 196.459 187.148H194.563V190.1H196.495ZM206.662 184.424V191H205.57V190.028C205.362 190.364 205.07 190.628 204.694 190.82C204.326 191.004 203.918 191.096 203.47 191.096C202.958 191.096 202.498 190.992 202.09 190.784C201.682 190.568 201.358 190.248 201.118 189.824C200.886 189.4 200.77 188.884 200.77 188.276V184.424H201.85V188.132C201.85 188.78 202.014 189.28 202.342 189.632C202.67 189.976 203.118 190.148 203.686 190.148C204.27 190.148 204.73 189.968 205.066 189.608C205.402 189.248 205.57 188.724 205.57 188.036V184.424H206.662ZM214.17 184.424L210.21 194.096H209.082L210.378 190.928L207.726 184.424H208.938L211.002 189.752L213.042 184.424H214.17ZM215.832 183.356C215.624 183.356 215.448 183.284 215.304 183.14C215.16 182.996 215.088 182.82 215.088 182.612C215.088 182.404 215.16 182.228 215.304 182.084C215.448 181.94 215.624 181.868 215.832 181.868C216.032 181.868 216.2 181.94 216.336 182.084C216.48 182.228 216.552 182.404 216.552 182.612C216.552 182.82 216.48 182.996 216.336 183.14C216.2 183.284 216.032 183.356 215.832 183.356ZM216.36 184.424V191H215.268V184.424H216.36ZM221.425 184.304C222.225 184.304 222.873 184.548 223.369 185.036C223.865 185.516 224.113 186.212 224.113 187.124V191H223.033V187.28C223.033 186.624 222.869 186.124 222.541 185.78C222.213 185.428 221.765 185.252 221.197 185.252C220.621 185.252 220.161 185.432 219.817 185.792C219.481 186.152 219.313 186.676 219.313 187.364V191H218.221V184.424H219.313V185.36C219.529 185.024 219.821 184.764 220.189 184.58C220.565 184.396 220.977 184.304 221.425 184.304ZM228.609 184.316C229.177 184.316 229.673 184.44 230.097 184.688C230.529 184.936 230.849 185.248 231.057 185.624V184.424H232.161V191.144C232.161 191.744 232.033 192.276 231.777 192.74C231.521 193.212 231.153 193.58 230.673 193.844C230.201 194.108 229.649 194.24 229.017 194.24C228.153 194.24 227.433 194.036 226.857 193.628C226.281 193.22 225.941 192.664 225.837 191.96H226.917C227.037 192.36 227.285 192.68 227.661 192.92C228.037 193.168 228.489 193.292 229.017 193.292C229.617 193.292 230.105 193.104 230.481 192.728C230.865 192.352 231.057 191.824 231.057 191.144V189.764C230.841 190.148 230.521 190.468 230.097 190.724C229.673 190.98 229.177 191.108 228.609 191.108C228.025 191.108 227.493 190.964 227.013 190.676C226.541 190.388 226.169 189.984 225.897 189.464C225.625 188.944 225.489 188.352 225.489 187.688C225.489 187.016 225.625 186.428 225.897 185.924C226.169 185.412 226.541 185.016 227.013 184.736C227.493 184.456 228.025 184.316 228.609 184.316ZM231.057 187.7C231.057 187.204 230.957 186.772 230.757 186.404C230.557 186.036 230.285 185.756 229.941 185.564C229.605 185.364 229.233 185.264 228.825 185.264C228.417 185.264 228.045 185.36 227.709 185.552C227.373 185.744 227.105 186.024 226.905 186.392C226.705 186.76 226.605 187.192 226.605 187.688C226.605 188.192 226.705 188.632 226.905 189.008C227.105 189.376 227.373 189.66 227.709 189.86C228.045 190.052 228.417 190.148 228.825 190.148C229.233 190.148 229.605 190.052 229.941 189.86C230.285 189.66 230.557 189.376 230.757 189.008C230.957 188.632 231.057 188.196 231.057 187.7ZM88.9717 210.108C88.3557 210.108 87.7957 209.968 87.2917 209.688C86.7957 209.408 86.4037 209.012 86.1157 208.5C85.8357 207.98 85.6957 207.38 85.6957 206.7C85.6957 206.028 85.8397 205.436 86.1277 204.924C86.4237 204.404 86.8237 204.008 87.3277 203.736C87.8317 203.456 88.3957 203.316 89.0197 203.316C89.6437 203.316 90.2077 203.456 90.7117 203.736C91.2157 204.008 91.6117 204.4 91.8997 204.912C92.1957 205.424 92.3437 206.02 92.3437 206.7C92.3437 207.38 92.1917 207.98 91.8877 208.5C91.5917 209.012 91.1877 209.408 90.6757 209.688C90.1637 209.968 89.5957 210.108 88.9717 210.108ZM88.9717 209.148C89.3637 209.148 89.7317 209.056 90.0757 208.872C90.4197 208.688 90.6957 208.412 90.9037 208.044C91.1197 207.676 91.2277 207.228 91.2277 206.7C91.2277 206.172 91.1237 205.724 90.9157 205.356C90.7077 204.988 90.4357 204.716 90.0997 204.54C89.7637 204.356 89.3997 204.264 89.0077 204.264C88.6077 204.264 88.2397 204.356 87.9037 204.54C87.5757 204.716 87.3117 204.988 87.1117 205.356C86.9117 205.724 86.8117 206.172 86.8117 206.7C86.8117 207.236 86.9077 207.688 87.0997 208.056C87.2997 208.424 87.5637 208.7 87.8917 208.884C88.2197 209.06 88.5797 209.148 88.9717 209.148ZM96.4555 204.324H95.0755V210H93.9835V204.324H93.1315V203.424H93.9835V202.956C93.9835 202.22 94.1715 201.684 94.5475 201.348C94.9315 201.004 95.5435 200.832 96.3835 200.832V201.744C95.9035 201.744 95.5635 201.84 95.3635 202.032C95.1715 202.216 95.0755 202.524 95.0755 202.956V203.424H96.4555V204.324ZM106.52 204.084C106.52 204.78 106.28 205.36 105.8 205.824C105.328 206.28 104.604 206.508 103.628 206.508H102.02V210H100.928V201.636H103.628C104.572 201.636 105.288 201.864 105.776 202.32C106.272 202.776 106.52 203.364 106.52 204.084ZM103.628 205.608C104.236 205.608 104.684 205.476 104.972 205.212C105.26 204.948 105.404 204.572 105.404 204.084C105.404 203.052 104.812 202.536 103.628 202.536H102.02V205.608H103.628ZM108.969 204.492C109.161 204.116 109.433 203.824 109.785 203.616C110.145 203.408 110.581 203.304 111.093 203.304V204.432H110.805C109.581 204.432 108.969 205.096 108.969 206.424V210H107.877V203.424H108.969V204.492ZM115.222 210.108C114.606 210.108 114.046 209.968 113.542 209.688C113.046 209.408 112.654 209.012 112.366 208.5C112.086 207.98 111.946 207.38 111.946 206.7C111.946 206.028 112.09 205.436 112.378 204.924C112.674 204.404 113.074 204.008 113.578 203.736C114.082 203.456 114.646 203.316 115.27 203.316C115.894 203.316 116.458 203.456 116.962 203.736C117.466 204.008 117.862 204.4 118.15 204.912C118.446 205.424 118.594 206.02 118.594 206.7C118.594 207.38 118.442 207.98 118.138 208.5C117.842 209.012 117.438 209.408 116.926 209.688C116.414 209.968 115.846 210.108 115.222 210.108ZM115.222 209.148C115.614 209.148 115.982 209.056 116.326 208.872C116.67 208.688 116.946 208.412 117.154 208.044C117.37 207.676 117.478 207.228 117.478 206.7C117.478 206.172 117.374 205.724 117.166 205.356C116.958 204.988 116.686 204.716 116.35 204.54C116.014 204.356 115.65 204.264 115.258 204.264C114.858 204.264 114.49 204.356 114.154 204.54C113.826 204.716 113.562 204.988 113.362 205.356C113.162 205.724 113.062 206.172 113.062 206.7C113.062 207.236 113.158 207.688 113.35 208.056C113.55 208.424 113.814 208.7 114.142 208.884C114.47 209.06 114.83 209.148 115.222 209.148ZM119.621 206.688C119.621 206.016 119.757 205.428 120.029 204.924C120.301 204.412 120.673 204.016 121.145 203.736C121.625 203.456 122.161 203.316 122.753 203.316C123.265 203.316 123.741 203.436 124.181 203.676C124.621 203.908 124.957 204.216 125.189 204.6V201.12H126.293V210H125.189V208.764C124.973 209.156 124.653 209.48 124.229 209.736C123.805 209.984 123.309 210.108 122.741 210.108C122.157 210.108 121.625 209.964 121.145 209.676C120.673 209.388 120.301 208.984 120.029 208.464C119.757 207.944 119.621 207.352 119.621 206.688ZM125.189 206.7C125.189 206.204 125.089 205.772 124.889 205.404C124.689 205.036 124.417 204.756 124.073 204.564C123.737 204.364 123.365 204.264 122.957 204.264C122.549 204.264 122.177 204.36 121.841 204.552C121.505 204.744 121.237 205.024 121.037 205.392C120.837 205.76 120.737 206.192 120.737 206.688C120.737 207.192 120.837 207.632 121.037 208.008C121.237 208.376 121.505 208.66 121.841 208.86C122.177 209.052 122.549 209.148 122.957 209.148C123.365 209.148 123.737 209.052 124.073 208.86C124.417 208.66 124.689 208.376 124.889 208.008C125.089 207.632 125.189 207.196 125.189 206.7ZM133.971 203.424V210H132.879V209.028C132.671 209.364 132.379 209.628 132.003 209.82C131.635 210.004 131.227 210.096 130.779 210.096C130.267 210.096 129.807 209.992 129.399 209.784C128.991 209.568 128.667 209.248 128.427 208.824C128.195 208.4 128.079 207.884 128.079 207.276V203.424H129.159V207.132C129.159 207.78 129.323 208.28 129.651 208.632C129.979 208.976 130.427 209.148 130.995 209.148C131.579 209.148 132.039 208.968 132.375 208.608C132.711 208.248 132.879 207.724 132.879 207.036V203.424H133.971ZM135.407 206.7C135.407 206.02 135.543 205.428 135.815 204.924C136.087 204.412 136.463 204.016 136.943 203.736C137.431 203.456 137.987 203.316 138.611 203.316C139.419 203.316 140.083 203.512 140.603 203.904C141.131 204.296 141.479 204.84 141.647 205.536H140.471C140.359 205.136 140.139 204.82 139.811 204.588C139.491 204.356 139.091 204.24 138.611 204.24C137.987 204.24 137.483 204.456 137.099 204.888C136.715 205.312 136.523 205.916 136.523 206.7C136.523 207.492 136.715 208.104 137.099 208.536C137.483 208.968 137.987 209.184 138.611 209.184C139.091 209.184 139.491 209.072 139.811 208.848C140.131 208.624 140.351 208.304 140.471 207.888H141.647C141.471 208.56 141.119 209.1 140.591 209.508C140.063 209.908 139.403 210.108 138.611 210.108C137.987 210.108 137.431 209.968 136.943 209.688C136.463 209.408 136.087 209.012 135.815 208.5C135.543 207.988 135.407 207.388 135.407 206.7ZM144.436 204.324V208.2C144.436 208.52 144.504 208.748 144.64 208.884C144.776 209.012 145.012 209.076 145.348 209.076H146.152V210H145.168C144.56 210 144.104 209.86 143.8 209.58C143.496 209.3 143.344 208.84 143.344 208.2V204.324H142.492V203.424H143.344V201.768H144.436V203.424H146.152V204.324H144.436ZM149.803 210.108C149.299 210.108 148.847 210.024 148.447 209.856C148.047 209.68 147.731 209.44 147.499 209.136C147.267 208.824 147.139 208.468 147.115 208.068H148.243C148.275 208.396 148.427 208.664 148.699 208.872C148.979 209.08 149.343 209.184 149.791 209.184C150.207 209.184 150.535 209.092 150.775 208.908C151.015 208.724 151.135 208.492 151.135 208.212C151.135 207.924 151.007 207.712 150.751 207.576C150.495 207.432 150.099 207.292 149.563 207.156C149.075 207.028 148.675 206.9 148.363 206.772C148.059 206.636 147.795 206.44 147.571 206.184C147.355 205.92 147.247 205.576 147.247 205.152C147.247 204.816 147.347 204.508 147.547 204.228C147.747 203.948 148.031 203.728 148.399 203.568C148.767 203.4 149.187 203.316 149.659 203.316C150.387 203.316 150.975 203.5 151.423 203.868C151.871 204.236 152.111 204.74 152.143 205.38H151.051C151.027 205.036 150.887 204.76 150.631 204.552C150.383 204.344 150.047 204.24 149.623 204.24C149.231 204.24 148.919 204.324 148.687 204.492C148.455 204.66 148.339 204.88 148.339 205.152C148.339 205.368 148.407 205.548 148.543 205.692C148.687 205.828 148.863 205.94 149.071 206.028C149.287 206.108 149.583 206.2 149.959 206.304C150.431 206.432 150.815 206.56 151.111 206.688C151.407 206.808 151.659 206.992 151.867 207.24C152.083 207.488 152.195 207.812 152.203 208.212C152.203 208.572 152.103 208.896 151.903 209.184C151.703 209.472 151.419 209.7 151.051 209.868C150.691 210.028 150.275 210.108 149.803 210.108Z" fill="#666666"/>
</svg>
