<svg width="234" height="163" viewBox="0 0 234 163" fill="none" xmlns="http://www.w3.org/2000/svg">
<path d="M156.576 83.0446C156.497 82.9987 156.428 82.9362 156.375 82.8613C156.431 82.933 156.499 82.9949 156.576 83.0446ZM145.965 87.7544L143.131 86.971L145.051 83.9655C144.973 84.3187 144.948 84.6816 144.978 85.0421C145.002 85.3873 145.058 85.7294 145.147 86.0638C145.238 86.3983 145.361 86.7235 145.513 87.0351C145.635 87.2915 145.787 87.5329 145.965 87.7544Z" fill="black"/>
<path d="M168.841 67.3891L163.758 75.59L158.935 82.5815C158.935 82.5815 157.783 83.2871 156.955 83.1725L165.545 68.5666L158.048 66.6698L146.765 84.5378L149.81 85.564C149.604 86.5674 149.367 87.6349 149.129 88.6245L146.153 87.8044C146.212 87.4889 146.229 87.1669 146.203 86.8469C146.157 86.1538 145.975 85.4766 145.668 84.8539C145.511 84.5252 145.304 84.2225 145.056 83.9559V83.9513L157.646 64.2324L168.841 67.3891Z" fill="black"/>
<path d="M149.878 85.2393C149.86 85.3492 149.837 85.4546 149.814 85.5646H149.81C149.832 85.4546 149.855 85.3492 149.878 85.2393Z" fill="white"/>
<path d="M120.518 77.3384C119.173 75.7083 117.802 74.1002 116.347 72.5727C114.93 71.0211 113.365 69.6118 111.675 68.3647C109.891 67.2779 107.954 66.4674 105.928 65.9603C103.902 65.4063 101.845 64.9727 99.7676 64.6618C97.6902 64.3407 95.5967 64.1018 93.5024 63.9455L93.1134 63.9167C92.9949 63.9085 92.876 63.9113 92.7581 63.9251C92.5103 63.9353 92.2556 63.9858 92.0038 64.0177C91.4965 64.1071 90.9952 64.2278 90.5028 64.3792C89.5084 64.6794 88.5414 65.0643 87.6124 65.5296C83.8958 67.492 80.5633 70.1112 77.7757 73.2608C72.1258 79.5389 67.9585 87.035 64.5862 94.7538C62.9203 98.628 61.6497 102.661 60.7938 106.792C60.3941 108.851 60.1745 110.941 60.1376 113.039C60.1276 114.081 60.1852 115.123 60.31 116.158C60.432 117.17 60.6804 118.163 61.0493 119.114L60.8149 118.929C62.1888 119.197 63.6417 119.366 65.0623 119.558L69.3539 120.088L77.9452 121.12L95.1406 123.128L94.8555 123.273L99.981 114.387L105.15 105.526L105.148 105.56L105.062 105.332L105.128 105.306L105.222 105.531L105.229 105.548L105.219 105.565L100.31 114.574L95.3573 123.557L95.2664 123.722L95.072 123.702L86.4648 122.808C83.5945 122.511 80.7286 122.175 77.8608 121.854L69.2613 120.846L64.9662 120.287C63.5301 120.08 62.115 119.908 60.6578 119.614L60.4822 119.578L60.4234 119.429C59.5915 117.323 59.4719 115.175 59.4842 113.031C59.5459 110.896 59.8005 108.771 60.2449 106.682C61.1725 102.533 62.5185 98.4894 64.2624 94.6135C64.6942 93.646 65.1649 92.6961 65.6141 91.7371C65.8457 91.2608 66.0585 90.7754 66.3053 90.307L67.0443 88.9012C67.5418 87.9667 68.0165 87.0199 68.5328 86.0959L70.1389 83.3559C72.2861 79.6992 74.7512 76.2396 77.5055 73.0173L79.6862 70.697L80.8544 69.6126C81.2485 69.2562 81.6205 68.874 82.0468 68.5539L83.2919 67.5538C83.6986 67.209 84.1608 66.9373 84.5931 66.6254L85.2523 66.1717C85.4727 66.0213 85.7103 65.897 85.94 65.761L86.6355 65.3623C86.8643 65.2235 87.1012 65.0987 87.345 64.9886C88.3022 64.5016 89.299 64.0975 90.3248 63.7806C90.8407 63.6187 91.3661 63.4888 91.898 63.3918C92.1693 63.3549 92.4337 63.301 92.714 63.2865C92.8584 63.2702 93.004 63.2663 93.149 63.275L93.5497 63.302C95.6657 63.4674 97.7681 63.7318 99.8613 64.0705C101.958 64.4019 104.034 64.8573 106.078 65.4342C108.148 65.9813 110.121 66.8498 111.923 68.0082C113.616 69.2983 115.17 70.7623 116.559 72.3763C117.97 73.9576 119.304 75.603 120.575 77.2939L120.518 77.3384Z" fill="black"/>
<path d="M100.692 73.2544L100.372 73.0925C100.401 73.033 103.415 67.1642 108.582 68.3364L108.504 68.6872C103.609 67.5839 100.721 73.1976 100.692 73.2544Z" fill="black"/>
<path d="M105.001 107.029L99.7256 90.541L105.682 106.799L105.001 107.029Z" fill="black"/>
<path d="M62.5439 121.862C64.8994 122.048 67.2505 122.272 69.601 122.502L76.6475 123.238L83.6849 124.056C86.0291 124.343 88.3727 124.637 90.7118 124.97C88.3563 124.785 86.0052 124.561 83.6547 124.331L76.6082 123.595L69.5708 122.776C67.2267 122.489 64.8832 122.195 62.5439 121.862Z" fill="white"/>
<path d="M138.23 94.365C138.486 96.7016 138.756 99.0427 139.112 101.375C137.128 103.34 135.592 104.857 135.592 104.857L129.754 99.5375C130.909 98.838 132.024 98.0764 133.096 97.2559C132.008 94.9835 130.76 92.6561 129.416 90.3607C129.732 89.8659 130.047 89.3665 130.353 88.8626C130.664 88.3586 130.948 87.8455 131.286 87.3827C131.94 86.4436 132.746 85.6212 133.672 84.95C134.109 84.6237 134.593 84.3658 135.108 84.1848C135.316 84.1011 135.543 84.0778 135.764 84.1175C135.984 84.1572 136.19 84.2583 136.356 84.4093C136.706 84.7814 136.959 85.2348 137.092 85.7288C137.188 85.9808 137.238 86.2648 137.311 86.5351C137.361 86.8009 137.407 87.0849 137.444 87.3736C137.613 88.5189 137.732 89.6918 137.855 90.8555L138.23 94.365Z" fill="black"/>
<path d="M147.359 93.174C145.915 94.6446 142.024 98.4977 139.112 101.375C139.135 99.0154 139.067 96.6605 138.943 94.3056C138.82 91.9507 138.655 89.6049 138.349 87.2409C138.308 86.9477 138.257 86.6499 138.193 86.3383C138.111 86.0405 138.052 85.7427 137.937 85.4449C137.756 84.7995 137.404 84.2152 136.918 83.7543C136.636 83.505 136.285 83.3469 135.912 83.3008C135.559 83.2599 135.201 83.3007 134.865 83.4199C134.273 83.6446 133.724 83.9701 133.242 84.382C132.301 85.1478 131.51 86.0832 130.911 87.1401C130.614 87.667 130.376 88.2076 130.129 88.7436C129.887 89.2797 129.649 89.8203 129.416 90.3609C126.752 85.8204 123.789 81.4629 120.547 77.3173C130.225 67.215 137.485 70.5824 142.395 77.3173C143.236 78.4672 144.136 80.8313 145.051 83.9605V83.9651C144.973 84.3183 144.948 84.6812 144.978 85.0417C145.002 85.3869 145.058 85.729 145.147 86.0634C145.238 86.3979 145.361 86.7231 145.513 87.0347C145.635 87.2912 145.787 87.5325 145.965 87.754L146.084 87.7861C146.098 87.8365 146.111 87.8823 146.121 87.9327L146.125 87.9373C146.536 89.5775 146.953 91.3368 147.359 93.174ZM150.441 108.71C146.71 116.21 143.881 120.095 140.461 122.798V122.803C140.691 123.744 140.863 124.699 140.978 125.662C141.101 126.615 141.174 127.572 141.238 128.53C141.284 129.483 141.32 130.44 141.298 131.402C141.297 132.369 141.233 133.335 141.106 134.293C140.873 133.354 140.701 132.4 140.589 131.439C140.461 130.481 140.388 129.524 140.324 128.566C140.283 127.609 140.246 126.647 140.264 125.685C140.269 124.721 140.334 123.758 140.461 122.803C138.349 124.475 136.013 125.698 133.096 127.041C127.606 129.57 120.735 122.629 115.884 116.265C114.878 118.583 113.822 120.874 112.716 123.137C111.623 125.41 110.476 127.655 109.324 129.895C108.154 132.126 106.979 134.353 105.753 136.552C104.537 138.76 103.271 140.943 101.954 143.099C102.96 140.781 104.016 138.49 105.123 136.227C106.215 133.954 107.363 131.709 108.515 129.469C109.68 127.238 110.86 125.011 112.085 122.807C113.297 120.599 114.563 118.418 115.884 116.265C113.672 113.352 111.64 110.305 109.799 107.143C108.556 107.349 107.271 107.51 105.959 107.62L105.187 105.544L105.095 105.32L95.1062 123.417L95.0148 123.403L94.9143 123.394L60.7371 119.27C60.7371 119.27 60.568 120.526 60.504 122.615C60.2662 130.798 61.6743 151.786 81.2955 160.564C83.2953 161.46 85.4404 161.986 87.6272 162.117C95.7097 162.584 116.296 161.26 127.148 137.661C127.352 136.835 127.613 136.025 127.93 135.237C128.232 134.454 128.57 133.684 128.936 132.928C129.297 132.172 129.699 131.434 130.125 130.706C130.547 129.969 131.021 129.264 131.542 128.594C131.344 129.42 131.084 130.23 130.765 131.017C130.458 131.801 130.125 132.575 129.759 133.327C129.393 134.083 128.995 134.823 128.566 135.549C128.144 136.286 127.671 136.992 127.148 137.661C127.148 137.661 146.532 138.435 154.285 132.222C154.285 132.222 152.667 121.048 150.441 108.71ZM95.2846 149.706C94.5636 150.055 93.7669 150.219 92.9668 150.182C92.1592 150.11 91.3819 149.84 90.7039 149.394C90.0443 148.956 89.4528 148.424 88.9483 147.813C88.4521 147.216 88.0013 146.582 87.5997 145.917C86.8289 144.59 86.1684 143.201 85.6249 141.766C84.5699 138.915 83.7504 135.982 83.1745 132.997C82.5734 130.028 82.1627 127.024 81.9448 124.003C82.507 126.972 83.1562 129.918 83.8694 132.841C84.5639 135.758 85.4356 138.63 86.4797 141.44C86.9968 142.832 87.6204 144.181 88.345 145.477C89.0241 146.764 89.9629 147.895 91.1016 148.798C91.6665 149.229 92.3352 149.502 93.0396 149.589C93.7439 149.676 94.4587 149.574 95.1109 149.293C95.7974 149.021 96.4434 148.655 97.0309 148.207C97.6233 147.746 98.1881 147.251 98.7224 146.723C97.8125 147.961 96.638 148.98 95.2846 149.706Z" fill="black"/>
<path d="M147.383 93.197L144.517 96.1931C143.564 97.1934 142.591 98.1751 141.627 99.1652C139.701 101.149 137.759 103.116 135.8 105.067L135.603 105.264L135.393 105.075L132.459 102.434L129.551 99.765L129.917 99.7991C126.835 101.66 123.58 103.217 120.197 104.448C118.512 105.067 116.807 105.633 115.072 106.092C113.338 106.55 111.591 106.965 109.821 107.268L109.911 107.08C112.401 111.267 115.248 115.231 118.419 118.927C119.987 120.772 121.713 122.476 123.578 124.02C124.511 124.77 125.506 125.439 126.554 126.018C127.585 126.579 128.706 126.956 129.867 127.132L130.296 127.186C130.439 127.192 130.583 127.181 130.726 127.18L131.155 127.172C131.297 127.157 131.438 127.134 131.577 127.104C131.86 127.069 132.138 127 132.404 126.897C132.681 126.806 132.952 126.699 133.216 126.575C134.316 126.062 135.414 125.544 136.472 124.963C138.613 123.856 140.577 122.434 142.298 120.745C143.981 119.002 145.476 117.086 146.758 115.029C148.058 112.974 149.265 110.851 150.409 108.695L150.473 108.727C149.422 110.931 148.346 113.13 147.088 115.234C145.863 117.371 144.398 119.36 142.72 121.162C140.993 122.937 139.001 124.433 136.817 125.598C135.74 126.196 134.633 126.724 133.527 127.246C133.239 127.382 132.943 127.501 132.642 127.601C132.339 127.718 132.024 127.798 131.702 127.841C131.544 127.875 131.384 127.901 131.223 127.918L130.739 127.932C130.578 127.934 130.415 127.945 130.255 127.938L129.777 127.882C128.521 127.707 127.309 127.298 126.202 126.676C125.121 126.064 124.095 125.358 123.135 124.568C121.252 122.983 119.519 121.227 117.959 119.321C116.391 117.439 114.925 115.474 113.566 113.435C112.195 111.407 110.909 109.329 109.69 107.205L109.599 107.047L109.78 107.017C111.543 106.732 113.29 106.349 115.011 105.869C116.732 105.39 118.425 104.816 120.084 104.151C121.74 103.482 123.362 102.739 124.95 101.921C126.537 101.108 128.078 100.209 129.596 99.2779L129.791 99.1579L129.962 99.3119L132.89 101.959L135.792 104.635L135.384 104.643C137.353 102.705 139.333 100.778 141.323 98.8613C142.32 97.9043 143.308 96.9387 144.315 95.9919L147.332 93.1465L147.383 93.197Z" fill="black"/>
<path d="M150.408 108.695L151.651 105.878L152.881 103.056L155.303 97.3985L155.356 97.2758L155.492 97.2312C156.491 96.8992 157.455 96.4699 158.37 95.9493C159.287 95.4595 160.111 94.8102 160.802 94.0315C161.129 93.6457 161.397 93.213 161.597 92.7478C161.667 92.506 161.744 92.2765 161.798 92.0182C161.844 91.755 161.895 91.4921 161.934 91.2278C162.101 90.1698 162.216 89.104 162.276 88.0344C162.312 87.4972 162.343 86.9555 162.424 86.4103C162.517 85.8683 162.676 85.34 162.9 84.8377C163.304 83.8362 163.794 82.8614 164.23 81.893C164.324 81.6528 164.381 81.3996 164.399 81.1422C164.416 80.8901 164.392 80.6154 164.385 80.3483C164.362 79.8117 164.331 79.2754 164.282 78.7415C164.229 78.2081 164.163 77.676 164.067 77.1533C163.998 76.6453 163.841 76.1534 163.601 75.7006L163.919 75.7005L161.574 79.2433L159.206 82.7697L159.167 82.8278L159.106 82.8636C158.856 83.0129 158.595 83.143 158.326 83.2529C158.05 83.3696 157.761 83.4532 157.465 83.5019C157.123 83.5667 156.769 83.5219 156.454 83.3738C156.292 83.28 156.152 83.1515 156.045 82.9973C155.937 82.8432 155.865 82.6672 155.834 82.482L155.803 82.3196L155.907 82.186C156.236 81.7596 156.532 81.3083 156.792 80.8362C157.053 80.3748 157.259 79.8839 157.405 79.3739C157.556 78.9096 157.571 78.4116 157.448 77.939C157.379 77.7262 157.263 77.5314 157.11 77.3691C156.939 77.205 156.745 77.0678 156.533 76.9622L156.903 76.937C156.223 77.392 155.57 77.8865 154.947 78.4179C154.648 78.6675 154.376 78.9474 154.135 79.2533C154.086 79.3201 154.042 79.3903 154.003 79.4634C153.935 79.5975 153.843 79.7182 153.732 79.8195C153.548 79.9808 153.339 80.1115 153.114 80.2067C152.741 80.3613 152.378 80.5394 152.027 80.74C151.707 80.9351 151.429 81.1919 151.208 81.4955C150.989 81.8091 150.825 82.1577 150.723 82.5264C150.629 82.897 150.544 83.3132 150.461 83.7253C150.15 85.3748 149.721 86.9964 149.322 88.6222C149.112 89.4331 148.882 90.2389 148.622 91.037C148.49 91.4357 148.357 91.8338 148.188 92.2226C148.114 92.427 147.992 92.6105 147.833 92.7577L147.383 93.1976L147.332 93.1473L147.749 92.684C147.889 92.5386 147.992 92.3602 148.046 92.1651C148.186 91.7777 148.293 91.374 148.398 90.9717C148.602 90.1644 148.78 89.3492 148.96 88.535L149.452 86.082C149.623 85.2661 149.741 84.4409 149.897 83.6232C149.969 83.2144 150.038 82.8091 150.137 82.3663C150.247 81.9253 150.431 81.5063 150.682 81.1274C150.943 80.7467 151.276 80.4214 151.663 80.17C152.03 79.9446 152.411 79.7433 152.804 79.5672C152.961 79.496 153.108 79.4036 153.241 79.2926C153.284 79.2533 153.321 79.2073 153.35 79.1564C153.407 79.0438 153.472 78.9357 153.545 78.833C153.817 78.4791 154.125 78.1554 154.465 77.8673C155.109 77.3107 155.785 76.7925 156.489 76.3155L156.668 76.1925L156.859 76.2903C157.15 76.4324 157.416 76.6197 157.648 76.8453C157.882 77.0887 158.059 77.3816 158.165 77.7025C158.343 78.3161 158.332 78.9691 158.134 79.5764C157.964 80.1419 157.727 80.6852 157.429 81.1946C157.142 81.6994 156.815 82.1808 156.452 82.6344L156.525 82.3385C156.534 82.4242 156.562 82.5069 156.607 82.5803C156.652 82.6538 156.712 82.7163 156.784 82.7631C156.969 82.842 157.173 82.8641 157.37 82.8265C157.862 82.736 158.335 82.5585 158.765 82.3022L158.666 82.396L161.122 78.9299L163.601 75.4803L163.777 75.2354L163.919 75.4802C164.176 75.9854 164.336 76.5343 164.392 77.0986C164.472 77.6388 164.519 78.1792 164.554 78.7194C164.591 79.2594 164.619 79.7992 164.634 80.3394C164.637 80.6104 164.659 80.8749 164.637 81.1606C164.614 81.4414 164.548 81.7169 164.442 81.9779C163.968 82.9609 163.526 83.93 163.136 84.9314C162.928 85.4178 162.783 85.9284 162.703 86.4511C162.647 86.982 162.62 87.5156 162.62 88.0494C162.606 89.1338 162.537 90.2168 162.413 91.2941C162.384 91.5643 162.344 91.8326 162.309 92.1019C162.265 92.3724 162.186 92.6613 162.115 92.9376C161.919 93.4753 161.631 93.9749 161.265 94.4145C160.537 95.2609 159.664 95.9705 158.687 96.5099C157.726 97.0448 156.711 97.4785 155.661 97.8041L155.85 97.6369C155.018 99.5152 154.172 101.388 153.273 103.236C152.826 104.161 152.385 105.089 151.911 106.001C151.441 106.915 150.971 107.829 150.472 108.728L150.408 108.695Z" fill="black"/>
<path d="M139.595 108.657L135.344 105.117L135.838 104.595L139.595 108.657Z" fill="black"/>
<path d="M161.847 88.025L161.536 87.8462L162.41 86.3203L162.722 86.4996L161.847 88.025Z" fill="black"/>
<path d="M162.246 88.803L161.53 90.2734L161.853 90.431L162.568 88.9606L162.246 88.803Z" fill="black"/>
<path d="M161.398 92.7142L161.125 92.4809L161.993 91.459L162.266 91.6923L161.398 92.7142Z" fill="black"/>
<path d="M131.403 45.2754C132.067 46.7639 132.277 48.4162 132.005 50.0237C131.887 50.8304 131.661 51.6176 131.334 52.3642C131.248 52.5482 131.175 52.7384 131.078 52.9165L130.773 53.4419C130.566 53.789 130.342 54.1251 130.101 54.4488C129.987 54.5921 129.891 54.7498 129.818 54.9179C129.744 55.0924 129.687 55.274 129.65 55.4598C129.57 55.8395 129.534 56.2272 129.543 56.6152C129.559 57.3993 129.679 58.1777 129.902 58.9294C130.01 59.307 130.122 59.6806 130.258 60.0513L130.462 60.6068C130.547 60.8399 130.561 61.0932 130.502 61.3343C130.438 61.5897 130.288 61.8153 130.078 61.9737C129.882 62.1143 129.658 62.2116 129.422 62.2593C128.998 62.3363 128.564 62.3458 128.137 62.2872L128.428 62.1853C127.818 62.8615 127.272 63.5932 126.797 64.3707C126.686 64.5563 126.588 64.7499 126.505 64.95C126.459 65.0474 126.435 65.1401 126.4 65.235L126.296 65.5804C126.157 66.0465 125.98 66.5004 125.767 66.9376C125.554 67.3833 125.293 67.8036 124.987 68.1905C124.681 68.5966 124.287 68.9277 123.835 69.1586C123.381 69.3927 122.866 69.4786 122.361 69.4044L122.177 69.3825L122.001 69.3274L121.654 69.2172C121.433 69.1225 121.225 68.9987 121.017 68.8888L121.05 68.8248C121.45 69.0211 121.892 69.1168 122.337 69.1038C122.783 69.0908 123.218 68.9695 123.606 68.7502C124.312 68.2183 124.846 67.4887 125.138 66.6535C125.31 66.2339 125.456 65.8048 125.577 65.3681L125.666 65.0359C125.7 64.9071 125.743 64.7807 125.794 64.6573C125.892 64.4239 126.006 64.198 126.137 63.9815C126.652 63.1616 127.255 62.4017 127.938 61.716L128.056 61.5903L128.229 61.614C128.584 61.6732 128.945 61.6845 129.302 61.6473C129.447 61.6449 129.589 61.6003 129.709 61.5191C129.829 61.4378 129.923 61.3233 129.98 61.1895C130.028 61.0472 130.035 60.8939 129.999 60.748L129.851 60.1705C129.756 59.7849 129.669 59.3921 129.596 58.9998C129.442 58.2147 129.351 57.4186 129.322 56.619C129.31 56.2155 129.329 55.8116 129.381 55.4111C129.409 55.2064 129.451 55.004 129.508 54.8053C129.539 54.7016 129.577 54.6003 129.623 54.5022L129.773 54.2273C130.16 53.5567 130.489 52.8541 130.757 52.1273C131.041 51.4136 131.257 50.6748 131.403 49.9206C131.555 49.1644 131.626 48.394 131.613 47.6227C131.615 46.8412 131.522 46.0624 131.337 45.3032L131.403 45.2754Z" fill="black"/>
<path d="M124.135 51.8505C124.615 51.7623 125.107 51.7595 125.588 51.8422C126.07 51.9144 126.541 52.0497 126.988 52.2446C127.441 52.4383 127.861 52.7005 128.235 53.0221C128.614 53.3388 128.92 53.7344 129.131 54.1814C128.699 53.9369 128.321 53.6926 127.917 53.4843C127.512 53.2818 127.117 53.0782 126.701 52.9038C125.877 52.5382 125.03 52.236 124.135 51.8505ZM127.064 56.1022C127.203 56.0974 127.335 56.0384 127.432 55.9378C127.53 55.8371 127.584 55.7026 127.584 55.5626C127.584 55.4227 127.53 55.2882 127.432 55.1875C127.335 55.0868 127.203 55.0279 127.064 55.0231C126.924 55.0279 126.792 55.0868 126.695 55.1875C126.598 55.2882 126.543 55.4227 126.543 55.5626C126.543 55.7026 126.598 55.8371 126.695 55.9378C126.792 56.0384 126.924 56.0974 127.064 56.1022ZM126.633 59.9654C126.561 60.2043 126.562 60.4593 126.637 60.6975C126.683 60.8048 126.741 60.9066 126.809 61.0012C126.888 61.1029 126.973 61.2146 127.064 61.3466C126.906 61.3405 126.753 61.2929 126.62 61.2085C126.478 61.1157 126.367 60.9826 126.302 60.8261C126.24 60.6595 126.242 60.4758 126.308 60.3109C126.368 60.1583 126.485 60.0346 126.633 59.9654ZM124.135 62.5552C124.518 62.9004 124.844 63.2574 125.208 63.5631C125.381 63.7195 125.57 63.8577 125.771 63.9754C125.979 64.0962 126.208 64.1774 126.445 64.2151C126.195 64.316 125.916 64.3226 125.661 64.2336C125.407 64.1495 125.174 64.0142 124.974 63.8361C124.579 63.4975 124.288 63.0533 124.135 62.5552Z" fill="black"/>
<path d="M131.857 44.7716C131.857 44.7716 125.857 51.0736 119.138 50.7283C119.138 50.7283 116.209 45.5486 114.831 50.2103C113.453 54.872 114.745 57.2029 116.296 55.9943C117.846 54.7857 122.654 73.5631 119.949 76.5624C117.243 79.5618 110.789 77.6626 107.383 78.6985C103.978 79.7344 98.217 79.7344 96.4457 77.1446C94.6744 74.5547 93.813 71.1016 92.2625 70.0657C90.712 69.0298 90.1951 61.4329 92.2625 59.9653C94.3299 58.4978 95.5358 55.131 97.9478 53.0159C100.36 50.9009 104.236 43.1314 104.537 42.0954C104.839 41.0595 109.491 31.3908 118.966 35.0165C128.441 38.6423 131.857 44.7716 131.857 44.7716Z" fill="black"/>
<path d="M116.07 54.8166C116.675 55.0338 117.182 55.4624 117.497 56.0238C117.813 56.602 117.914 57.2737 117.781 57.9194C117.678 58.4103 117.445 58.8643 117.107 59.2341C116.768 59.6038 116.337 59.8757 115.858 60.0213C115.379 60.1669 114.87 60.1808 114.384 60.0617C113.897 59.9425 113.452 59.6946 113.094 59.3439C112.615 58.8846 112.317 58.2672 112.256 57.6055C112.195 56.9438 112.375 56.2823 112.762 55.7428C113.141 55.2228 113.695 54.8572 114.321 54.7129C113.742 54.9103 113.248 55.3011 112.922 55.8198C112.596 56.3385 112.457 56.9537 112.53 57.5625C112.61 58.1522 112.889 58.6969 113.319 59.1069C113.753 59.5061 114.311 59.7432 114.9 59.778C115.488 59.8129 116.07 59.6434 116.548 59.2982C117.026 58.9438 117.367 58.4351 117.513 57.8579C117.657 57.262 117.592 56.6346 117.33 56.0809C117.067 55.5272 116.622 55.0808 116.07 54.8166Z" fill="#B21919"/>
<path d="M151.182 57.8937C151.667 58.6101 152.096 59.3633 152.464 60.1466C152.846 60.923 153.166 61.7284 153.422 62.5554C152.936 61.8396 152.508 61.0862 152.14 60.3026C151.759 59.5259 151.438 58.7205 151.182 57.8937ZM160.572 56.3398C160.698 57.1681 160.758 58.0054 160.751 58.8434C160.759 59.6814 160.699 60.5187 160.572 61.3469C160.444 60.5187 160.384 59.6814 160.392 58.8434C160.384 58.0054 160.444 57.1681 160.572 56.3398ZM166.056 61.7785C166.641 61.1904 167.273 60.6511 167.945 60.166C168.608 59.6679 169.311 59.2255 170.047 58.8434C169.462 59.4321 168.83 59.9714 168.157 60.4559C167.494 60.9533 166.791 61.3956 166.056 61.7785ZM160.143 148.571C160.143 148.571 171.226 158.565 145.953 150.688C145.953 150.688 138.58 148.409 136.765 146.187C135.813 147.876 135.273 149.767 135.19 151.705C135.107 153.644 135.484 155.574 136.288 157.338C136.288 157.338 146.457 159.715 145.686 157.915C144.915 156.115 143.899 154.28 146.416 154.56C146.416 154.56 171.573 164.63 170.831 153.901C170.831 153.901 171.04 153.149 167.254 151.803C165.425 151.146 163.642 150.37 161.915 149.478L160.143 148.571ZM135.19 137.491C135.481 138.985 135.617 140.464 135.796 141.933C135.876 142.668 135.972 143.399 136.089 144.121C136.154 144.48 136.219 144.84 136.318 145.19C136.402 145.548 136.554 145.887 136.765 146.187C136.435 145.975 136.168 145.677 135.993 145.326C135.81 144.984 135.66 144.626 135.545 144.255C135.321 143.525 135.167 142.776 135.084 142.017C134.999 141.265 134.963 140.508 134.976 139.751C134.98 138.993 135.052 138.236 135.19 137.491ZM148.304 135.234C148.5 136.932 148.718 138.623 149.015 140.287C149.157 141.112 149.351 141.928 149.596 142.728L149.804 143.303C149.884 143.485 149.973 143.661 150.06 143.834C150.256 144.155 150.526 144.424 150.846 144.62C151.538 145.074 152.27 145.463 153.033 145.784C153.799 146.133 154.584 146.446 155.371 146.76C156.95 147.375 158.544 147.971 160.143 148.571C158.465 148.244 156.809 147.816 155.183 147.288C153.517 146.803 151.921 146.103 150.434 145.208L150.156 145.01L149.892 144.761C149.721 144.589 149.573 144.395 149.452 144.184C149.349 143.978 149.249 143.77 149.162 143.561C149.09 143.351 149.01 143.141 148.948 142.929C148.719 142.09 148.557 141.235 148.464 140.371C148.266 138.666 148.212 136.947 148.304 135.234Z" fill="black"/>
<path d="M146.152 87.8043C146.147 87.8493 146.138 87.8938 146.125 87.9371L146.12 87.9326C146.066 87.873 146.011 87.8135 145.965 87.7539L146.084 87.786L146.152 87.8043Z" fill="white"/>
<path d="M211.357 147.25C211 142.985 210.69 138.715 210.392 134.449C209.83 125.909 209.332 117.365 209.099 108.802H177.806C177.393 108.801 176.996 108.957 176.694 109.24C176.392 109.523 176.21 109.91 176.183 110.323L173.262 155.185C173.235 155.611 173.375 156.03 173.653 156.353C173.931 156.676 174.324 156.877 174.748 156.912L212.116 160.06C212.267 160.073 212.419 160.065 212.569 160.037C212.107 155.776 211.703 151.514 211.357 147.25ZM201.665 115.633C201.672 119.359 201.337 123.078 200.664 126.743C200.298 128.839 199.67 130.88 198.794 132.818C198.338 133.822 197.692 134.727 196.893 135.485C196.464 135.874 195.966 136.179 195.425 136.383C194.869 136.574 194.277 136.639 193.692 136.57C192.572 136.405 191.519 135.931 190.652 135.201C189.816 134.494 189.107 133.648 188.559 132.699C188.025 131.773 187.578 130.799 187.224 129.79C186.863 128.793 186.567 127.774 186.337 126.738C185.544 123.089 185.18 119.358 185.253 115.624C184.813 115.591 184.404 115.386 184.113 115.053C183.823 114.721 183.674 114.287 183.7 113.845C183.725 113.404 183.923 112.99 184.25 112.694C184.577 112.397 185.007 112.241 185.448 112.259C185.889 112.278 186.305 112.469 186.606 112.792C186.908 113.115 187.07 113.544 187.059 113.986C187.048 114.428 186.864 114.848 186.547 115.155C186.229 115.462 185.804 115.632 185.363 115.628C185.464 117.246 185.61 118.854 185.834 120.457C186.095 122.518 186.485 124.561 187 126.574C187.484 128.57 188.249 130.488 189.272 132.268C189.781 133.125 190.43 133.89 191.192 134.532C191.935 135.15 192.833 135.553 193.788 135.695C194.243 135.751 194.703 135.704 195.137 135.558C195.575 135.396 195.979 135.152 196.326 134.839C197.043 134.153 197.627 133.341 198.049 132.442C198.924 130.579 199.576 128.618 199.992 126.601C200.445 124.581 200.783 122.523 201.048 120.453C201.268 118.849 201.428 117.236 201.556 115.619C201.143 115.553 200.773 115.327 200.526 114.99C200.278 114.653 200.172 114.232 200.231 113.818C200.29 113.404 200.509 113.029 200.841 112.775C201.173 112.521 201.591 112.408 202.005 112.46C202.419 112.512 202.797 112.724 203.056 113.052C203.315 113.381 203.436 113.798 203.391 114.214C203.346 114.63 203.141 115.012 202.818 115.277C202.495 115.542 202.081 115.67 201.665 115.633ZM218.127 152.844L217.89 153.119C217.405 153.664 216.953 154.237 216.482 154.791C216.025 155.359 215.567 155.927 215.119 156.5C214.671 157.077 214.233 157.661 213.803 158.25C213.391 158.837 212.966 159.419 212.582 160.032L212.569 160.037C212.45 155.753 212.274 151.476 212.043 147.204C211.823 142.93 211.554 138.66 211.27 134.39C210.68 125.85 210.022 117.314 209.099 108.802L212.569 108.802C213.167 116.279 214.027 123.719 214.955 131.155C215.435 134.871 215.924 138.586 216.464 142.293C216.966 145.821 217.521 149.338 218.127 152.844ZM221.355 155.749C222.411 156.335 223.481 156.903 224.592 157.412C224.374 157.619 224.101 157.759 223.805 157.815L212.601 160.032C213.135 159.551 213.643 159.047 214.146 158.543C214.662 158.026 215.167 157.499 215.659 156.963C216.157 156.431 216.642 155.886 217.126 155.341C217.519 154.883 217.922 154.429 218.31 153.967C218.758 154.241 219.206 154.516 219.659 154.777C220.221 155.107 220.784 155.437 221.355 155.749Z" fill="black"/>
<path d="M224.637 157.366C223.686 156.596 222.699 155.882 221.707 155.185C221.172 154.81 220.633 154.448 220.089 154.09C219.549 153.724 218.996 153.385 218.447 153.032L218.169 152.853C217.88 149.298 217.539 145.749 217.145 142.206C216.747 138.481 216.294 134.761 215.828 131.045C214.872 123.614 213.853 116.192 212.568 108.802H216.34C216.727 108.801 217.102 108.94 217.396 109.192C217.69 109.444 217.885 109.793 217.945 110.176L225.094 155.969C225.134 156.221 225.114 156.48 225.034 156.723C224.955 156.966 224.819 157.186 224.637 157.366Z" fill="black"/>
<path d="M212.582 160.033H212.601C212.587 160.042 212.578 160.056 212.564 160.065C212.569 160.056 212.578 160.042 212.582 160.033ZM224.843 157.531C224.761 157.494 224.674 157.453 224.592 157.412C224.609 157.399 224.625 157.384 224.637 157.366C224.706 157.421 224.775 157.476 224.843 157.531Z" fill="white"/>
<path d="M37.555 108.325H4.34703L0.0131836 153.957H17.44L19.8858 122.803H39.155L37.555 108.325ZM11.9724 116.7C11.4329 116.701 10.9053 116.541 10.4565 116.241C10.0078 115.941 9.65787 115.514 9.45119 115.014C9.24451 114.515 9.19031 113.965 9.29545 113.435C9.4006 112.904 9.66036 112.417 10.0419 112.035C10.4234 111.653 10.9095 111.392 11.4387 111.287C11.9678 111.182 12.5163 111.236 13.0147 111.443C13.5131 111.65 13.939 112.001 14.2384 112.45C14.5379 112.9 14.6975 113.429 14.6971 113.97C14.6966 114.694 14.4093 115.388 13.8985 115.9C13.3876 116.412 12.6949 116.7 11.9724 116.7ZM30.6336 116.7C30.0941 116.701 29.5666 116.541 29.1178 116.241C28.669 115.941 28.3191 115.514 28.1124 115.014C27.9057 114.515 27.8515 113.965 27.9567 113.435C28.0618 112.904 28.3216 112.417 28.7031 112.035C29.0846 111.653 29.5707 111.392 30.0999 111.287C30.6291 111.182 31.1776 111.236 31.6759 111.443C32.1743 111.65 32.6002 112.001 32.8997 112.45C33.1991 112.9 33.3587 113.429 33.3583 113.97C33.358 114.694 33.0709 115.388 32.56 115.9C32.0491 116.412 31.3562 116.7 30.6336 116.7Z" fill="black"/>
<path d="M39.1535 122.737C40.529 122.649 41.9044 122.601 43.2799 122.538C44.6554 122.47 46.0308 122.439 47.4063 122.392C50.1572 122.318 52.9081 122.267 55.6591 122.237L56.1174 122.232L56.2127 122.693C56.783 125.446 57.3589 128.199 57.8522 130.969C58.3474 133.737 58.7974 136.515 59.2676 139.289C59.7147 142.068 60.2385 144.831 60.7874 147.589C61.3305 150.348 61.946 153.093 62.5629 155.838L62.6025 156.014L62.4605 156.152L58.5774 159.925L58.4507 160.048L58.2509 160.052C54.8131 160.126 51.3754 160.179 47.9376 160.21L42.7809 160.264L37.6243 160.277C34.1866 160.257 30.7488 160.217 27.3111 160.157C23.8733 160.095 20.4356 159.987 16.9978 159.879L16.6504 159.868L16.6889 159.544L17.0218 156.748C17.1318 155.816 17.2485 154.885 17.372 153.954L17.5036 153.964C17.4818 154.903 17.4518 155.841 17.4137 156.779L17.3065 159.593L16.9978 159.258C20.4356 159.15 23.8733 159.042 27.3111 158.98C30.7488 158.916 34.1866 158.877 37.6243 158.86L42.7809 158.873L47.9376 158.927C51.3753 158.954 54.8131 159.007 58.2509 159.085L57.9245 159.212L62.0059 155.656L61.9035 155.969C61.4247 153.197 60.9447 150.425 60.392 147.668C59.8452 144.909 59.2733 142.156 58.6249 139.417C57.9992 136.675 57.3536 133.936 56.7531 131.188C56.1507 128.44 55.631 125.676 55.1056 122.913L55.6591 123.369C52.9082 123.339 50.1573 123.288 47.4063 123.214C46.0308 123.167 44.6553 123.136 43.2798 123.068C41.9044 123.005 40.529 122.957 39.1535 122.869L39.1535 122.737Z" fill="black"/>
<path d="M55.6582 122.803C56.4358 128.906 56.9476 135.028 57.3941 141.155C57.6027 144.22 57.8003 147.285 57.9467 150.354C58.1055 153.422 58.2076 156.494 58.2528 159.57C57.8659 156.518 57.5355 153.462 57.2617 150.402C56.9756 147.343 56.7408 144.281 56.5169 141.217C56.0985 135.088 55.7454 128.955 55.6582 122.803ZM10.676 108.73C10.5353 105.985 11.0954 103.249 12.3033 100.782C13.1214 99.264 14.3096 97.9783 15.7572 97.0446C17.2049 96.111 18.8649 95.5598 20.5824 95.4426C22.2999 95.3253 24.0191 95.6458 25.5797 96.3741C27.1404 97.1024 28.4916 98.2148 29.5075 99.6076C31.1892 101.978 32.0116 105.019 31.9509 108.645L29.3106 108.6C29.3619 105.552 28.7039 103.042 27.3556 101.14C26.6016 100.117 25.6024 99.3002 24.4503 98.7657C23.2982 98.2312 22.0303 97.9962 20.7637 98.0823C19.4971 98.1685 18.2725 98.573 17.203 99.2585C16.1336 99.9441 15.2536 100.889 14.6445 102.005C13.6646 104.029 13.205 106.267 13.3074 108.515L10.676 108.73ZM37.66 146.107C36.0224 146.12 34.4058 145.738 32.9469 144.992C31.488 144.247 30.2299 143.16 29.2789 141.824C27.5695 139.414 26.7337 136.329 26.7953 132.656L29.8749 132.708C29.8249 135.708 30.4691 138.173 31.7897 140.036C32.5218 141.029 33.4916 141.821 34.6096 142.339C35.7276 142.858 36.9579 143.086 38.1869 143.002C39.416 142.919 40.6043 142.526 41.6423 141.861C42.6803 141.197 43.5345 140.28 44.1262 139.198C45.0821 137.207 45.5329 135.01 45.4388 132.803L48.509 132.557C48.6521 135.343 48.0837 138.12 46.8576 140.624C46.039 142.186 44.8311 143.51 43.3511 144.466C41.8712 145.422 40.1696 145.978 38.4118 146.081C38.16 146.098 37.9094 146.107 37.66 146.107Z" fill="black"/>
<path d="M46.994 133.263C48.4997 133.263 49.7204 132.04 49.7204 130.531C49.7204 129.022 48.4997 127.799 46.994 127.799C45.4882 127.799 44.2676 129.022 44.2676 130.531C44.2676 132.04 45.4882 133.263 46.994 133.263Z" fill="black"/>
<path d="M28.3319 133.263C29.8376 133.263 31.0583 132.04 31.0583 130.531C31.0583 129.022 29.8376 127.799 28.3319 127.799C26.8261 127.799 25.6055 129.022 25.6055 130.531C25.6055 132.04 26.8261 133.263 28.3319 133.263Z" fill="black"/>
<path d="M62.2349 155.905C61.8178 155.903 61.4029 155.846 61.0006 155.735C60.6129 155.632 60.234 155.499 59.8675 155.336C59.5004 155.174 59.147 154.983 58.8108 154.764C58.4587 154.539 58.1377 154.269 57.8564 153.96C58.2737 153.962 58.689 154.019 59.0913 154.13C59.479 154.232 59.8578 154.366 60.2239 154.53C60.5906 154.693 60.9438 154.884 61.2801 155.103C61.6319 155.328 61.9529 155.597 62.2349 155.905ZM207.457 26.4805H190.666L188.471 49.5531H197.286L198.52 33.8018H208.266L207.457 26.4805ZM194.52 30.7138C194.247 30.7134 193.981 30.6319 193.754 30.4798C193.528 30.3276 193.352 30.1116 193.248 29.859C193.144 29.6065 193.117 29.3287 193.17 29.0608C193.224 28.7929 193.356 28.547 193.549 28.3541C193.742 28.1613 193.988 28.0301 194.255 27.9772C194.523 27.9244 194.8 27.9522 195.051 28.0571C195.303 28.1621 195.518 28.3395 195.669 28.5669C195.82 28.7944 195.901 29.0616 195.9 29.3348C195.9 29.5162 195.864 29.6958 195.795 29.8633C195.725 30.0309 195.623 30.183 195.495 30.3111C195.367 30.4392 195.215 30.5407 195.047 30.6098C194.88 30.6789 194.701 30.7142 194.52 30.7138ZM203.955 30.7138C203.683 30.7134 203.416 30.6319 203.19 30.4797C202.964 30.3276 202.787 30.1115 202.683 29.859C202.579 29.6064 202.553 29.3286 202.606 29.0607C202.66 28.7929 202.792 28.547 202.985 28.3541C203.178 28.1612 203.424 28.0301 203.691 27.9772C203.958 27.9244 204.236 27.9522 204.487 28.0572C204.739 28.1621 204.954 28.3395 205.105 28.567C205.256 28.7944 205.336 29.0616 205.336 29.3348C205.336 29.5162 205.3 29.6958 205.23 29.8633C205.161 30.0309 205.059 30.183 204.931 30.3111C204.803 30.4392 204.651 30.5407 204.483 30.6098C204.316 30.6789 204.136 30.7142 203.955 30.7138Z" fill="black"/>
<path d="M208.266 33.7667C208.962 33.7222 209.657 33.6978 210.353 33.666C211.048 33.6302 211.744 33.621 212.44 33.5985C213.831 33.5543 215.222 33.5262 216.613 33.5141L216.845 33.5117L216.893 33.7443C217.181 35.1369 217.472 36.529 217.722 37.9294L218.438 42.137C218.665 43.5419 218.927 44.9397 219.208 46.3338C219.494 47.727 219.785 49.1189 220.104 50.5055L220.124 50.5942L220.052 50.6643L218.089 52.5721L218.025 52.6344L217.923 52.6365C216.185 52.6741 214.447 52.7007 212.708 52.7165C210.97 52.7373 209.231 52.7541 207.493 52.7502C205.755 52.7409 204.016 52.7218 202.278 52.6831C200.539 52.6586 198.801 52.6042 197.062 52.5489L196.887 52.5433L196.906 52.3796C197.019 51.4371 197.126 50.4941 197.252 49.5527L197.318 49.558C197.296 50.5076 197.254 51.4557 197.219 52.4042L197.062 52.2349C198.801 52.1796 200.539 52.1253 202.278 52.1007C204.016 52.0621 205.755 52.043 207.493 52.0336C209.231 52.0298 210.97 52.0465 212.708 52.0674C214.447 52.0812 216.185 52.1079 217.923 52.1473L217.759 52.2117L219.822 50.4133L219.771 50.572C219.535 49.1688 219.273 47.771 219.005 46.3744C218.731 44.9787 218.44 43.5867 218.113 42.2019L217.166 38.0403C216.861 36.6509 216.599 35.2531 216.333 33.856L216.613 34.0862C215.222 34.0719 213.831 34.0438 212.44 34.0018C211.744 33.9793 211.048 33.9701 210.353 33.9343C209.657 33.9025 208.962 33.8781 208.266 33.8336V33.7667Z" fill="black"/>
<path d="M216.612 33.7997C216.813 35.3426 216.965 36.8889 217.11 38.4358C217.256 39.9826 217.362 41.5323 217.49 43.0803C217.582 44.631 217.693 46.1803 217.767 47.7322C217.84 49.2841 217.907 50.8365 217.924 52.3924C217.723 50.8496 217.57 49.3032 217.425 47.7564C217.281 46.2094 217.173 44.6599 217.046 43.1118C216.956 41.5611 216.843 40.0119 216.77 38.4599C216.696 36.908 216.63 35.3556 216.612 33.7997ZM193.865 26.683C193.794 25.2951 194.077 23.9119 194.688 22.6643C195.102 21.8966 195.703 21.2464 196.435 20.7743C197.167 20.3021 198.006 20.0234 198.875 19.9641C199.743 19.9048 200.613 20.0668 201.402 20.4351C202.191 20.8033 202.875 21.3658 203.388 22.0701C204.281 23.42 204.715 25.0231 204.624 26.64L203.289 26.6177C203.372 25.2864 203.025 23.9638 202.3 22.8453C201.919 22.3277 201.413 21.9147 200.831 21.6445C200.248 21.3742 199.607 21.2554 198.966 21.299C198.326 21.3426 197.707 21.5472 197.166 21.8938C196.625 22.2405 196.18 22.7182 195.872 23.2826C195.379 24.3078 195.147 25.4392 195.196 26.5761L193.865 26.683ZM207.511 45.5841C206.683 45.5909 205.865 45.3976 205.127 45.0207C204.39 44.6437 203.753 44.0942 203.272 43.4186C202.365 42.0496 201.925 40.4232 202.016 38.7824L203.574 38.8084C203.491 40.1158 203.831 41.4151 204.542 42.5141C204.912 43.0162 205.403 43.4168 205.968 43.6789C206.533 43.941 207.156 44.0563 207.777 44.0141C208.399 43.9718 209 43.7735 209.524 43.4372C210.049 43.101 210.481 42.6378 210.781 42.0902C211.267 41.0853 211.495 39.9745 211.444 38.8587L212.997 38.7321C213.07 40.141 212.782 41.5451 212.162 42.8116C211.748 43.6017 211.137 44.271 210.389 44.7545C209.64 45.238 208.78 45.5193 207.891 45.5711C207.764 45.5796 207.637 45.5839 207.511 45.5841Z" fill="black"/>
<path d="M212.231 39.0891C212.992 39.0891 213.609 38.4706 213.609 37.7076C213.609 36.9447 212.992 36.3262 212.231 36.3262C211.47 36.3262 210.853 36.9447 210.853 37.7076C210.853 38.4706 211.47 39.0891 212.231 39.0891Z" fill="black"/>
<path d="M202.793 39.0891C203.555 39.0891 204.172 38.4706 204.172 37.7076C204.172 36.9447 203.555 36.3262 202.793 36.3262C202.032 36.3262 201.415 36.9447 201.415 37.7076C201.415 38.4706 202.032 39.0891 202.793 39.0891Z" fill="black"/>
<path d="M219.938 50.5403C219.524 50.5258 219.117 50.4278 218.741 50.2522C218.358 50.092 218.012 49.8553 217.724 49.5566C218.139 49.5702 218.546 49.6682 218.921 49.8447C219.303 50.0058 219.649 50.2424 219.938 50.5403Z" fill="black"/>
<path d="M223.874 76.8474H184.537C183.539 76.8462 182.583 76.4485 181.877 75.7414C181.172 75.0343 180.775 74.0757 180.773 73.0757V4.58737C180.775 3.58737 181.171 2.62866 181.877 1.92153C182.583 1.21441 183.539 0.816618 184.537 0.81543H223.874C224.872 0.816528 225.829 1.21428 226.534 1.92141C227.24 2.62854 227.637 3.58731 227.638 4.58737V73.0757C227.637 74.0757 227.24 75.0345 226.534 75.7416C225.829 76.4486 224.872 76.8463 223.874 76.8474ZM184.537 3.3299C184.204 3.33036 183.885 3.463 183.65 3.69872C183.415 3.93445 183.283 4.25403 183.282 4.58737V73.0757C183.283 73.409 183.415 73.7286 183.65 73.9642C183.886 74.1999 184.204 74.3325 184.537 74.333H223.874C224.207 74.3326 224.526 74.2001 224.761 73.9644C224.996 73.7287 225.128 73.4091 225.129 73.0757V4.58737C225.129 4.25396 224.996 3.93433 224.761 3.69859C224.526 3.46286 224.207 3.33026 223.874 3.3299H184.537Z" fill="black"/>
<path d="M212.479 4.71828H195.932C195.582 4.71828 195.246 4.57889 194.998 4.33078C194.751 4.08267 194.612 3.74616 194.612 3.39528C194.612 3.04439 194.751 2.70788 194.998 2.45977C195.246 2.21166 195.582 2.07227 195.932 2.07227H212.479C212.653 2.07194 212.825 2.10591 212.985 2.17225C213.146 2.23859 213.292 2.33599 213.414 2.45888C213.537 2.58176 213.635 2.72772 213.701 2.8884C213.768 3.04908 213.802 3.22132 213.802 3.39528C213.802 3.56923 213.768 3.74147 213.701 3.90215C213.635 4.06283 213.537 4.20879 213.414 4.33167C213.292 4.45456 213.146 4.55196 212.985 4.6183C212.825 4.68464 212.653 4.71861 212.479 4.71828ZM204.206 72.9838C207.603 72.9838 207.609 67.6919 204.206 67.6919C200.808 67.6919 200.802 72.9838 204.206 72.9838Z" fill="black"/>
<path d="M182.028 8.07031H226.383L233.987 17.0941H175.058L182.028 8.07031Z" fill="black"/>
<path d="M197.486 63.2266L195.067 59.5677H195.887C196.291 59.5677 196.68 59.4065 196.966 59.1196C197.252 58.8328 197.413 58.4437 197.413 58.038C197.413 57.6323 197.252 57.2432 196.966 56.9563C196.68 56.6694 196.291 56.5083 195.887 56.5083V55.626C196.46 55.626 197.014 55.8311 197.45 56.2043C197.886 56.5775 198.174 57.0943 198.264 57.6617C198.353 58.2292 198.238 58.81 197.938 59.2996C197.638 59.7893 197.174 60.1557 196.629 60.3328L198.22 62.7399L197.486 63.2266Z" fill="black"/>
<path d="M199.379 55.626H193.587V56.5082H199.379V55.626Z" fill="black"/>
<path d="M199.379 59.5684H193.587V60.4506H199.379V59.5684Z" fill="black"/>
<path d="M205.298 63.2266L202.879 59.5677H203.698C204.103 59.5677 204.491 59.4065 204.777 59.1196C205.064 58.8328 205.224 58.4437 205.224 58.038C205.224 57.6323 205.064 57.2432 204.777 56.9563C204.491 56.6694 204.103 56.5083 203.698 56.5083V55.626C204.271 55.626 204.826 55.8311 205.262 56.2043C205.697 56.5775 205.986 57.0943 206.075 57.6617C206.165 58.2292 206.049 58.81 205.75 59.2996C205.45 59.7893 204.985 60.1557 204.44 60.3328L206.032 62.7399L205.298 63.2266Z" fill="black"/>
<path d="M207.19 55.626H201.398V56.5082H207.19V55.626Z" fill="black"/>
<path d="M207.19 59.5684H201.398V60.4506H207.19V59.5684Z" fill="black"/>
<path d="M212.932 63.2266L210.513 59.5677H211.332C211.737 59.5677 212.125 59.4065 212.411 59.1196C212.698 58.8328 212.858 58.4437 212.858 58.038C212.858 57.6323 212.698 57.2432 212.411 56.9563C212.125 56.6694 211.737 56.5083 211.332 56.5083V55.626C211.905 55.626 212.46 55.8311 212.895 56.2043C213.331 56.5775 213.62 57.0943 213.709 57.6617C213.799 58.2292 213.683 58.81 213.383 59.2996C213.084 59.7893 212.619 60.1557 212.074 60.3328L213.665 62.7399L212.932 63.2266Z" fill="black"/>
<path d="M214.824 55.626H209.032V56.5082H214.824V55.626Z" fill="black"/>
<path d="M214.824 59.5684H209.032V60.4506H214.824V59.5684Z" fill="black"/>
</svg>
